<svg width="250" height="166" viewBox="0 0 250 166" fill="none" xmlns="http://www.w3.org/2000/svg">
<path d="M198.292 127.504V138H178.068V127.504H180.756V117.008C180.756 115.6 180.457 114.576 179.86 113.936C179.263 113.253 178.367 112.912 177.172 112.912C174.612 112.912 173.332 114.277 173.332 117.008V127.504H176.02V138H155.924V127.504H158.612V117.008C158.612 115.6 158.313 114.576 157.716 113.936C157.119 113.253 156.223 112.912 155.028 112.912C152.468 112.912 151.188 114.277 151.188 117.008V127.504H153.876V138H133.652V127.504H136.468V112.912H133.652V102.416H151.188V107.408C154.26 103.483 158.1 101.52 162.708 101.52C165.311 101.52 167.423 102.139 169.044 103.376C170.708 104.571 171.881 106.277 172.564 108.496C174.1 106.277 175.849 104.571 177.812 103.376C179.817 102.181 182.164 101.584 184.852 101.584C188.393 101.584 191.039 102.693 192.788 104.912C194.58 107.131 195.476 110.181 195.476 114.064V127.504H198.292Z" fill="#1C4B43"/>
<path d="M114.724 138.896C108.665 138.896 103.929 137.317 100.516 134.16C97.1027 130.96 95.396 126.309 95.396 120.208C95.396 114.107 97.1027 109.477 100.516 106.32C103.929 103.12 108.665 101.52 114.724 101.52C120.74 101.52 125.071 103.099 127.716 106.256C130.404 109.371 131.748 113.253 131.748 117.904V122.512H111.012V122.896C111.012 124.475 111.481 125.648 112.42 126.416C113.359 127.141 114.916 127.504 117.092 127.504C119.695 127.504 122.169 127.312 124.516 126.928C126.863 126.544 128.911 126.053 130.66 125.456V135.696C129.167 136.507 126.969 137.253 124.068 137.936C121.209 138.576 118.095 138.896 114.724 138.896ZM118.436 115.472V114.704C118.436 113.253 118.116 112.208 117.476 111.568C116.879 110.928 115.961 110.608 114.724 110.608C113.487 110.608 112.548 110.949 111.908 111.632C111.311 112.272 111.012 113.296 111.012 114.704V115.472H118.436Z" fill="#1C4B43"/>
<path d="M93.5856 127.504V138H73.3616V127.504H76.0496V117.008C76.0496 115.6 75.7509 114.576 75.1536 113.936C74.5563 113.253 73.6603 112.912 72.4656 112.912C69.9056 112.912 68.6256 114.277 68.6256 117.008V127.504H71.3136V138H51.0896V127.504H53.9056V98.704H51.0896V88.208H68.6256V107.408C70.2043 105.445 71.9109 103.973 73.7456 102.992C75.5803 102.011 77.7136 101.52 80.1456 101.52C83.6869 101.52 86.3323 102.629 88.0816 104.848C89.8736 107.067 90.7696 110.117 90.7696 114V127.504H93.5856Z" fill="#1C4B43"/>
<path d="M49.024 103.696H38.016V98.704H33.92V127.504H38.4V138H11.52V127.504H16V98.704H11.904V103.696H0.895996V88.208H49.024V103.696Z" fill="#1C4B43"/>
<path d="M120.885 61.896C116.533 61.896 113.248 60.2747 111.029 57.032C108.853 53.7893 107.765 49.1813 107.765 43.208C107.765 37.2347 108.853 32.6267 111.029 29.384C113.248 26.1413 116.533 24.52 120.885 24.52C123.061 24.52 124.981 25.0533 126.645 26.12C128.352 27.1867 129.738 28.4027 130.805 29.768V21.704H127.029V11.208H145.525V50.504H148.341V61H130.805V56.648C129.738 58.0133 128.352 59.2293 126.645 60.296C124.981 61.3627 123.061 61.896 120.885 61.896ZM127.093 50.504C128.33 50.504 129.248 50.184 129.845 49.544C130.485 48.8613 130.805 47.816 130.805 46.408V40.008C130.805 38.6 130.485 37.576 129.845 36.936C129.248 36.2533 128.33 35.912 127.093 35.912C125.856 35.912 124.917 36.2533 124.277 36.936C123.68 37.576 123.381 38.6 123.381 40.008V46.408C123.381 47.816 123.68 48.8613 124.277 49.544C124.917 50.184 125.856 50.504 127.093 50.504Z" fill="#1C4B43"/>
<path d="M106.211 50.504V61H85.9866V50.504H88.6746V40.008C88.6746 38.6 88.3759 37.576 87.7786 36.936C87.1813 36.2534 86.2853 35.912 85.0906 35.912C82.5306 35.912 81.2506 37.2774 81.2506 40.008V50.504H83.9386V61H63.7146V50.504H66.5306V35.912H63.7146V25.416H81.2506V30.408C84.3226 26.4827 88.1626 24.52 92.7706 24.52C96.3119 24.52 98.9573 25.6294 100.707 27.848C102.499 30.0667 103.395 33.1174 103.395 37V50.504H106.211Z" fill="#1C4B43"/>
<path d="M44.6616 21.896V11.208H57.7176V21.896H44.6616ZM41.5896 61V50.504H44.4056V35.912H41.5896V25.416H59.1256V50.504H61.9416V61H41.5896Z" fill="#1C4B43"/>
<path d="M1.28003 61V50.504H4.48003V21.704H1.28003V11.208H39.552V27.784H28.224V21.704H22.4V32.328H32.064V39.624H22.4V50.504H30.784V61H1.28003Z" fill="#1C4B43"/>
<path d="M245.944 156.664C246.249 156.617 246.489 156.647 246.665 156.752C246.853 156.846 246.935 157.027 246.911 157.297C246.899 157.449 246.835 157.596 246.718 157.736C246.612 157.865 246.478 157.982 246.313 158.088C246.161 158.193 245.997 158.275 245.821 158.334C245.646 158.393 245.493 158.422 245.364 158.422C245.13 158.422 244.925 158.369 244.749 158.264C244.562 158.158 244.479 157.988 244.503 157.754C244.515 157.602 244.567 157.467 244.661 157.35C244.743 157.221 244.854 157.109 244.995 157.016C245.124 156.922 245.271 156.846 245.435 156.787C245.61 156.729 245.78 156.688 245.944 156.664Z" fill="#3D8D7F"/>
<path d="M242.095 156.664C242.399 156.617 242.64 156.647 242.815 156.752C243.003 156.846 243.085 157.027 243.062 157.297C243.05 157.449 242.985 157.596 242.868 157.736C242.763 157.865 242.628 157.982 242.464 158.088C242.312 158.193 242.147 158.275 241.972 158.334C241.796 158.393 241.644 158.422 241.515 158.422C241.28 158.422 241.075 158.369 240.899 158.264C240.712 158.158 240.63 157.988 240.653 157.754C240.665 157.602 240.718 157.467 240.812 157.35C240.894 157.221 241.005 157.109 241.146 157.016C241.274 156.922 241.421 156.846 241.585 156.787C241.761 156.729 241.931 156.688 242.095 156.664Z" fill="#3D8D7F"/>
<path d="M237.349 157.402C237.419 157.449 237.507 157.473 237.612 157.473C237.729 157.473 237.841 157.449 237.946 157.402C238.063 157.355 238.169 157.291 238.263 157.209C238.368 157.127 238.444 157.021 238.491 156.893C238.538 156.764 238.538 156.582 238.491 156.348C238.444 156.102 238.368 155.844 238.263 155.574C238.169 155.293 238.063 155.012 237.946 154.73C237.829 154.449 237.729 154.191 237.647 153.957C237.577 153.781 237.519 153.617 237.472 153.465C237.425 153.336 237.378 153.213 237.331 153.096C237.296 152.967 237.267 152.879 237.243 152.832C237.185 152.926 237.079 153.078 236.927 153.289C236.786 153.5 236.628 153.723 236.452 153.957C236.288 154.18 236.13 154.391 235.978 154.59C235.825 154.777 235.72 154.906 235.661 154.977C235.567 155.082 235.474 155.146 235.38 155.17C235.298 155.182 235.228 155.164 235.169 155.117C235.11 155.059 235.075 154.982 235.063 154.889C235.063 154.783 235.11 154.66 235.204 154.52C235.274 154.426 235.38 154.279 235.521 154.08C235.661 153.869 235.802 153.658 235.942 153.447C236.083 153.225 236.212 153.031 236.329 152.867C236.446 152.691 236.511 152.586 236.522 152.551C236.546 152.457 236.511 152.334 236.417 152.182C236.335 152.029 236.323 151.854 236.382 151.654C236.429 151.49 236.534 151.303 236.698 151.092C236.862 150.869 237.056 150.67 237.278 150.494C237.501 150.318 237.729 150.189 237.964 150.107C238.198 150.014 238.409 150.014 238.597 150.107C238.749 150.201 238.872 150.307 238.966 150.424C239.06 150.529 239.095 150.641 239.071 150.758C239.048 150.816 239.013 150.893 238.966 150.986C238.919 151.08 238.849 151.197 238.755 151.338C238.661 151.467 238.526 151.637 238.351 151.848C238.386 152.117 238.433 152.363 238.491 152.586C238.562 152.809 238.626 153.002 238.685 153.166C238.755 153.365 238.831 153.547 238.913 153.711C239.019 153.922 239.13 154.139 239.247 154.361C239.364 154.584 239.47 154.807 239.563 155.029C239.657 155.24 239.733 155.439 239.792 155.627C239.851 155.814 239.868 155.973 239.845 156.102C239.81 156.301 239.704 156.541 239.528 156.822C239.364 157.104 239.153 157.379 238.896 157.648C238.649 157.906 238.362 158.129 238.034 158.316C237.718 158.504 237.384 158.598 237.032 158.598C236.786 158.598 236.546 158.521 236.312 158.369C236.089 158.217 235.896 158.041 235.731 157.842C235.579 157.631 235.462 157.426 235.38 157.227C235.31 157.027 235.304 156.875 235.362 156.77C235.433 156.629 235.497 156.518 235.556 156.436C235.614 156.354 235.702 156.26 235.819 156.154C235.866 156.119 235.925 156.078 235.995 156.031C236.054 155.996 236.136 155.961 236.241 155.926C236.347 155.891 236.47 155.85 236.61 155.803C236.728 156.166 236.833 156.453 236.927 156.664C237.021 156.863 237.097 157.021 237.155 157.139C237.226 157.268 237.29 157.355 237.349 157.402Z" fill="#3D8D7F"/>
<path d="M235.925 153.553C235.972 153.482 236.03 153.441 236.101 153.43C236.183 153.406 236.247 153.412 236.294 153.447C236.341 153.482 236.364 153.541 236.364 153.623C236.376 153.705 236.347 153.816 236.276 153.957C236.042 154.402 235.731 154.883 235.345 155.398C234.97 155.914 234.571 156.4 234.149 156.857C233.728 157.303 233.317 157.672 232.919 157.965C232.521 158.258 232.187 158.404 231.917 158.404C231.53 158.404 231.208 158.328 230.95 158.176C230.692 158.023 230.487 157.836 230.335 157.613C230.194 157.391 230.095 157.15 230.036 156.893C229.978 156.623 229.96 156.377 229.983 156.154C229.995 155.967 230.036 155.633 230.106 155.152C230.177 154.66 230.271 154.098 230.388 153.465C230.505 152.82 230.634 152.135 230.774 151.408C230.927 150.67 231.085 149.961 231.249 149.281C231.05 149.305 230.851 149.328 230.651 149.352C230.452 149.375 230.271 149.387 230.106 149.387C229.731 149.387 229.38 149.346 229.052 149.264C228.712 149.17 228.46 149.082 228.296 149C228.202 148.953 228.161 148.889 228.173 148.807C228.185 148.713 228.22 148.625 228.278 148.543C228.337 148.449 228.413 148.373 228.507 148.314C228.589 148.244 228.665 148.209 228.735 148.209C228.958 148.232 229.198 148.256 229.456 148.279C229.714 148.291 229.995 148.291 230.3 148.279C230.522 148.268 230.733 148.25 230.933 148.227C231.144 148.203 231.349 148.174 231.548 148.139C231.7 147.576 231.847 147.09 231.987 146.68C232.14 146.258 232.274 145.965 232.392 145.801C232.427 145.742 232.503 145.695 232.62 145.66C232.749 145.613 232.884 145.584 233.024 145.572C233.165 145.549 233.3 145.549 233.429 145.572C233.558 145.584 233.651 145.625 233.71 145.695C233.769 145.789 233.792 146.029 233.78 146.416C233.769 146.803 233.704 147.295 233.587 147.893C234.079 147.893 234.513 147.922 234.888 147.98C235.274 148.027 235.603 148.086 235.872 148.156C236.142 148.215 236.358 148.279 236.522 148.35C236.687 148.408 236.81 148.449 236.892 148.473C236.974 148.496 237.015 148.555 237.015 148.648C237.026 148.742 237.009 148.842 236.962 148.947C236.927 149.041 236.862 149.123 236.769 149.193C236.675 149.264 236.569 149.287 236.452 149.264C236.335 149.252 236.2 149.229 236.048 149.193C235.907 149.158 235.731 149.129 235.521 149.105C235.321 149.082 235.081 149.059 234.8 149.035C234.519 149.012 234.19 149 233.815 149C233.745 149 233.663 149.006 233.569 149.018C233.487 149.018 233.399 149.018 233.306 149.018C233.259 149.205 233.212 149.393 233.165 149.58C233.13 149.756 233.077 149.943 233.007 150.143C232.854 150.611 232.679 151.121 232.479 151.672C232.304 152.152 232.093 152.703 231.847 153.324C231.601 153.945 231.325 154.607 231.021 155.311C230.95 155.814 230.956 156.201 231.038 156.471C231.132 156.729 231.243 156.916 231.372 157.033C231.524 157.162 231.712 157.232 231.935 157.244C232.11 157.268 232.321 157.209 232.567 157.068C232.825 156.916 233.089 156.717 233.358 156.471C233.628 156.225 233.897 155.955 234.167 155.662C234.448 155.369 234.706 155.082 234.94 154.801C235.175 154.52 235.38 154.268 235.556 154.045C235.731 153.811 235.854 153.646 235.925 153.553Z" fill="#3D8D7F"/>
<path d="M225.589 157.402C225.659 157.449 225.747 157.473 225.853 157.473C225.97 157.473 226.081 157.449 226.187 157.402C226.304 157.355 226.409 157.291 226.503 157.209C226.608 157.127 226.685 157.021 226.731 156.893C226.778 156.764 226.778 156.582 226.731 156.348C226.685 156.102 226.608 155.844 226.503 155.574C226.409 155.293 226.304 155.012 226.187 154.73C226.069 154.449 225.97 154.191 225.888 153.957C225.817 153.781 225.759 153.617 225.712 153.465C225.665 153.336 225.618 153.213 225.571 153.096C225.536 152.967 225.507 152.879 225.483 152.832C225.425 152.926 225.319 153.078 225.167 153.289C225.026 153.5 224.868 153.723 224.692 153.957C224.528 154.18 224.37 154.391 224.218 154.59C224.065 154.777 223.96 154.906 223.901 154.977C223.808 155.082 223.714 155.146 223.62 155.17C223.538 155.182 223.468 155.164 223.409 155.117C223.351 155.059 223.315 154.982 223.304 154.889C223.304 154.783 223.351 154.66 223.444 154.52C223.515 154.426 223.62 154.279 223.761 154.08C223.901 153.869 224.042 153.658 224.183 153.447C224.323 153.225 224.452 153.031 224.569 152.867C224.687 152.691 224.751 152.586 224.763 152.551C224.786 152.457 224.751 152.334 224.657 152.182C224.575 152.029 224.563 151.854 224.622 151.654C224.669 151.49 224.774 151.303 224.938 151.092C225.103 150.869 225.296 150.67 225.519 150.494C225.741 150.318 225.97 150.189 226.204 150.107C226.438 150.014 226.649 150.014 226.837 150.107C226.989 150.201 227.112 150.307 227.206 150.424C227.3 150.529 227.335 150.641 227.312 150.758C227.288 150.816 227.253 150.893 227.206 150.986C227.159 151.08 227.089 151.197 226.995 151.338C226.901 151.467 226.767 151.637 226.591 151.848C226.626 152.117 226.673 152.363 226.731 152.586C226.802 152.809 226.866 153.002 226.925 153.166C226.995 153.365 227.071 153.547 227.153 153.711C227.259 153.922 227.37 154.139 227.487 154.361C227.604 154.584 227.71 154.807 227.804 155.029C227.897 155.24 227.974 155.439 228.032 155.627C228.091 155.814 228.108 155.973 228.085 156.102C228.05 156.301 227.944 156.541 227.769 156.822C227.604 157.104 227.394 157.379 227.136 157.648C226.89 157.906 226.603 158.129 226.274 158.316C225.958 158.504 225.624 158.598 225.272 158.598C225.026 158.598 224.786 158.521 224.552 158.369C224.329 158.217 224.136 158.041 223.972 157.842C223.819 157.631 223.702 157.426 223.62 157.227C223.55 157.027 223.544 156.875 223.603 156.77C223.673 156.629 223.737 156.518 223.796 156.436C223.854 156.354 223.942 156.26 224.06 156.154C224.106 156.119 224.165 156.078 224.235 156.031C224.294 155.996 224.376 155.961 224.481 155.926C224.587 155.891 224.71 155.85 224.851 155.803C224.968 156.166 225.073 156.453 225.167 156.664C225.261 156.863 225.337 157.021 225.396 157.139C225.466 157.268 225.53 157.355 225.589 157.402Z" fill="#3D8D7F"/>
<path d="M222.038 147.646C222.003 147.775 221.933 147.904 221.827 148.033C221.733 148.15 221.622 148.25 221.493 148.332C221.376 148.402 221.253 148.449 221.124 148.473C220.995 148.496 220.89 148.473 220.808 148.402C220.562 148.215 220.433 148.016 220.421 147.805C220.409 147.582 220.462 147.377 220.579 147.189C220.696 146.99 220.843 146.826 221.019 146.697C221.194 146.557 221.347 146.475 221.476 146.451C221.604 146.428 221.71 146.457 221.792 146.539C221.886 146.609 221.956 146.709 222.003 146.838C222.05 146.955 222.073 147.09 222.073 147.242C222.085 147.395 222.073 147.529 222.038 147.646ZM219.612 151.391C219.671 151.32 219.782 151.262 219.946 151.215C220.11 151.168 220.28 151.133 220.456 151.109C220.632 151.074 220.79 151.057 220.931 151.057C221.083 151.045 221.171 151.045 221.194 151.057C221.206 151.068 221.177 151.191 221.106 151.426C221.036 151.66 220.948 151.936 220.843 152.252C220.737 152.568 220.626 152.896 220.509 153.236C220.392 153.564 220.304 153.834 220.245 154.045C220.187 154.256 220.116 154.496 220.034 154.766C219.952 155.023 219.876 155.281 219.806 155.539C219.747 155.785 219.706 156.02 219.683 156.242C219.659 156.465 219.677 156.635 219.735 156.752C219.794 156.893 219.858 156.992 219.929 157.051C219.999 157.098 220.075 157.121 220.157 157.121C220.392 157.121 220.685 156.992 221.036 156.734C221.399 156.477 221.763 156.172 222.126 155.82C222.501 155.457 222.847 155.094 223.163 154.73C223.479 154.355 223.714 154.057 223.866 153.834C223.96 153.717 224.054 153.641 224.147 153.605C224.253 153.57 224.335 153.576 224.394 153.623C224.464 153.67 224.499 153.746 224.499 153.852C224.511 153.957 224.476 154.08 224.394 154.221C224.206 154.549 223.931 154.941 223.567 155.398C223.204 155.844 222.817 156.277 222.407 156.699C221.997 157.109 221.593 157.461 221.194 157.754C220.808 158.047 220.491 158.199 220.245 158.211C220.046 158.223 219.847 158.188 219.647 158.105C219.46 158.035 219.284 157.936 219.12 157.807C218.968 157.666 218.839 157.508 218.733 157.332C218.628 157.145 218.569 156.951 218.558 156.752C218.522 156.459 218.522 156.061 218.558 155.557C218.593 155.041 218.657 154.52 218.751 153.992C218.845 153.453 218.962 152.943 219.103 152.463C219.255 151.982 219.425 151.625 219.612 151.391Z" fill="#3D8D7F"/>
<path d="M218.663 155.68C218.171 156.301 217.731 156.793 217.345 157.156C216.97 157.508 216.636 157.771 216.343 157.947C216.05 158.123 215.792 158.234 215.569 158.281C215.347 158.328 215.147 158.352 214.972 158.352C214.749 158.352 214.562 158.299 214.409 158.193C214.257 158.088 214.128 157.959 214.022 157.807C213.917 157.654 213.835 157.496 213.776 157.332C213.718 157.168 213.671 157.027 213.636 156.91C213.589 156.781 213.536 156.635 213.478 156.471C213.431 156.307 213.378 156.125 213.319 155.926C213.085 156.172 212.839 156.436 212.581 156.717C212.358 156.951 212.106 157.221 211.825 157.525C211.544 157.818 211.257 158.117 210.964 158.422C210.858 158.445 210.765 158.445 210.683 158.422C210.601 158.398 210.53 158.375 210.472 158.352C210.401 158.316 210.343 158.275 210.296 158.229C210.261 158.193 210.226 158.152 210.19 158.105C210.167 158.07 210.144 158.029 210.12 157.982C210.085 157.924 210.073 157.865 210.085 157.807C210.425 157.42 210.759 157.039 211.087 156.664C211.427 156.277 211.731 155.932 212.001 155.627C212.306 155.275 212.599 154.936 212.88 154.607C212.716 154.162 212.569 153.746 212.44 153.359C212.312 152.973 212.218 152.697 212.159 152.533C212.042 152.193 211.937 151.912 211.843 151.689C211.761 151.467 211.614 151.309 211.403 151.215C211.544 151.086 211.679 150.986 211.808 150.916C211.948 150.834 212.071 150.775 212.177 150.74C212.306 150.693 212.417 150.67 212.511 150.67C212.78 150.67 213.015 150.91 213.214 151.391C213.425 151.859 213.636 152.51 213.847 153.342C213.847 153.377 213.858 153.418 213.882 153.465C214.128 153.172 214.362 152.896 214.585 152.639C214.819 152.381 215.019 152.152 215.183 151.953C215.358 151.754 215.499 151.596 215.604 151.479C215.71 151.361 215.774 151.291 215.798 151.268C216.032 150.998 216.243 150.846 216.431 150.811C216.618 150.775 216.788 150.816 216.94 150.934C217.011 150.98 217.087 151.027 217.169 151.074C217.321 151.168 217.503 151.256 217.714 151.338C217.515 151.525 217.292 151.742 217.046 151.988C216.812 152.223 216.589 152.451 216.378 152.674C216.132 152.932 215.886 153.189 215.64 153.447C215.464 153.623 215.253 153.84 215.007 154.098C214.772 154.355 214.521 154.637 214.251 154.941C214.333 155.234 214.421 155.51 214.515 155.768C214.608 156.025 214.702 156.254 214.796 156.453C214.901 156.652 215.007 156.811 215.112 156.928C215.218 157.045 215.329 157.104 215.446 157.104C215.634 157.104 215.845 157.057 216.079 156.963C216.313 156.857 216.56 156.717 216.817 156.541C217.075 156.365 217.333 156.16 217.591 155.926C217.86 155.691 218.124 155.445 218.382 155.188C218.476 155.094 218.563 155.041 218.646 155.029C218.739 155.018 218.804 155.035 218.839 155.082C218.874 155.129 218.88 155.205 218.856 155.311C218.845 155.416 218.78 155.539 218.663 155.68Z" fill="#3D8D7F"/>
<path d="M212.247 154.344C211.895 154.859 211.497 155.363 211.052 155.855C210.606 156.336 210.132 156.77 209.628 157.156C209.136 157.531 208.626 157.836 208.099 158.07C207.583 158.305 207.079 158.422 206.587 158.422C206.329 158.422 206.048 158.357 205.743 158.229C205.45 158.111 205.181 157.924 204.935 157.666C204.688 157.408 204.489 157.074 204.337 156.664C204.196 156.254 204.155 155.756 204.214 155.17C204.261 154.689 204.407 154.186 204.653 153.658C204.911 153.119 205.222 152.627 205.585 152.182C205.96 151.736 206.376 151.367 206.833 151.074C207.302 150.781 207.77 150.635 208.239 150.635C208.685 150.635 209.007 150.746 209.206 150.969C209.405 151.191 209.493 151.467 209.47 151.795C209.435 152.158 209.329 152.492 209.153 152.797C208.989 153.102 208.79 153.377 208.556 153.623C208.321 153.869 208.069 154.092 207.8 154.291C207.542 154.49 207.296 154.672 207.061 154.836C206.804 155.012 206.558 155.182 206.323 155.346C206.089 155.498 205.884 155.639 205.708 155.768C205.72 156.061 205.772 156.307 205.866 156.506C205.96 156.705 206.077 156.869 206.218 156.998C206.358 157.115 206.517 157.203 206.692 157.262C206.88 157.309 207.067 157.332 207.255 157.332C207.653 157.332 208.069 157.209 208.503 156.963C208.936 156.705 209.358 156.4 209.769 156.049C210.19 155.686 210.577 155.311 210.929 154.924C211.292 154.537 211.591 154.203 211.825 153.922C211.907 153.828 211.989 153.775 212.071 153.764C212.165 153.74 212.235 153.752 212.282 153.799C212.341 153.834 212.37 153.904 212.37 154.01C212.37 154.104 212.329 154.215 212.247 154.344ZM207.747 151.637C207.606 151.637 207.436 151.707 207.237 151.848C207.05 151.988 206.862 152.193 206.675 152.463C206.487 152.721 206.311 153.043 206.147 153.43C205.983 153.805 205.86 154.238 205.778 154.73C205.919 154.625 206.071 154.52 206.235 154.414C206.399 154.297 206.563 154.174 206.728 154.045C207.231 153.658 207.583 153.318 207.782 153.025C207.981 152.732 208.093 152.48 208.116 152.27C208.14 152.047 208.116 151.889 208.046 151.795C207.976 151.689 207.876 151.637 207.747 151.637Z" fill="#3D8D7F"/>
<path d="M200.505 154.344C200.153 154.859 199.755 155.363 199.31 155.855C198.864 156.336 198.39 156.77 197.886 157.156C197.394 157.531 196.884 157.836 196.356 158.07C195.841 158.305 195.337 158.422 194.845 158.422C194.587 158.422 194.306 158.357 194.001 158.229C193.708 158.111 193.438 157.924 193.192 157.666C192.946 157.408 192.747 157.074 192.595 156.664C192.454 156.254 192.413 155.756 192.472 155.17C192.519 154.689 192.665 154.186 192.911 153.658C193.169 153.119 193.479 152.627 193.843 152.182C194.218 151.736 194.634 151.367 195.091 151.074C195.56 150.781 196.028 150.635 196.497 150.635C196.942 150.635 197.265 150.746 197.464 150.969C197.663 151.191 197.751 151.467 197.728 151.795C197.692 152.158 197.587 152.492 197.411 152.797C197.247 153.102 197.048 153.377 196.813 153.623C196.579 153.869 196.327 154.092 196.058 154.291C195.8 154.49 195.554 154.672 195.319 154.836C195.061 155.012 194.815 155.182 194.581 155.346C194.347 155.498 194.142 155.639 193.966 155.768C193.978 156.061 194.03 156.307 194.124 156.506C194.218 156.705 194.335 156.869 194.476 156.998C194.616 157.115 194.774 157.203 194.95 157.262C195.138 157.309 195.325 157.332 195.513 157.332C195.911 157.332 196.327 157.209 196.761 156.963C197.194 156.705 197.616 156.4 198.026 156.049C198.448 155.686 198.835 155.311 199.186 154.924C199.55 154.537 199.849 154.203 200.083 153.922C200.165 153.828 200.247 153.775 200.329 153.764C200.423 153.74 200.493 153.752 200.54 153.799C200.599 153.834 200.628 153.904 200.628 154.01C200.628 154.104 200.587 154.215 200.505 154.344ZM196.005 151.637C195.864 151.637 195.694 151.707 195.495 151.848C195.308 151.988 195.12 152.193 194.933 152.463C194.745 152.721 194.569 153.043 194.405 153.43C194.241 153.805 194.118 154.238 194.036 154.73C194.177 154.625 194.329 154.52 194.493 154.414C194.657 154.297 194.821 154.174 194.985 154.045C195.489 153.658 195.841 153.318 196.04 153.025C196.239 152.732 196.351 152.48 196.374 152.27C196.397 152.047 196.374 151.889 196.304 151.795C196.233 151.689 196.134 151.637 196.005 151.637Z" fill="#3D8D7F"/>
<path d="M183.155 165.506C183.073 165.471 182.991 165.418 182.909 165.348C182.839 165.289 182.769 165.213 182.698 165.119C182.628 165.037 182.569 164.932 182.522 164.803C182.851 163.549 183.132 162.459 183.366 161.533C183.589 160.607 183.782 159.834 183.946 159.213C184.122 158.486 184.274 157.877 184.403 157.385C184.521 156.916 184.638 156.447 184.755 155.979C184.849 155.568 184.948 155.129 185.054 154.66C185.171 154.191 185.276 153.752 185.37 153.342C185.487 152.885 185.558 152.521 185.581 152.252C185.604 151.971 185.517 151.73 185.317 151.531C185.458 151.414 185.599 151.326 185.739 151.268C185.892 151.197 186.026 151.15 186.144 151.127C186.272 151.092 186.401 151.08 186.53 151.092C186.847 151.115 187.04 151.215 187.11 151.391C187.192 151.566 187.204 151.848 187.146 152.234C187.134 152.293 187.122 152.346 187.11 152.393C187.11 152.428 187.11 152.469 187.11 152.516C187.274 152.328 187.456 152.146 187.655 151.971C187.854 151.795 188.054 151.637 188.253 151.496C188.464 151.355 188.675 151.244 188.886 151.162C189.108 151.068 189.319 151.021 189.519 151.021C189.788 151.021 190.005 151.092 190.169 151.232C190.345 151.361 190.479 151.537 190.573 151.76C190.667 151.982 190.726 152.234 190.749 152.516C190.772 152.785 190.778 153.055 190.767 153.324C190.755 153.617 190.702 153.928 190.608 154.256C190.526 154.584 190.409 154.918 190.257 155.258C190.104 155.598 189.929 155.932 189.729 156.26C189.53 156.588 189.319 156.893 189.097 157.174C189.144 157.186 189.173 157.197 189.185 157.209C189.196 157.209 189.202 157.215 189.202 157.227C189.202 157.227 189.208 157.232 189.22 157.244C189.243 157.244 189.284 157.244 189.343 157.244C189.612 157.244 189.888 157.174 190.169 157.033C190.45 156.893 190.726 156.717 190.995 156.506C191.265 156.283 191.522 156.043 191.769 155.785C192.026 155.527 192.255 155.281 192.454 155.047C192.665 154.801 192.841 154.584 192.981 154.396C193.122 154.197 193.228 154.057 193.298 153.975C193.392 153.857 193.479 153.781 193.562 153.746C193.644 153.699 193.708 153.693 193.755 153.729C193.802 153.764 193.825 153.834 193.825 153.939C193.825 154.033 193.79 154.156 193.72 154.309C193.673 154.414 193.573 154.584 193.421 154.818C193.269 155.053 193.081 155.316 192.858 155.609C192.636 155.902 192.378 156.207 192.085 156.523C191.804 156.84 191.505 157.127 191.188 157.385C190.872 157.643 190.544 157.854 190.204 158.018C189.876 158.193 189.554 158.281 189.237 158.281C189.085 158.281 188.962 158.275 188.868 158.264C188.774 158.252 188.692 158.229 188.622 158.193C188.563 158.17 188.505 158.141 188.446 158.105C188.388 158.082 188.317 158.053 188.235 158.018C188.024 158.182 187.808 158.305 187.585 158.387C187.362 158.48 187.146 158.527 186.935 158.527C186.735 158.527 186.56 158.492 186.407 158.422C186.267 158.363 186.149 158.275 186.056 158.158C185.962 158.053 185.886 157.936 185.827 157.807C185.769 157.666 185.722 157.531 185.687 157.402C185.675 157.449 185.663 157.49 185.651 157.525C185.651 157.561 185.646 157.607 185.634 157.666C185.493 158.229 185.347 158.879 185.194 159.617C185.065 160.25 184.907 161.018 184.72 161.92C184.544 162.834 184.356 163.871 184.157 165.031C184.087 165.348 183.964 165.529 183.788 165.576C183.601 165.623 183.39 165.6 183.155 165.506ZM186.372 154.607C186.313 154.807 186.249 155.041 186.179 155.311C186.12 155.568 186.05 155.879 185.968 156.242C186.062 156.172 186.167 156.119 186.284 156.084C186.401 156.049 186.519 156.031 186.636 156.031C186.765 156.031 186.929 156.102 187.128 156.242C187.327 156.371 187.567 156.512 187.849 156.664C188.024 156.453 188.206 156.219 188.394 155.961C188.593 155.691 188.769 155.416 188.921 155.135C189.085 154.854 189.22 154.566 189.325 154.273C189.442 153.98 189.507 153.699 189.519 153.43C189.542 153.078 189.501 152.803 189.396 152.604C189.29 152.404 189.114 152.305 188.868 152.305C188.505 152.305 188.106 152.521 187.673 152.955C187.251 153.377 186.817 153.928 186.372 154.607Z" fill="#3D8D7F"/>
<path d="M182.54 155.205C182.423 155.65 182.265 156.066 182.065 156.453C181.866 156.84 181.626 157.174 181.345 157.455C181.075 157.736 180.765 157.953 180.413 158.105C180.073 158.27 179.698 158.352 179.288 158.352C178.808 158.352 178.427 158.246 178.146 158.035C177.876 157.836 177.671 157.584 177.53 157.279C177.401 156.975 177.325 156.641 177.302 156.277C177.267 155.914 177.249 155.574 177.249 155.258C177.249 155.035 177.278 154.789 177.337 154.52C177.384 154.25 177.454 153.975 177.548 153.693C177.642 153.412 177.759 153.131 177.899 152.85C178.052 152.568 178.228 152.311 178.427 152.076C178.497 151.877 178.603 151.701 178.743 151.549C178.896 151.396 179.065 151.273 179.253 151.18C179.452 151.074 179.663 150.998 179.886 150.951C180.108 150.893 180.325 150.863 180.536 150.863C180.571 150.863 180.601 150.869 180.624 150.881C180.659 150.893 180.694 150.904 180.729 150.916C180.882 150.928 181.069 150.986 181.292 151.092C181.526 151.197 181.749 151.355 181.96 151.566C182.183 151.777 182.37 152.047 182.522 152.375C182.675 152.691 182.751 153.078 182.751 153.535C182.751 153.629 182.745 153.746 182.733 153.887C182.722 154.016 182.71 154.127 182.698 154.221C182.968 154.115 183.249 153.986 183.542 153.834C183.835 153.682 184.116 153.523 184.386 153.359C184.667 153.184 184.925 153.008 185.159 152.832C185.394 152.656 185.581 152.498 185.722 152.357C185.839 152.252 185.938 152.193 186.021 152.182C186.103 152.17 186.161 152.193 186.196 152.252C186.231 152.311 186.237 152.393 186.214 152.498C186.19 152.604 186.126 152.721 186.021 152.85C185.962 152.92 185.81 153.061 185.563 153.271C185.329 153.482 185.048 153.711 184.72 153.957C184.392 154.203 184.034 154.443 183.647 154.678C183.261 154.912 182.892 155.088 182.54 155.205ZM179.569 152.533C179.534 152.639 179.517 152.75 179.517 152.867C179.517 153.055 179.528 153.254 179.552 153.465C179.575 153.664 179.634 153.846 179.728 154.01C179.821 154.174 179.968 154.314 180.167 154.432C180.378 154.537 180.665 154.59 181.028 154.59C181.087 154.59 181.146 154.59 181.204 154.59C181.263 154.578 181.321 154.566 181.38 154.555C181.415 154.402 181.444 154.268 181.468 154.15C181.503 154.021 181.521 153.91 181.521 153.816C181.544 153.594 181.544 153.365 181.521 153.131C181.497 152.896 181.45 152.686 181.38 152.498C181.321 152.299 181.239 152.141 181.134 152.023C181.04 151.895 180.923 151.83 180.782 151.83C180.56 151.83 180.343 151.895 180.132 152.023C179.933 152.141 179.745 152.311 179.569 152.533ZM178.444 155.627C178.444 155.838 178.456 156.049 178.479 156.26C178.503 156.459 178.55 156.641 178.62 156.805C178.69 156.957 178.784 157.086 178.901 157.191C179.019 157.285 179.171 157.332 179.358 157.332C179.569 157.332 179.763 157.285 179.938 157.191C180.114 157.086 180.272 156.957 180.413 156.805C180.554 156.641 180.677 156.459 180.782 156.26C180.899 156.049 180.999 155.832 181.081 155.609C180.999 155.621 180.917 155.633 180.835 155.645C180.765 155.645 180.683 155.645 180.589 155.645C180.144 155.645 179.757 155.516 179.429 155.258C179.112 154.988 178.866 154.648 178.69 154.238C178.62 154.484 178.562 154.725 178.515 154.959C178.468 155.193 178.444 155.416 178.444 155.627Z" fill="#3D8D7F"/>
<path d="M178.022 154.133C178.104 154.039 178.187 153.992 178.269 153.992C178.362 153.98 178.433 154.004 178.479 154.062C178.538 154.109 178.562 154.186 178.55 154.291C178.55 154.396 178.503 154.514 178.409 154.643C178.187 154.947 177.929 155.264 177.636 155.592C177.343 155.908 177.026 156.219 176.687 156.523C176.358 156.828 176.024 157.115 175.685 157.385C175.345 157.654 175.017 157.877 174.7 158.053C174.349 158.252 174.05 158.352 173.804 158.352C173.569 158.352 173.335 158.199 173.101 157.895C172.89 157.625 172.784 157.338 172.784 157.033C172.796 156.717 172.866 156.324 172.995 155.855C173.077 155.562 173.188 155.217 173.329 154.818C173.481 154.408 173.599 154.016 173.681 153.641C173.774 153.266 173.804 152.949 173.769 152.691C173.733 152.422 173.581 152.287 173.312 152.287C173.124 152.287 172.919 152.352 172.696 152.48C172.485 152.609 172.269 152.779 172.046 152.99C171.835 153.189 171.63 153.418 171.431 153.676C171.231 153.934 171.056 154.186 170.903 154.432C170.81 154.889 170.716 155.34 170.622 155.785C170.54 156.16 170.452 156.57 170.358 157.016C170.276 157.449 170.194 157.836 170.112 158.176C170.042 158.234 169.966 158.275 169.884 158.299C169.802 158.322 169.726 158.334 169.655 158.334C169.573 158.334 169.491 158.328 169.409 158.316C169.315 158.293 169.228 158.258 169.146 158.211C169.075 158.164 169.005 158.1 168.935 158.018C168.864 157.947 168.812 157.848 168.776 157.719C169.304 155.551 169.72 153.811 170.024 152.498C170.329 151.186 170.563 150.184 170.728 149.492C170.915 148.672 171.044 148.104 171.114 147.787C171.149 147.564 171.179 147.348 171.202 147.137C171.226 146.949 171.237 146.756 171.237 146.557C171.237 146.357 171.22 146.176 171.185 146.012C171.278 145.953 171.378 145.906 171.483 145.871C171.601 145.836 171.712 145.807 171.817 145.783C171.946 145.748 172.075 145.719 172.204 145.695C172.333 145.672 172.45 145.66 172.556 145.66C172.649 145.66 172.737 145.672 172.819 145.695C172.901 145.707 172.954 145.742 172.978 145.801C173.048 145.859 173.077 145.977 173.065 146.152C173.065 146.328 173.054 146.51 173.03 146.697C172.983 146.92 172.931 147.16 172.872 147.418C172.626 148.367 172.351 149.293 172.046 150.195C171.741 151.086 171.46 152.041 171.202 153.061C171.354 152.826 171.536 152.586 171.747 152.34C171.958 152.094 172.187 151.871 172.433 151.672C172.69 151.461 172.96 151.291 173.241 151.162C173.522 151.021 173.821 150.951 174.138 150.951C174.302 150.951 174.454 150.98 174.595 151.039C174.747 151.086 174.876 151.174 174.981 151.303C175.099 151.42 175.187 151.584 175.245 151.795C175.304 151.994 175.327 152.246 175.315 152.551C175.315 152.738 175.292 152.932 175.245 153.131C175.21 153.33 175.157 153.553 175.087 153.799C175.017 154.033 174.923 154.297 174.806 154.59C174.7 154.883 174.571 155.223 174.419 155.609C174.313 155.879 174.231 156.107 174.173 156.295C174.114 156.482 174.126 156.646 174.208 156.787C174.313 156.975 174.519 157.021 174.823 156.928C175.14 156.822 175.608 156.518 176.229 156.014C176.37 155.896 176.528 155.75 176.704 155.574C176.88 155.398 177.05 155.223 177.214 155.047C177.378 154.859 177.53 154.684 177.671 154.52C177.812 154.355 177.929 154.227 178.022 154.133Z" fill="#3D8D7F"/>
<path d="M165.173 154.344C164.821 154.859 164.423 155.363 163.978 155.855C163.532 156.336 163.058 156.77 162.554 157.156C162.061 157.531 161.552 157.836 161.024 158.07C160.509 158.305 160.005 158.422 159.513 158.422C159.255 158.422 158.974 158.357 158.669 158.229C158.376 158.111 158.106 157.924 157.86 157.666C157.614 157.408 157.415 157.074 157.263 156.664C157.122 156.254 157.081 155.756 157.14 155.17C157.186 154.689 157.333 154.186 157.579 153.658C157.837 153.119 158.147 152.627 158.511 152.182C158.886 151.736 159.302 151.367 159.759 151.074C160.228 150.781 160.696 150.635 161.165 150.635C161.61 150.635 161.933 150.746 162.132 150.969C162.331 151.191 162.419 151.467 162.395 151.795C162.36 152.158 162.255 152.492 162.079 152.797C161.915 153.102 161.716 153.377 161.481 153.623C161.247 153.869 160.995 154.092 160.726 154.291C160.468 154.49 160.222 154.672 159.987 154.836C159.729 155.012 159.483 155.182 159.249 155.346C159.015 155.498 158.81 155.639 158.634 155.768C158.645 156.061 158.698 156.307 158.792 156.506C158.886 156.705 159.003 156.869 159.144 156.998C159.284 157.115 159.442 157.203 159.618 157.262C159.806 157.309 159.993 157.332 160.181 157.332C160.579 157.332 160.995 157.209 161.429 156.963C161.862 156.705 162.284 156.4 162.694 156.049C163.116 155.686 163.503 155.311 163.854 154.924C164.218 154.537 164.517 154.203 164.751 153.922C164.833 153.828 164.915 153.775 164.997 153.764C165.091 153.74 165.161 153.752 165.208 153.799C165.267 153.834 165.296 153.904 165.296 154.01C165.296 154.104 165.255 154.215 165.173 154.344ZM160.673 151.637C160.532 151.637 160.362 151.707 160.163 151.848C159.976 151.988 159.788 152.193 159.601 152.463C159.413 152.721 159.237 153.043 159.073 153.43C158.909 153.805 158.786 154.238 158.704 154.73C158.845 154.625 158.997 154.52 159.161 154.414C159.325 154.297 159.489 154.174 159.653 154.045C160.157 153.658 160.509 153.318 160.708 153.025C160.907 152.732 161.019 152.48 161.042 152.27C161.065 152.047 161.042 151.889 160.972 151.795C160.901 151.689 160.802 151.637 160.673 151.637Z" fill="#3D8D7F"/>
<path d="M149.229 157.912C149.147 158.041 149.06 158.123 148.966 158.158C148.86 158.205 148.772 158.211 148.702 158.176C148.62 158.152 148.567 158.094 148.544 158C148.521 157.906 148.544 157.789 148.614 157.648C148.649 157.578 148.731 157.42 148.86 157.174C148.978 156.928 149.124 156.635 149.3 156.295C149.464 155.943 149.646 155.568 149.845 155.17C150.044 154.76 150.231 154.373 150.407 154.01C150.595 153.646 150.765 153.324 150.917 153.043C151.069 152.75 151.181 152.539 151.251 152.41C151.122 152.293 151.034 152.211 150.987 152.164C150.94 152.105 150.905 151.988 150.882 151.812C150.858 151.66 150.894 151.461 150.987 151.215C151.081 150.969 151.204 150.734 151.356 150.512C151.509 150.277 151.679 150.078 151.866 149.914C152.054 149.75 152.235 149.668 152.411 149.668C152.739 149.668 152.968 149.773 153.097 149.984C153.237 150.195 153.319 150.412 153.343 150.635C153.366 150.787 153.354 150.98 153.308 151.215C153.261 151.449 153.173 151.66 153.044 151.848C153.079 151.871 153.126 151.9 153.185 151.936C153.243 151.959 153.337 151.971 153.466 151.971C153.653 151.971 153.782 151.959 153.853 151.936C153.935 151.912 154.058 151.9 154.222 151.9C154.421 151.9 154.585 151.953 154.714 152.059C154.843 152.152 154.948 152.275 155.03 152.428C155.112 152.568 155.171 152.727 155.206 152.902C155.253 153.066 155.282 153.219 155.294 153.359C155.329 153.652 155.253 153.957 155.065 154.273C154.878 154.59 154.649 154.936 154.38 155.311C154.216 155.545 154.052 155.809 153.888 156.102C153.724 156.395 153.653 156.658 153.677 156.893C153.7 157.045 153.741 157.168 153.8 157.262C153.858 157.355 154.022 157.402 154.292 157.402C154.491 157.402 154.708 157.332 154.942 157.191C155.188 157.039 155.435 156.852 155.681 156.629C155.938 156.395 156.19 156.143 156.437 155.873C156.683 155.592 156.911 155.322 157.122 155.064C157.333 154.795 157.509 154.555 157.649 154.344C157.802 154.133 157.913 153.98 157.983 153.887C158.042 153.793 158.118 153.729 158.212 153.693C158.306 153.658 158.388 153.658 158.458 153.693C158.528 153.729 158.569 153.799 158.581 153.904C158.604 154.01 158.563 154.15 158.458 154.326C158.388 154.443 158.265 154.631 158.089 154.889C157.925 155.146 157.72 155.434 157.474 155.75C157.239 156.066 156.976 156.395 156.683 156.734C156.39 157.062 156.079 157.367 155.751 157.648C155.435 157.918 155.112 158.141 154.784 158.316C154.468 158.492 154.163 158.58 153.87 158.58C153.565 158.58 153.313 158.521 153.114 158.404C152.915 158.287 152.751 158.146 152.622 157.982C152.505 157.807 152.417 157.619 152.358 157.42C152.312 157.209 152.294 157.016 152.306 156.84C152.317 156.699 152.353 156.553 152.411 156.4C152.481 156.236 152.558 156.072 152.64 155.908C152.733 155.732 152.827 155.562 152.921 155.398C153.026 155.223 153.12 155.053 153.202 154.889C153.401 154.549 153.56 154.262 153.677 154.027C153.806 153.781 153.87 153.576 153.87 153.412C153.87 153.307 153.847 153.213 153.8 153.131C153.753 153.049 153.677 153.008 153.571 153.008C153.501 153.008 153.448 153.014 153.413 153.025C153.39 153.025 153.36 153.025 153.325 153.025C153.302 153.025 153.261 153.031 153.202 153.043C153.155 153.043 153.079 153.043 152.974 153.043C152.821 153.043 152.692 153.02 152.587 152.973C152.481 152.926 152.382 152.891 152.288 152.867C152.241 152.949 152.136 153.125 151.972 153.395C151.808 153.664 151.614 153.98 151.392 154.344C151.181 154.707 150.952 155.088 150.706 155.486C150.472 155.885 150.249 156.26 150.038 156.611C149.827 156.951 149.651 157.244 149.511 157.49C149.358 157.725 149.265 157.865 149.229 157.912Z" fill="#3D8D7F"/>
<path d="M151.163 154.344C150.811 154.859 150.413 155.363 149.968 155.855C149.522 156.336 149.048 156.77 148.544 157.156C148.052 157.531 147.542 157.836 147.015 158.07C146.499 158.305 145.995 158.422 145.503 158.422C145.245 158.422 144.964 158.357 144.659 158.229C144.366 158.111 144.097 157.924 143.851 157.666C143.604 157.408 143.405 157.074 143.253 156.664C143.112 156.254 143.071 155.756 143.13 155.17C143.177 154.689 143.323 154.186 143.569 153.658C143.827 153.119 144.138 152.627 144.501 152.182C144.876 151.736 145.292 151.367 145.749 151.074C146.218 150.781 146.686 150.635 147.155 150.635C147.601 150.635 147.923 150.746 148.122 150.969C148.321 151.191 148.409 151.467 148.386 151.795C148.351 152.158 148.245 152.492 148.069 152.797C147.905 153.102 147.706 153.377 147.472 153.623C147.237 153.869 146.985 154.092 146.716 154.291C146.458 154.49 146.212 154.672 145.978 154.836C145.72 155.012 145.474 155.182 145.239 155.346C145.005 155.498 144.8 155.639 144.624 155.768C144.636 156.061 144.688 156.307 144.782 156.506C144.876 156.705 144.993 156.869 145.134 156.998C145.274 157.115 145.433 157.203 145.608 157.262C145.796 157.309 145.983 157.332 146.171 157.332C146.569 157.332 146.985 157.209 147.419 156.963C147.853 156.705 148.274 156.4 148.685 156.049C149.106 155.686 149.493 155.311 149.845 154.924C150.208 154.537 150.507 154.203 150.741 153.922C150.823 153.828 150.905 153.775 150.987 153.764C151.081 153.74 151.151 153.752 151.198 153.799C151.257 153.834 151.286 153.904 151.286 154.01C151.286 154.104 151.245 154.215 151.163 154.344ZM146.663 151.637C146.522 151.637 146.353 151.707 146.153 151.848C145.966 151.988 145.778 152.193 145.591 152.463C145.403 152.721 145.228 153.043 145.063 153.43C144.899 153.805 144.776 154.238 144.694 154.73C144.835 154.625 144.987 154.52 145.151 154.414C145.315 154.297 145.479 154.174 145.644 154.045C146.147 153.658 146.499 153.318 146.698 153.025C146.897 152.732 147.009 152.48 147.032 152.27C147.056 152.047 147.032 151.889 146.962 151.795C146.892 151.689 146.792 151.637 146.663 151.637Z" fill="#3D8D7F"/>
<path d="M143.886 154.133C143.968 154.039 144.05 153.992 144.132 153.992C144.226 153.98 144.296 154.004 144.343 154.062C144.401 154.109 144.425 154.186 144.413 154.291C144.413 154.396 144.366 154.514 144.272 154.643C144.05 154.947 143.792 155.264 143.499 155.592C143.206 155.908 142.89 156.219 142.55 156.523C142.222 156.828 141.888 157.115 141.548 157.385C141.208 157.654 140.88 157.877 140.563 158.053C140.212 158.252 139.913 158.352 139.667 158.352C139.433 158.352 139.198 158.199 138.964 157.895C138.753 157.625 138.647 157.338 138.647 157.033C138.659 156.717 138.729 156.324 138.858 155.855C138.94 155.562 139.052 155.217 139.192 154.818C139.345 154.408 139.462 154.016 139.544 153.641C139.638 153.266 139.667 152.949 139.632 152.691C139.597 152.422 139.444 152.287 139.175 152.287C138.987 152.287 138.782 152.352 138.56 152.48C138.349 152.609 138.132 152.779 137.909 152.99C137.698 153.189 137.493 153.418 137.294 153.676C137.095 153.934 136.919 154.186 136.767 154.432C136.673 154.889 136.579 155.34 136.485 155.785C136.403 156.16 136.315 156.57 136.222 157.016C136.14 157.449 136.058 157.836 135.976 158.176C135.905 158.234 135.829 158.275 135.747 158.299C135.665 158.322 135.589 158.334 135.519 158.334C135.437 158.334 135.354 158.328 135.272 158.316C135.179 158.293 135.091 158.258 135.009 158.211C134.938 158.164 134.868 158.1 134.798 158.018C134.728 157.947 134.675 157.848 134.64 157.719C135.167 155.551 135.583 153.811 135.888 152.498C136.192 151.186 136.427 150.184 136.591 149.492C136.778 148.672 136.907 148.104 136.978 147.787C137.013 147.564 137.042 147.348 137.065 147.137C137.089 146.949 137.101 146.756 137.101 146.557C137.101 146.357 137.083 146.176 137.048 146.012C137.142 145.953 137.241 145.906 137.347 145.871C137.464 145.836 137.575 145.807 137.681 145.783C137.81 145.748 137.938 145.719 138.067 145.695C138.196 145.672 138.313 145.66 138.419 145.66C138.513 145.66 138.601 145.672 138.683 145.695C138.765 145.707 138.817 145.742 138.841 145.801C138.911 145.859 138.94 145.977 138.929 146.152C138.929 146.328 138.917 146.51 138.894 146.697C138.847 146.92 138.794 147.16 138.735 147.418C138.489 148.367 138.214 149.293 137.909 150.195C137.604 151.086 137.323 152.041 137.065 153.061C137.218 152.826 137.399 152.586 137.61 152.34C137.821 152.094 138.05 151.871 138.296 151.672C138.554 151.461 138.823 151.291 139.104 151.162C139.386 151.021 139.685 150.951 140.001 150.951C140.165 150.951 140.317 150.98 140.458 151.039C140.61 151.086 140.739 151.174 140.845 151.303C140.962 151.42 141.05 151.584 141.108 151.795C141.167 151.994 141.19 152.246 141.179 152.551C141.179 152.738 141.155 152.932 141.108 153.131C141.073 153.33 141.021 153.553 140.95 153.799C140.88 154.033 140.786 154.297 140.669 154.59C140.563 154.883 140.435 155.223 140.282 155.609C140.177 155.879 140.095 156.107 140.036 156.295C139.978 156.482 139.989 156.646 140.071 156.787C140.177 156.975 140.382 157.021 140.687 156.928C141.003 156.822 141.472 156.518 142.093 156.014C142.233 155.896 142.392 155.75 142.567 155.574C142.743 155.398 142.913 155.223 143.077 155.047C143.241 154.859 143.394 154.684 143.534 154.52C143.675 154.355 143.792 154.227 143.886 154.133Z" fill="#3D8D7F"/>
<path d="M122.634 161.357C122.294 161.357 121.978 161.205 121.685 160.9C121.403 160.607 121.169 160.18 120.982 159.617C120.806 159.066 120.677 158.387 120.595 157.578C120.525 156.758 120.53 155.826 120.612 154.783C120.659 154.092 120.753 153.389 120.894 152.674C121.034 151.947 121.192 151.25 121.368 150.582C121.544 149.902 121.732 149.264 121.931 148.666C122.13 148.068 122.312 147.541 122.476 147.084C122.651 146.615 122.792 146.24 122.898 145.959C123.015 145.678 123.085 145.514 123.108 145.467C123.144 145.408 123.208 145.35 123.302 145.291C123.407 145.221 123.525 145.162 123.653 145.115C123.794 145.068 123.941 145.033 124.093 145.01C124.257 144.975 124.409 144.957 124.55 144.957C124.667 144.957 124.778 144.963 124.884 144.975C124.978 144.986 125.071 145.004 125.165 145.027C125.259 145.051 125.341 145.086 125.411 145.133C125.282 145.215 125.153 145.344 125.025 145.52C124.907 145.684 124.796 145.859 124.691 146.047C124.562 146.258 124.444 146.486 124.339 146.732C124.105 147.225 123.858 147.822 123.601 148.525C123.343 149.229 123.097 149.979 122.862 150.775C122.64 151.561 122.441 152.363 122.265 153.184C122.101 153.992 121.989 154.754 121.931 155.469C121.837 156.91 121.89 157.982 122.089 158.686C122.288 159.4 122.569 159.758 122.933 159.758C123.108 159.758 123.296 159.646 123.495 159.424C123.694 159.201 123.894 158.914 124.093 158.562C124.304 158.211 124.509 157.818 124.708 157.385C124.907 156.951 125.095 156.523 125.271 156.102C125.376 155.832 125.487 155.533 125.605 155.205C125.733 154.865 125.857 154.52 125.974 154.168C126.103 153.816 126.226 153.471 126.343 153.131C126.46 152.779 126.566 152.463 126.659 152.182C126.659 151.83 126.665 151.461 126.677 151.074C126.689 150.676 126.712 150.277 126.747 149.879C126.794 149.469 126.853 149.07 126.923 148.684C126.993 148.285 127.087 147.922 127.204 147.594C127.439 146.961 127.714 146.498 128.03 146.205C128.347 145.9 128.622 145.742 128.857 145.73C129.021 145.73 129.138 145.801 129.208 145.941C129.278 146.082 129.308 146.27 129.296 146.504C129.273 146.809 129.22 147.178 129.138 147.611C129.056 148.033 128.956 148.49 128.839 148.982C128.733 149.463 128.61 149.955 128.47 150.459C128.329 150.951 128.194 151.426 128.066 151.883C127.855 153.09 127.726 154.186 127.679 155.17C127.632 156.143 127.638 156.98 127.696 157.684C127.767 158.375 127.878 158.908 128.03 159.283C128.194 159.67 128.388 159.863 128.61 159.863C128.868 159.863 129.138 159.688 129.419 159.336C129.712 158.984 129.999 158.521 130.28 157.947C130.562 157.361 130.831 156.699 131.089 155.961C131.358 155.223 131.599 154.467 131.81 153.693C132.032 152.908 132.214 152.141 132.355 151.391C132.495 150.629 132.589 149.943 132.636 149.334C132.671 148.83 132.689 148.332 132.689 147.84C132.689 147.418 132.671 146.967 132.636 146.486C132.601 146.006 132.536 145.572 132.442 145.186C132.595 145.057 132.8 144.951 133.058 144.869C133.187 144.822 133.327 144.781 133.48 144.746C133.573 144.723 133.673 144.705 133.778 144.693C133.872 144.682 133.966 144.676 134.06 144.676C134.153 144.664 134.241 144.67 134.323 144.693C134.394 144.857 134.441 145.068 134.464 145.326C134.499 145.584 134.523 145.836 134.534 146.082C134.546 146.375 134.54 146.68 134.517 146.996C134.423 148.238 134.259 149.457 134.025 150.652C133.802 151.848 133.526 152.984 133.198 154.062C132.87 155.129 132.501 156.113 132.091 157.016C131.692 157.906 131.276 158.68 130.843 159.336C130.421 159.992 129.993 160.502 129.56 160.865C129.138 161.229 128.733 161.41 128.347 161.41C127.937 161.41 127.608 161.234 127.362 160.883C127.116 160.543 126.929 160.109 126.8 159.582C126.671 159.066 126.589 158.51 126.554 157.912C126.519 157.314 126.507 156.764 126.519 156.26C126.249 156.916 125.956 157.549 125.64 158.158C125.335 158.768 125.013 159.307 124.673 159.775C124.345 160.256 124.005 160.637 123.653 160.918C123.314 161.211 122.974 161.357 122.634 161.357Z" fill="#3D8D7F"/>
<g clip-path="url(#clip0_268_5690)">
<path d="M182.629 78.3622C182.719 78.3972 182.808 78.4322 182.9 78.4682C182.979 78.4995 183.058 78.5308 183.14 78.5631C183.797 78.8027 184.457 78.9862 185.141 79.1271C185.222 79.1438 185.302 79.1604 185.384 79.1776C185.643 79.2307 185.902 79.2826 186.161 79.3341C186.25 79.3517 186.339 79.3694 186.43 79.3875C188.093 79.7147 189.706 79.8617 191.403 79.862C192.377 79.8656 193.25 79.9767 193.984 80.6717C194.853 81.6637 194.821 82.7354 194.851 83.999C194.856 84.1866 194.856 84.1866 194.861 84.3779C194.87 84.718 194.878 85.0581 194.887 85.3982C194.895 85.755 194.905 86.1118 194.914 86.4686C194.929 87.0668 194.944 87.6651 194.959 88.2633C194.976 88.955 194.994 89.6466 195.012 90.3382C195.029 91.0047 195.046 91.6712 195.062 92.3376C195.07 92.6209 195.077 92.9042 195.084 93.1875C195.094 93.5823 195.104 93.9771 195.114 94.3719C195.118 94.5484 195.118 94.5484 195.123 94.7284C195.127 94.8892 195.127 94.8892 195.131 95.0533C195.134 95.1932 195.134 95.1932 195.138 95.336C195.135 95.5702 195.135 95.5702 195.078 95.8635C195.192 95.9006 195.305 95.9377 195.422 95.976C198.454 96.9871 201.465 98.3112 204.083 100.161C204.18 100.229 204.18 100.229 204.279 100.299C205.595 101.238 207.096 102.522 207.396 104.197C207.42 105.076 207.22 105.963 206.67 106.655C206.508 106.804 206.345 106.947 206.17 107.081C205.924 107.409 206.025 107.808 206.078 108.193C206.119 108.434 206.161 108.675 206.203 108.915C206.539 111.288 205.685 113.771 204.284 115.663C203.589 116.572 202.774 117.247 201.836 117.889C201.744 117.953 201.652 118.017 201.558 118.083C199.563 119.378 197.011 119.645 194.715 119.172C193.018 118.783 191.505 117.929 190.169 116.827C189.901 116.986 189.638 117.152 189.375 117.318C189.3 117.363 189.225 117.408 189.148 117.454C189.039 117.524 189.039 117.524 188.928 117.595C188.862 117.636 188.795 117.678 188.726 117.72C188.517 117.944 188.477 118.08 188.383 118.367C188.144 118.959 187.766 119.218 187.244 119.559C187.153 119.621 187.062 119.684 186.968 119.748C186.667 119.952 186.365 120.153 186.062 120.354C185.852 120.495 185.642 120.637 185.432 120.778C184.993 121.074 184.552 121.369 184.111 121.662C183.601 122 183.094 122.341 182.588 122.684C182.099 123.015 181.609 123.343 181.118 123.671C180.91 123.81 180.703 123.95 180.495 124.09C180.205 124.286 179.914 124.479 179.622 124.672C179.537 124.73 179.451 124.788 179.363 124.848C178.878 125.165 178.572 125.318 177.976 125.202C177.533 125.005 177.312 124.644 177.053 124.251C177.011 124.187 176.968 124.123 176.924 124.057C176.834 123.922 176.744 123.787 176.655 123.652C176.518 123.445 176.38 123.239 176.241 123.032C176.154 122.901 176.067 122.77 175.979 122.639C175.938 122.577 175.897 122.515 175.854 122.451C175.597 122.062 175.494 121.883 175.52 121.41C175.597 121.043 175.723 120.9 176.024 120.68C176.1 120.625 176.176 120.569 176.254 120.512C176.37 120.429 176.37 120.429 176.49 120.344C176.596 120.269 176.596 120.269 176.704 120.192C176.926 120.036 177.149 119.882 177.373 119.729C177.457 119.671 177.541 119.614 177.628 119.554C178.497 118.959 179.369 118.367 180.242 117.775C180.655 117.495 181.068 117.213 181.479 116.93C181.978 116.587 182.479 116.247 182.981 115.908C183.171 115.779 183.361 115.649 183.55 115.518C183.814 115.336 184.081 115.156 184.348 114.977C184.425 114.923 184.502 114.869 184.582 114.813C185.083 114.483 185.437 114.393 186.038 114.444C186.463 114.438 186.762 114.198 187.095 113.955C187.197 113.887 187.197 113.887 187.301 113.818C187.52 113.67 187.52 113.67 187.79 113.418C187.804 113.201 187.804 113.201 187.769 113.008C187.439 113.09 187.127 113.207 186.811 113.33C183.662 114.534 180.007 114.428 176.897 113.113C176.77 113.056 176.643 112.998 176.516 112.94C176.45 112.91 176.384 112.881 176.316 112.85C174.501 112.014 173.012 110.714 171.744 109.184C169.229 106.152 166 103.898 162.61 101.953C161.64 101.396 160.714 100.833 159.836 100.139C159.737 100.064 159.637 99.9883 159.535 99.9107C158.641 99.2116 157.806 98.3705 157.342 97.3174C157.308 97.2406 157.274 97.1638 157.239 97.0846C156.94 96.2586 157.086 95.4916 157.351 94.6801C157.998 93.3975 159.444 92.7358 160.741 92.294C164.266 91.1565 168.345 90.9791 172.007 91.3538C172.038 91.2519 172.069 91.15 172.101 91.0451C172.284 90.4914 172.518 89.961 172.751 89.4269C172.822 89.2619 172.822 89.2619 172.895 89.0936C172.996 88.8621 173.096 88.6308 173.197 88.3995C173.351 88.0456 173.504 87.6912 173.657 87.3368C173.755 87.1115 173.853 86.8863 173.951 86.6611C174.019 86.5023 174.019 86.5023 174.089 86.3403C174.132 86.2417 174.175 86.1431 174.22 86.0416C174.258 85.9551 174.295 85.8687 174.334 85.7796C174.479 85.5111 174.626 85.3155 174.851 85.1097C175.227 85.1007 175.227 85.1007 175.555 85.1457C175.61 84.9587 175.61 84.9587 175.667 84.7679C175.766 84.4405 175.89 84.1552 176.049 83.853C176.151 83.6488 176.151 83.6488 176.192 83.4433C176.068 83.2157 175.943 82.9883 175.818 82.7612C175.908 81.9933 176.334 81.2332 176.644 80.5316C176.729 80.3385 176.813 80.1447 176.896 79.9509C177.602 78.3298 177.602 78.3298 178.445 77.8574C178.53 77.8083 178.614 77.7592 178.702 77.7086C179.993 77.1164 181.417 77.8866 182.629 78.3622Z" fill="#020202"/>
<path d="M171.291 92.9393C171.131 93.4469 170.95 93.931 170.735 94.4188C170.677 94.5528 170.619 94.6868 170.56 94.8208C170.47 95.0279 170.379 95.2349 170.288 95.4415C169.69 96.7063 169.69 96.7063 169.571 98.0711C169.984 98.7049 170.826 99.0621 171.479 99.4083C171.569 99.4559 171.659 99.5036 171.751 99.5527C174.272 100.894 174.272 100.894 176.994 101.666C177.267 101.567 177.267 101.567 177.462 101.352C177.585 101.067 177.585 101.067 177.576 100.765C177.357 100.462 177.153 100.333 176.804 100.209C176.717 100.177 176.63 100.145 176.541 100.113C176.447 100.08 176.354 100.047 176.258 100.013C174.427 99.3355 172.711 98.486 170.999 97.5509C171.286 96.7644 171.596 95.9902 171.924 95.2197C171.967 95.1175 172.01 95.0153 172.055 94.9099C172.16 94.6616 172.265 94.4134 172.371 94.1653C173.451 94.5721 173.451 94.5721 173.905 94.8521C175.145 95.5735 176.473 96.1475 177.828 96.6167C177.994 96.6743 178.159 96.7328 178.325 96.7921C182.881 98.4143 188.202 99.0542 192.985 98.278C193.299 98.254 193.396 98.287 193.663 98.4288C193.681 98.7766 193.697 99.1245 193.713 99.4725C193.72 99.62 193.72 99.62 193.728 99.7706C193.732 99.8659 193.737 99.9613 193.741 100.06C193.745 100.147 193.749 100.234 193.754 100.325C193.751 100.589 193.731 100.812 193.655 101.066C193.427 101.196 193.229 101.289 192.985 101.379C192.861 101.427 192.738 101.476 192.614 101.525C192.517 101.563 192.517 101.563 192.418 101.603C192.187 101.709 191.984 101.841 191.771 101.979C191.266 102.278 190.839 102.306 190.261 102.299C190.165 102.3 190.068 102.301 189.968 102.302C189.662 102.303 189.356 102.3 189.05 102.297C188.855 102.297 188.659 102.297 188.464 102.297C186.768 102.287 185.123 102.132 183.454 101.836C183.357 101.819 183.26 101.802 183.161 101.784C182.667 101.697 182.173 101.607 181.681 101.515C181.496 101.481 181.312 101.448 181.128 101.414C181.043 101.398 180.957 101.381 180.87 101.364C180.523 101.302 180.284 101.261 179.942 101.36C179.733 101.499 179.733 101.499 179.658 101.832C179.607 102.164 179.607 102.164 179.723 102.372C179.911 102.578 180.036 102.604 180.309 102.658C180.444 102.686 180.444 102.686 180.583 102.714C180.681 102.733 180.78 102.752 180.881 102.771C180.984 102.791 181.086 102.812 181.192 102.833C181.411 102.876 181.63 102.918 181.849 102.959C182.176 103.022 182.503 103.087 182.829 103.153C184.647 103.51 186.45 103.656 188.303 103.655C188.487 103.655 188.672 103.656 188.856 103.657C188.933 103.657 189.01 103.657 189.09 103.657C189.291 103.664 189.291 103.664 189.584 103.721C189.364 104.124 189.118 104.496 188.858 104.873C187.739 106.569 187.208 108.733 187.477 110.748C187.491 110.956 187.491 110.956 187.39 111.31C185.898 112.556 183.051 112.771 181.193 112.615C177.896 112.26 175.176 110.84 173.058 108.306C170.459 105.249 167.289 102.844 163.815 100.866C162.626 100.19 161.476 99.5243 160.435 98.6323C160.352 98.5644 160.27 98.4965 160.185 98.4265C159.445 97.7951 158.715 97.0496 158.607 96.0421C158.613 95.5659 158.746 95.3135 159.057 94.9694C161.754 92.4671 166.896 92.747 170.319 92.7929C170.653 92.8076 170.965 92.8688 171.291 92.9393Z" fill="#EFEFF2"/>
<path d="M181.407 79.5783C182.866 80.1615 184.314 80.6024 185.857 80.8922C185.931 80.9064 186.006 80.9206 186.082 80.9353C187.695 81.2426 189.264 81.4341 190.909 81.3795C191.615 81.3611 192.333 81.3676 192.901 81.8187C193.212 82.2208 193.261 82.5155 193.276 83.0111C193.28 83.1397 193.284 83.2684 193.288 83.4009C193.292 83.5465 193.295 83.692 193.299 83.8376C193.304 83.9927 193.308 84.1479 193.313 84.303C193.364 86.1377 193.397 87.9728 193.432 89.8078C193.466 91.535 193.508 93.2618 193.561 94.9885C193.564 95.0662 193.566 95.1439 193.569 95.2239C193.575 95.428 193.581 95.632 193.588 95.8361C193.594 96.1544 193.59 96.4701 193.578 96.7882C191.714 97.0512 189.916 97.1855 188.031 97.125C187.938 97.1226 187.844 97.1202 187.747 97.1177C182.689 96.9858 177.319 95.5398 173.048 92.7754C173.609 91.3472 174.198 89.9335 174.811 88.5273C174.859 88.4166 174.859 88.4166 174.908 88.3036C175.001 88.0911 175.094 87.8789 175.187 87.6667C175.214 87.6036 175.242 87.5406 175.27 87.4756C175.393 87.1975 175.522 86.9308 175.672 86.6662C175.853 86.3463 175.924 86.0971 175.948 85.7301C175.877 85.6554 175.805 85.5808 175.732 85.5039C175.536 85.2435 175.536 85.2435 175.559 85.03C175.635 84.7751 175.726 84.5319 175.824 84.285C175.85 84.2046 175.875 84.1243 175.901 84.0415C175.979 83.8166 176.051 83.6355 176.192 83.4434C176.563 83.3319 176.563 83.3319 176.934 83.2839C177.334 83.021 177.47 82.6229 177.644 82.1956C177.707 82.0452 177.771 81.8947 177.835 81.7443C177.933 81.5079 178.031 81.2714 178.129 81.0348C178.224 80.8056 178.32 80.5771 178.417 80.3486C178.446 80.2782 178.474 80.2077 178.504 80.1351C179.132 78.6575 180.219 79.1019 181.407 79.5783Z" fill="#F0F0F3"/>
<path d="M198.236 102.133C198.384 102.161 198.384 102.161 198.535 102.19C200.557 102.605 202.196 103.794 203.344 105.497C203.436 105.631 203.436 105.631 203.529 105.767C204.275 106.927 204.617 108.144 204.69 109.516C204.702 109.643 204.713 109.77 204.725 109.9C204.826 111.957 203.834 113.869 202.528 115.386C202.223 115.694 201.905 115.956 201.555 116.211C201.475 116.272 201.396 116.333 201.314 116.395C200.201 117.207 198.953 117.598 197.596 117.771C197.494 117.787 197.393 117.803 197.288 117.819C195.414 118.013 193.287 117.275 191.826 116.136C191.137 115.559 190.586 114.91 190.079 114.17C190.004 114.062 190.004 114.062 189.929 113.952C188.757 112.099 188.603 109.878 189.063 107.787C189.476 106.086 190.545 104.608 191.947 103.574C192.026 103.513 192.106 103.452 192.187 103.389C193.973 102.09 196.1 101.726 198.236 102.133Z" fill="#030303"/>
<path d="M172.371 94.1654C173.451 94.5722 173.451 94.5722 173.905 94.8522C175.145 95.5735 176.473 96.1476 177.828 96.6168C177.994 96.6744 178.159 96.7329 178.325 96.7921C182.881 98.4144 188.202 99.0543 192.985 98.2781C193.299 98.254 193.396 98.2871 193.663 98.4288C193.681 98.7767 193.697 99.1246 193.713 99.4725C193.718 99.5709 193.723 99.6693 193.728 99.7707C193.734 99.9137 193.734 99.9137 193.741 100.06C193.745 100.147 193.749 100.235 193.754 100.325C193.751 100.589 193.731 100.813 193.655 101.066C193.427 101.196 193.229 101.289 192.985 101.379C192.861 101.427 192.737 101.476 192.614 101.525C192.549 101.55 192.484 101.576 192.418 101.603C192.187 101.709 191.984 101.841 191.771 101.979C191.266 102.278 190.839 102.306 190.261 102.299C190.165 102.3 190.068 102.301 189.968 102.302C189.662 102.303 189.356 102.301 189.05 102.297C188.855 102.297 188.659 102.297 188.464 102.297C186.768 102.287 185.123 102.132 183.454 101.836C183.357 101.819 183.26 101.802 183.161 101.785C182.667 101.697 182.173 101.607 181.681 101.515C181.496 101.481 181.312 101.448 181.128 101.414C181.043 101.398 180.957 101.381 180.87 101.364C180.408 101.281 180.408 101.281 179.952 101.359C179.732 101.512 179.732 101.512 179.496 101.851C178.863 101.66 178.23 101.469 177.579 101.273C177.539 100.964 177.539 100.964 177.498 100.648C177.248 100.4 177.131 100.335 176.812 100.22C176.724 100.188 176.637 100.156 176.548 100.123C176.407 100.072 176.407 100.072 176.263 100.02C174.432 99.3356 172.713 98.4871 170.999 97.551C171.286 96.7644 171.596 95.9903 171.924 95.2198C171.989 95.0664 171.989 95.0664 172.055 94.91C172.16 94.6617 172.265 94.4135 172.371 94.1654Z" fill="#ADA8B2"/>
<path d="M198.236 102.133C198.384 102.161 198.384 102.161 198.535 102.19C200.557 102.605 202.196 103.794 203.344 105.497C203.436 105.631 203.436 105.631 203.529 105.767C204.275 106.927 204.617 108.144 204.69 109.516C204.702 109.643 204.713 109.77 204.725 109.9C204.826 111.957 203.834 113.869 202.528 115.386C202.223 115.694 201.905 115.956 201.555 116.211C201.475 116.272 201.396 116.333 201.314 116.395C200.201 117.207 198.953 117.598 197.596 117.771C197.494 117.787 197.393 117.803 197.288 117.819C195.414 118.013 193.287 117.275 191.826 116.136C191.137 115.559 190.586 114.91 190.079 114.17C190.004 114.062 190.004 114.062 189.929 113.952C188.757 112.099 188.603 109.878 189.063 107.787C189.476 106.086 190.545 104.608 191.947 103.574C192.026 103.513 192.106 103.452 192.187 103.389C193.973 102.09 196.1 101.726 198.236 102.133ZM192.245 104.647C190.732 106.073 189.984 107.719 189.848 109.787C189.82 111.681 190.578 113.341 191.818 114.732C193.183 116.057 194.923 116.817 196.842 116.793C198.758 116.669 200.45 115.998 201.804 114.61C203.075 113.162 203.742 111.249 203.663 109.321C203.445 107.335 202.389 105.544 200.839 104.297C200.503 104.074 200.209 103.906 199.802 103.891C199.533 103.987 199.533 103.987 199.334 104.206C199.202 104.535 199.202 104.535 199.2 104.89C199.407 105.275 199.658 105.481 200.013 105.728C200.59 106.157 200.974 106.658 201.379 107.245C200.484 107.442 199.592 107.579 198.684 107.695C196.218 108.023 193.736 108.571 191.406 109.457C191.808 107.757 192.409 106.451 193.874 105.401C194.665 104.917 195.562 104.613 196.49 104.576C196.9 104.521 197.051 104.426 197.322 104.117C197.446 103.81 197.438 103.685 197.321 103.375C196.041 102.12 193.312 103.796 192.245 104.647Z" fill="#C1BCC3"/>
<path d="M202.07 108.902C202.267 109.53 202.179 110.17 202.048 110.801C202.03 110.886 202.013 110.971 201.995 111.059C201.693 112.414 200.94 113.562 199.807 114.378C198.381 115.261 196.905 115.452 195.281 115.12C193.943 114.778 192.807 113.802 192.08 112.652C191.509 111.595 191.509 111.595 191.581 111.111C191.819 110.829 192.154 110.762 192.497 110.659C192.614 110.623 192.614 110.623 192.734 110.585C192.976 110.51 193.218 110.438 193.461 110.366C193.531 110.345 193.6 110.324 193.672 110.302C194.171 110.152 194.673 110.018 195.178 109.889C195.26 109.869 195.341 109.848 195.424 109.826C196.882 109.459 198.356 109.225 199.842 109.006C199.937 108.992 200.031 108.977 200.129 108.963C200.399 108.922 200.67 108.884 200.941 108.845C201.023 108.833 201.105 108.821 201.19 108.808C201.764 108.729 201.764 108.729 202.07 108.902Z" fill="#BCDFE1"/>
<path d="M197.398 103.726C198.781 103.954 198.781 103.954 199.217 104.285C199.31 104.652 199.31 104.652 199.377 105.026C199.567 105.227 199.567 105.227 199.808 105.415C200.484 105.975 201.03 106.502 201.477 107.264C201.144 107.488 200.79 107.497 200.4 107.548C200.224 107.571 200.048 107.595 199.872 107.619C199.779 107.632 199.687 107.644 199.592 107.657C197.054 108.001 194.625 108.52 192.178 109.287C191.923 109.36 191.668 109.411 191.406 109.457C191.662 107.836 192.185 106.628 193.509 105.579C194.409 104.936 195.418 104.523 196.53 104.47C196.89 104.428 196.999 104.376 197.224 104.098C197.284 103.975 197.342 103.851 197.398 103.726Z" fill="#FBFBFB"/>
<path d="M191.616 81.3834C192.122 81.4455 192.495 81.4961 192.901 81.8186C193.212 82.2207 193.261 82.5154 193.276 83.0111C193.282 83.204 193.282 83.204 193.288 83.4009C193.292 83.5464 193.295 83.692 193.299 83.8375C193.304 83.9927 193.308 84.1478 193.313 84.303C193.365 86.1376 193.397 87.9728 193.432 89.8078C193.466 91.535 193.508 93.2618 193.562 94.9885C193.564 95.0661 193.566 95.1438 193.569 95.2239C193.575 95.4279 193.582 95.632 193.588 95.836C193.594 96.1543 193.59 96.47 193.578 96.7882C193.374 96.8163 193.17 96.844 192.965 96.8714C192.852 96.8869 192.738 96.9023 192.621 96.9182C192.328 96.9499 192.328 96.9499 192.133 96.9117C192.025 93.5902 191.927 90.2684 191.845 86.9462C191.841 86.7971 191.837 86.6481 191.833 86.4991C191.832 86.4253 191.83 86.3516 191.828 86.2755C191.816 85.7876 191.802 85.2997 191.788 84.8118C191.778 84.4706 191.769 84.1294 191.759 83.7882C191.755 83.6251 191.75 83.4621 191.745 83.299C191.738 83.0736 191.732 82.8482 191.726 82.6228C191.722 82.4944 191.718 82.366 191.714 82.2337C191.716 81.9105 191.716 81.9105 191.792 81.5194C191.734 81.4746 191.676 81.4297 191.616 81.3834Z" fill="#DDDBE0"/>
<path d="M185.419 116.203C185.666 116.388 185.842 116.549 186.012 116.808C186.075 116.902 186.075 116.902 186.138 116.997C186.18 117.062 186.222 117.126 186.266 117.193C186.309 117.258 186.352 117.324 186.397 117.392C186.504 117.553 186.61 117.715 186.715 117.877C186.234 118.268 185.742 118.629 185.227 118.973C185.154 119.023 185.081 119.072 185.005 119.122C184.767 119.283 184.528 119.443 184.289 119.603C184.122 119.715 183.955 119.827 183.789 119.94C183.352 120.233 182.915 120.526 182.478 120.819C182.032 121.119 181.585 121.419 181.139 121.719C180.265 122.306 179.39 122.893 178.515 123.48C178.424 123.366 178.334 123.252 178.243 123.137C178.192 123.074 178.141 123.01 178.089 122.944C177.914 122.719 177.753 122.486 177.596 122.248C177.542 122.167 177.489 122.087 177.434 122.004C177.376 121.916 177.376 121.916 177.317 121.825C177.495 121.575 177.664 121.4 177.919 121.23C178.018 121.163 178.018 121.163 178.119 121.094C178.228 121.022 178.228 121.022 178.338 120.948C178.415 120.897 178.491 120.846 178.57 120.793C178.822 120.623 179.075 120.454 179.328 120.285C179.503 120.167 179.678 120.05 179.853 119.932C180.314 119.623 180.776 119.314 181.237 119.005C181.708 118.69 182.178 118.374 182.649 118.059C183.572 117.439 184.495 116.821 185.419 116.203Z" fill="#655D65"/>
<path d="M195.144 97.6018C198.193 98.3985 201.146 99.9215 203.66 101.804C203.753 101.873 203.846 101.942 203.942 102.013C204.755 102.653 205.671 103.505 205.86 104.568C205.831 105.098 205.666 105.387 205.319 105.782C205.254 105.769 205.19 105.757 205.123 105.744C205.019 105.558 204.922 105.369 204.828 105.178C203.888 103.391 202.036 101.774 200.098 101.128C198.67 100.764 197.175 100.386 195.701 100.601C195.444 100.61 195.323 100.55 195.098 100.435C195.091 100.036 195.084 99.637 195.078 99.2382C195.076 99.125 195.074 99.0118 195.072 98.8952C195.07 98.7863 195.069 98.6774 195.067 98.5652C195.065 98.4649 195.064 98.3647 195.062 98.2614C195.068 97.9928 195.068 97.9928 195.144 97.6018Z" fill="#ECECEF"/>
<path d="M198.946 109.306C198.784 109.888 198.572 110.301 198.197 110.771C198.148 110.832 198.1 110.893 198.05 110.956C196.978 112.281 195.633 113.011 193.957 113.279C192.962 113.378 192.962 113.378 192.497 113.222C191.99 112.777 191.683 111.96 191.551 111.312C191.58 111.111 191.58 111.111 191.725 110.94C191.985 110.828 192.227 110.74 192.497 110.659C192.614 110.623 192.614 110.623 192.733 110.585C192.975 110.51 193.218 110.438 193.461 110.366C193.531 110.345 193.6 110.324 193.672 110.302C197.958 109.015 197.958 109.015 198.946 109.306Z" fill="#DBEDEF"/>
<path d="M172.371 94.1653C172.907 94.3558 173.414 94.5632 173.905 94.8521C175.221 95.6178 176.63 96.2026 178.067 96.6996C178.15 96.7292 178.233 96.7588 178.319 96.7893C180.346 97.5051 182.439 97.9314 184.54 98.3709C184.534 98.4031 184.527 98.4354 184.521 98.4686C180.127 98.1805 175.974 97.1794 171.908 95.4957C172.054 95.0483 172.202 94.6048 172.371 94.1653Z" fill="#C2BEC5"/>
<path d="M188.655 114.704C188.843 114.942 189.031 115.179 189.225 115.424C188.949 115.782 188.665 115.99 188.293 116.232C188.233 116.271 188.173 116.311 188.111 116.352C187.963 116.449 187.815 116.546 187.667 116.642C187.479 116.405 187.291 116.167 187.098 115.922C187.374 115.564 187.657 115.356 188.029 115.115C188.089 115.075 188.15 115.035 188.211 114.994C188.359 114.897 188.507 114.8 188.655 114.704Z" fill="#A7A2AC"/>
</g>
<defs>
<clipPath id="clip0_268_5690">
<rect width="51" height="51" fill="white" transform="translate(161.784 72) rotate(11.06)"/>
</clipPath>
</defs>
</svg>
