<svg width="251" height="167" viewBox="0 0 251 167" fill="none" xmlns="http://www.w3.org/2000/svg">
<path d="M199.086 128.685V139.223H178.781V128.685H181.48V118.147C181.48 116.733 181.18 115.705 180.58 115.062C179.981 114.377 179.081 114.034 177.881 114.034C175.311 114.034 174.026 115.405 174.026 118.147V128.685H176.725V139.223H156.548V128.685H159.247V118.147C159.247 116.733 158.947 115.705 158.347 115.062C157.748 114.377 156.848 114.034 155.649 114.034C153.078 114.034 151.793 115.405 151.793 118.147V128.685H154.492V139.223H134.187V128.685H137.014V114.034H134.187V103.496H151.793V108.508C154.877 104.567 158.733 102.596 163.359 102.596C165.973 102.596 168.093 103.218 169.721 104.46C171.392 105.659 172.57 107.373 173.255 109.6C174.797 107.373 176.554 105.659 178.524 104.46C180.537 103.26 182.894 102.661 185.592 102.661C189.148 102.661 191.804 103.774 193.56 106.002C195.359 108.23 196.259 111.292 196.259 115.191V128.685H199.086Z" fill="white"/>
<path d="M115.183 140.122C109.1 140.122 104.345 138.537 100.918 135.367C97.4906 132.155 95.7771 127.485 95.7771 121.359C95.7771 115.234 97.4906 110.586 100.918 107.416C104.345 104.203 109.1 102.596 115.183 102.596C121.223 102.596 125.571 104.181 128.227 107.351C130.926 110.479 132.275 114.377 132.275 119.046V123.673H111.456V124.058C111.456 125.643 111.927 126.821 112.869 127.592C113.812 128.321 115.375 128.685 117.56 128.685C120.173 128.685 122.658 128.492 125.014 128.106C127.37 127.721 129.426 127.228 131.183 126.629V136.91C129.683 137.724 127.477 138.473 124.564 139.159C121.694 139.801 118.567 140.122 115.183 140.122ZM118.91 116.604V115.833C118.91 114.377 118.588 113.327 117.946 112.685C117.346 112.042 116.425 111.721 115.183 111.721C113.94 111.721 112.998 112.064 112.355 112.749C111.756 113.392 111.456 114.42 111.456 115.833V116.604H118.91Z" fill="white"/>
<path d="M93.9593 128.685V139.223H73.6541V128.685H76.3529V118.147C76.3529 116.733 76.053 115.705 75.4533 115.062C74.8536 114.377 73.954 114.034 72.7545 114.034C70.1842 114.034 68.8991 115.405 68.8991 118.147V128.685H71.5979V139.223H51.2927V128.685H54.12V99.7691H51.2927V89.2309H68.8991V108.508C70.4841 106.537 72.1976 105.06 74.0396 104.074C75.8817 103.089 78.0236 102.596 80.4654 102.596C84.0209 102.596 86.6769 103.71 88.4332 105.938C90.2324 108.165 91.132 111.228 91.132 115.127V128.685H93.9593Z" fill="white"/>
<path d="M49.2189 104.781H38.1667V99.7691H34.0542V128.685H38.5522V139.223H11.5642V128.685H16.0622V99.7691H11.9498V104.781H0.897583V89.2309H49.2189V104.781Z" fill="white"/>
<path d="M121.368 62.8133C116.999 62.8133 113.7 61.1854 111.473 57.9297C109.288 54.674 108.196 50.0475 108.196 44.0502C108.196 38.0529 109.288 33.4264 111.473 30.1707C113.7 26.915 116.999 25.2872 121.368 25.2872C123.553 25.2872 125.481 25.8226 127.152 26.8936C128.865 27.9645 130.257 29.1854 131.328 30.5562V22.4598H127.537V11.9217H146.107V51.3755H148.935V61.9137H131.328V57.5442C130.257 58.915 128.865 60.1359 127.152 61.2068C125.481 62.2778 123.553 62.8133 121.368 62.8133ZM127.601 51.3755C128.844 51.3755 129.765 51.0542 130.364 50.4117C131.007 49.7262 131.328 48.6767 131.328 47.2631V40.8374C131.328 39.4237 131.007 38.3956 130.364 37.753C129.765 37.0676 128.844 36.7249 127.601 36.7249C126.359 36.7249 125.417 37.0676 124.774 37.753C124.174 38.3956 123.875 39.4237 123.875 40.8374V47.2631C123.875 48.6767 124.174 49.7262 124.774 50.4117C125.417 51.0542 126.359 51.3755 127.601 51.3755Z" fill="white"/>
<path d="M106.635 51.3755V61.9137H86.3298V51.3755H89.0286V40.8374C89.0286 39.4237 88.7287 38.3956 88.129 37.753C87.5292 37.0676 86.6296 36.7249 85.4302 36.7249C82.8599 36.7249 81.5748 38.0957 81.5748 40.8374V51.3755H84.2735V61.9137H63.9683V51.3755H66.7956V36.7249H63.9683V26.1868H81.5748V31.1988C84.6591 27.2577 88.5145 25.2872 93.141 25.2872C96.6966 25.2872 99.3525 26.401 101.109 28.6285C102.908 30.8561 103.808 33.919 103.808 37.8173V51.3755H106.635Z" fill="white"/>
<path d="M44.8389 22.6526V11.9217H57.9473V22.6526H44.8389ZM41.7545 61.9137V51.3755H44.5818V36.7249H41.7545V26.1868H59.3609V51.3755H62.1883V61.9137H41.7545Z" fill="white"/>
<path d="M1.28314 61.9137V51.3755H4.49599V22.4598H1.28314V11.9217H39.7088V28.5643H28.3354V22.4598H22.488V33.1265H32.1908V40.4518H22.488V51.3755H30.9056V61.9137H1.28314Z" fill="white"/>
<path d="M247.432 157.962C247.738 157.915 247.979 157.944 248.156 158.05C248.344 158.144 248.426 158.327 248.403 158.597C248.391 158.75 248.326 158.897 248.209 159.038C248.103 159.168 247.967 159.286 247.803 159.391C247.65 159.497 247.485 159.58 247.309 159.639C247.132 159.697 246.979 159.727 246.85 159.727C246.614 159.727 246.408 159.674 246.232 159.568C246.044 159.462 245.961 159.291 245.985 159.056C245.997 158.903 246.05 158.768 246.144 158.65C246.226 158.521 246.338 158.409 246.479 158.315C246.608 158.221 246.756 158.144 246.92 158.085C247.097 158.027 247.267 157.985 247.432 157.962Z" fill="white"/>
<path d="M243.567 157.962C243.873 157.915 244.114 157.944 244.291 158.05C244.479 158.144 244.561 158.327 244.538 158.597C244.526 158.75 244.461 158.897 244.344 159.038C244.238 159.168 244.102 159.286 243.938 159.391C243.785 159.497 243.62 159.58 243.443 159.639C243.267 159.697 243.114 159.727 242.985 159.727C242.749 159.727 242.543 159.674 242.367 159.568C242.179 159.462 242.096 159.291 242.12 159.056C242.132 158.903 242.184 158.768 242.279 158.65C242.361 158.521 242.473 158.409 242.614 158.315C242.743 158.221 242.89 158.144 243.055 158.085C243.232 158.027 243.402 157.985 243.567 157.962Z" fill="white"/>
<path d="M238.802 158.703C238.872 158.75 238.961 158.774 239.067 158.774C239.184 158.774 239.296 158.75 239.402 158.703C239.52 158.656 239.625 158.591 239.72 158.509C239.825 158.427 239.902 158.321 239.949 158.191C239.996 158.062 239.996 157.88 239.949 157.644C239.902 157.397 239.825 157.138 239.72 156.868C239.625 156.585 239.52 156.303 239.402 156.021C239.284 155.738 239.184 155.479 239.102 155.244C239.031 155.068 238.972 154.903 238.925 154.75C238.878 154.62 238.831 154.497 238.784 154.379C238.749 154.25 238.719 154.162 238.696 154.114C238.637 154.209 238.531 154.362 238.378 154.573C238.237 154.785 238.078 155.009 237.902 155.244C237.737 155.468 237.578 155.679 237.425 155.879C237.272 156.068 237.166 156.197 237.108 156.268C237.013 156.374 236.919 156.438 236.825 156.462C236.743 156.474 236.672 156.456 236.613 156.409C236.555 156.35 236.519 156.274 236.508 156.179C236.508 156.074 236.555 155.95 236.649 155.809C236.719 155.715 236.825 155.568 236.966 155.368C237.108 155.156 237.249 154.944 237.39 154.732C237.531 154.509 237.661 154.315 237.778 154.15C237.896 153.973 237.961 153.867 237.972 153.832C237.996 153.738 237.961 153.614 237.866 153.461C237.784 153.309 237.772 153.132 237.831 152.932C237.878 152.767 237.984 152.579 238.149 152.367C238.314 152.144 238.508 151.944 238.731 151.767C238.955 151.591 239.184 151.461 239.42 151.379C239.655 151.285 239.867 151.285 240.055 151.379C240.208 151.473 240.331 151.579 240.426 151.697C240.52 151.803 240.555 151.914 240.531 152.032C240.508 152.091 240.473 152.167 240.426 152.261C240.378 152.356 240.308 152.473 240.214 152.614C240.12 152.744 239.984 152.914 239.808 153.126C239.843 153.397 239.89 153.644 239.949 153.867C240.02 154.091 240.084 154.285 240.143 154.45C240.214 154.65 240.29 154.832 240.373 154.997C240.478 155.209 240.59 155.426 240.708 155.65C240.826 155.873 240.931 156.097 241.026 156.321C241.12 156.532 241.196 156.732 241.255 156.921C241.314 157.109 241.331 157.268 241.308 157.397C241.273 157.597 241.167 157.838 240.99 158.121C240.826 158.403 240.614 158.68 240.355 158.95C240.108 159.209 239.82 159.433 239.49 159.621C239.172 159.809 238.837 159.903 238.484 159.903C238.237 159.903 237.996 159.827 237.761 159.674C237.537 159.521 237.343 159.344 237.178 159.144C237.025 158.933 236.908 158.727 236.825 158.527C236.755 158.327 236.749 158.174 236.808 158.068C236.878 157.927 236.943 157.815 237.002 157.732C237.061 157.65 237.149 157.556 237.266 157.45C237.313 157.415 237.372 157.374 237.443 157.327C237.502 157.291 237.584 157.256 237.69 157.221C237.796 157.185 237.919 157.144 238.061 157.097C238.178 157.462 238.284 157.75 238.378 157.962C238.472 158.162 238.549 158.321 238.608 158.438C238.678 158.568 238.743 158.656 238.802 158.703Z" fill="white"/>
<path d="M237.372 154.838C237.419 154.767 237.478 154.726 237.549 154.715C237.631 154.691 237.696 154.697 237.743 154.732C237.79 154.767 237.813 154.826 237.813 154.909C237.825 154.991 237.796 155.103 237.725 155.244C237.49 155.691 237.178 156.174 236.79 156.691C236.413 157.209 236.013 157.697 235.59 158.156C235.166 158.603 234.754 158.974 234.354 159.268C233.954 159.562 233.619 159.709 233.348 159.709C232.96 159.709 232.637 159.633 232.378 159.48C232.119 159.327 231.913 159.138 231.76 158.915C231.619 158.691 231.519 158.45 231.46 158.191C231.401 157.921 231.383 157.674 231.407 157.45C231.419 157.262 231.46 156.927 231.531 156.444C231.601 155.95 231.695 155.385 231.813 154.75C231.931 154.103 232.06 153.414 232.201 152.685C232.354 151.944 232.513 151.232 232.678 150.549C232.478 150.573 232.278 150.597 232.078 150.62C231.878 150.644 231.695 150.655 231.531 150.655C231.154 150.655 230.801 150.614 230.472 150.532C230.13 150.438 229.877 150.349 229.713 150.267C229.619 150.22 229.577 150.155 229.589 150.073C229.601 149.979 229.636 149.891 229.695 149.808C229.754 149.714 229.83 149.638 229.925 149.579C230.007 149.508 230.083 149.473 230.154 149.473C230.377 149.496 230.619 149.52 230.878 149.543C231.136 149.555 231.419 149.555 231.725 149.543C231.948 149.532 232.16 149.514 232.36 149.491C232.572 149.467 232.778 149.438 232.978 149.402C233.131 148.838 233.278 148.349 233.419 147.937C233.572 147.514 233.707 147.22 233.825 147.055C233.86 146.996 233.937 146.949 234.054 146.914C234.184 146.867 234.319 146.837 234.46 146.826C234.601 146.802 234.737 146.802 234.866 146.826C234.996 146.837 235.09 146.879 235.149 146.949C235.207 147.043 235.231 147.284 235.219 147.673C235.207 148.061 235.143 148.555 235.025 149.155C235.519 149.155 235.954 149.185 236.331 149.243C236.719 149.291 237.049 149.349 237.319 149.42C237.59 149.479 237.808 149.543 237.972 149.614C238.137 149.673 238.261 149.714 238.343 149.738C238.425 149.761 238.466 149.82 238.466 149.914C238.478 150.008 238.461 150.108 238.414 150.214C238.378 150.308 238.314 150.391 238.219 150.461C238.125 150.532 238.019 150.555 237.902 150.532C237.784 150.52 237.649 150.497 237.496 150.461C237.355 150.426 237.178 150.396 236.966 150.373C236.766 150.349 236.525 150.326 236.243 150.302C235.96 150.279 235.631 150.267 235.254 150.267C235.184 150.267 235.101 150.273 235.007 150.285C234.925 150.285 234.837 150.285 234.743 150.285C234.696 150.473 234.648 150.661 234.601 150.849C234.566 151.026 234.513 151.214 234.443 151.414C234.29 151.885 234.113 152.397 233.913 152.95C233.737 153.432 233.525 153.985 233.278 154.609C233.031 155.232 232.754 155.897 232.448 156.603C232.378 157.109 232.384 157.497 232.466 157.768C232.56 158.027 232.672 158.215 232.801 158.333C232.954 158.462 233.142 158.533 233.366 158.544C233.542 158.568 233.754 158.509 234.001 158.368C234.26 158.215 234.525 158.015 234.796 157.768C235.066 157.521 235.337 157.25 235.607 156.956C235.89 156.662 236.149 156.374 236.384 156.091C236.619 155.809 236.825 155.556 237.002 155.332C237.178 155.097 237.302 154.932 237.372 154.838Z" fill="white"/>
<path d="M226.995 158.703C227.065 158.75 227.154 158.774 227.26 158.774C227.377 158.774 227.489 158.75 227.595 158.703C227.713 158.656 227.818 158.591 227.913 158.509C228.018 158.427 228.095 158.321 228.142 158.191C228.189 158.062 228.189 157.88 228.142 157.644C228.095 157.397 228.018 157.138 227.913 156.868C227.818 156.585 227.713 156.303 227.595 156.021C227.477 155.738 227.377 155.479 227.295 155.244C227.224 155.068 227.165 154.903 227.118 154.75C227.071 154.62 227.024 154.497 226.977 154.379C226.942 154.25 226.912 154.162 226.889 154.114C226.83 154.209 226.724 154.362 226.571 154.573C226.43 154.785 226.271 155.009 226.095 155.244C225.93 155.468 225.771 155.679 225.618 155.879C225.465 156.068 225.359 156.197 225.301 156.268C225.206 156.374 225.112 156.438 225.018 156.462C224.936 156.474 224.865 156.456 224.806 156.409C224.748 156.35 224.712 156.274 224.701 156.179C224.701 156.074 224.748 155.95 224.842 155.809C224.912 155.715 225.018 155.568 225.159 155.368C225.301 155.156 225.442 154.944 225.583 154.732C225.724 154.509 225.854 154.315 225.971 154.15C226.089 153.973 226.154 153.867 226.165 153.832C226.189 153.738 226.154 153.614 226.059 153.461C225.977 153.309 225.965 153.132 226.024 152.932C226.071 152.767 226.177 152.579 226.342 152.367C226.507 152.144 226.701 151.944 226.924 151.767C227.148 151.591 227.377 151.461 227.613 151.379C227.848 151.285 228.06 151.285 228.248 151.379C228.401 151.473 228.524 151.579 228.619 151.697C228.713 151.803 228.748 151.914 228.724 152.032C228.701 152.091 228.666 152.167 228.619 152.261C228.571 152.356 228.501 152.473 228.407 152.614C228.313 152.744 228.177 152.914 228.001 153.126C228.036 153.397 228.083 153.644 228.142 153.867C228.213 154.091 228.277 154.285 228.336 154.45C228.407 154.65 228.483 154.832 228.566 154.997C228.671 155.209 228.783 155.426 228.901 155.65C229.019 155.873 229.124 156.097 229.219 156.321C229.313 156.532 229.389 156.732 229.448 156.921C229.507 157.109 229.524 157.268 229.501 157.397C229.466 157.597 229.36 157.838 229.183 158.121C229.019 158.403 228.807 158.68 228.548 158.95C228.301 159.209 228.013 159.433 227.683 159.621C227.365 159.809 227.03 159.903 226.677 159.903C226.43 159.903 226.189 159.827 225.954 159.674C225.73 159.521 225.536 159.344 225.371 159.144C225.218 158.933 225.101 158.727 225.018 158.527C224.948 158.327 224.942 158.174 225.001 158.068C225.071 157.927 225.136 157.815 225.195 157.732C225.253 157.65 225.342 157.556 225.459 157.45C225.506 157.415 225.565 157.374 225.636 157.327C225.695 157.291 225.777 157.256 225.883 157.221C225.989 157.185 226.112 157.144 226.254 157.097C226.371 157.462 226.477 157.75 226.571 157.962C226.665 158.162 226.742 158.321 226.801 158.438C226.871 158.568 226.936 158.656 226.995 158.703Z" fill="white"/>
<path d="M223.43 148.908C223.394 149.038 223.324 149.167 223.218 149.296C223.124 149.414 223.012 149.514 222.883 149.596C222.765 149.667 222.641 149.714 222.512 149.738C222.383 149.761 222.277 149.738 222.194 149.667C221.947 149.479 221.818 149.279 221.806 149.067C221.794 148.843 221.847 148.638 221.965 148.449C222.083 148.249 222.23 148.085 222.406 147.955C222.583 147.814 222.736 147.732 222.865 147.708C222.994 147.684 223.1 147.714 223.183 147.796C223.277 147.867 223.347 147.967 223.394 148.096C223.442 148.214 223.465 148.349 223.465 148.502C223.477 148.655 223.465 148.79 223.43 148.908ZM220.994 152.667C221.053 152.597 221.165 152.538 221.33 152.491C221.494 152.444 221.665 152.408 221.841 152.385C222.018 152.35 222.177 152.332 222.318 152.332C222.471 152.32 222.559 152.32 222.583 152.332C222.594 152.344 222.565 152.467 222.494 152.703C222.424 152.938 222.336 153.214 222.23 153.532C222.124 153.85 222.012 154.179 221.894 154.52C221.777 154.85 221.688 155.12 221.63 155.332C221.571 155.544 221.5 155.785 221.418 156.056C221.335 156.315 221.259 156.574 221.188 156.832C221.13 157.079 221.088 157.315 221.065 157.538C221.041 157.762 221.059 157.933 221.118 158.05C221.177 158.191 221.241 158.291 221.312 158.35C221.383 158.397 221.459 158.421 221.541 158.421C221.777 158.421 222.071 158.291 222.424 158.033C222.789 157.774 223.153 157.468 223.518 157.115C223.895 156.75 224.242 156.385 224.559 156.021C224.877 155.644 225.112 155.344 225.265 155.12C225.359 155.003 225.454 154.926 225.548 154.891C225.654 154.856 225.736 154.862 225.795 154.909C225.865 154.956 225.901 155.032 225.901 155.138C225.912 155.244 225.877 155.368 225.795 155.509C225.606 155.838 225.33 156.232 224.965 156.691C224.6 157.138 224.212 157.574 223.8 157.997C223.389 158.409 222.983 158.762 222.583 159.056C222.194 159.35 221.877 159.503 221.63 159.515C221.43 159.527 221.23 159.491 221.03 159.409C220.841 159.339 220.665 159.239 220.5 159.109C220.347 158.968 220.218 158.809 220.112 158.633C220.006 158.444 219.947 158.25 219.935 158.05C219.9 157.756 219.9 157.356 219.935 156.85C219.971 156.332 220.035 155.809 220.129 155.279C220.224 154.738 220.341 154.226 220.482 153.744C220.635 153.261 220.806 152.903 220.994 152.667Z" fill="white"/>
<path d="M220.041 156.974C219.547 157.597 219.106 158.091 218.718 158.456C218.341 158.809 218.006 159.074 217.712 159.25C217.417 159.427 217.159 159.539 216.935 159.586C216.712 159.633 216.511 159.656 216.335 159.656C216.111 159.656 215.923 159.603 215.77 159.497C215.617 159.391 215.488 159.262 215.382 159.109C215.276 158.956 215.194 158.797 215.135 158.633C215.076 158.468 215.029 158.327 214.994 158.209C214.947 158.08 214.894 157.932 214.835 157.768C214.788 157.603 214.735 157.421 214.676 157.221C214.441 157.468 214.194 157.732 213.935 158.015C213.711 158.25 213.458 158.521 213.176 158.827C212.894 159.121 212.605 159.421 212.311 159.727C212.205 159.75 212.111 159.75 212.029 159.727C211.946 159.703 211.876 159.68 211.817 159.656C211.746 159.621 211.688 159.58 211.64 159.533C211.605 159.497 211.57 159.456 211.535 159.409C211.511 159.374 211.487 159.333 211.464 159.286C211.429 159.227 211.417 159.168 211.429 159.109C211.77 158.721 212.105 158.338 212.435 157.962C212.776 157.574 213.082 157.227 213.352 156.921C213.658 156.568 213.952 156.226 214.235 155.897C214.07 155.45 213.923 155.032 213.794 154.644C213.664 154.256 213.57 153.979 213.511 153.814C213.394 153.473 213.288 153.191 213.194 152.967C213.111 152.744 212.964 152.585 212.752 152.491C212.894 152.361 213.029 152.261 213.158 152.191C213.299 152.108 213.423 152.05 213.529 152.014C213.658 151.967 213.77 151.944 213.864 151.944C214.135 151.944 214.37 152.185 214.57 152.667C214.782 153.138 214.994 153.791 215.205 154.626C215.205 154.662 215.217 154.703 215.241 154.75C215.488 154.456 215.723 154.179 215.947 153.92C216.182 153.662 216.382 153.432 216.547 153.232C216.723 153.032 216.864 152.873 216.97 152.756C217.076 152.638 217.141 152.567 217.165 152.544C217.4 152.273 217.612 152.12 217.8 152.085C217.988 152.05 218.159 152.091 218.312 152.208C218.382 152.255 218.459 152.303 218.541 152.35C218.694 152.444 218.876 152.532 219.088 152.614C218.888 152.803 218.665 153.02 218.418 153.267C218.182 153.503 217.959 153.732 217.747 153.956C217.5 154.214 217.253 154.473 217.006 154.732C216.829 154.909 216.617 155.126 216.37 155.385C216.135 155.644 215.882 155.926 215.611 156.232C215.694 156.526 215.782 156.803 215.876 157.062C215.97 157.321 216.064 157.55 216.159 157.75C216.264 157.95 216.37 158.109 216.476 158.227C216.582 158.344 216.694 158.403 216.812 158.403C217 158.403 217.212 158.356 217.447 158.262C217.682 158.156 217.929 158.015 218.188 157.838C218.447 157.662 218.706 157.456 218.965 157.221C219.235 156.985 219.5 156.738 219.759 156.479C219.853 156.385 219.941 156.332 220.024 156.321C220.118 156.309 220.182 156.326 220.218 156.374C220.253 156.421 220.259 156.497 220.235 156.603C220.224 156.709 220.159 156.832 220.041 156.974Z" fill="white"/>
<path d="M213.599 155.632C213.246 156.15 212.846 156.656 212.399 157.15C211.952 157.632 211.476 158.068 210.97 158.456C210.476 158.833 209.964 159.138 209.434 159.374C208.917 159.609 208.411 159.727 207.917 159.727C207.658 159.727 207.375 159.662 207.069 159.533C206.775 159.415 206.505 159.227 206.258 158.968C206.01 158.709 205.81 158.374 205.657 157.962C205.516 157.55 205.475 157.05 205.534 156.462C205.581 155.979 205.728 155.473 205.975 154.944C206.234 154.403 206.546 153.909 206.911 153.461C207.287 153.014 207.705 152.644 208.164 152.35C208.634 152.055 209.105 151.908 209.576 151.908C210.023 151.908 210.346 152.02 210.546 152.244C210.746 152.467 210.834 152.744 210.811 153.073C210.776 153.438 210.67 153.773 210.493 154.079C210.329 154.385 210.128 154.662 209.893 154.909C209.658 155.156 209.405 155.379 209.134 155.579C208.875 155.779 208.628 155.962 208.393 156.126C208.134 156.303 207.887 156.474 207.652 156.638C207.416 156.791 207.211 156.932 207.034 157.062C207.046 157.356 207.099 157.603 207.193 157.803C207.287 158.003 207.405 158.168 207.546 158.297C207.687 158.415 207.846 158.503 208.022 158.562C208.211 158.609 208.399 158.633 208.587 158.633C208.987 158.633 209.405 158.509 209.84 158.262C210.276 158.003 210.699 157.697 211.111 157.344C211.535 156.979 211.923 156.603 212.276 156.215C212.641 155.826 212.941 155.491 213.176 155.209C213.258 155.115 213.341 155.062 213.423 155.05C213.517 155.026 213.588 155.038 213.635 155.085C213.694 155.12 213.723 155.191 213.723 155.297C213.723 155.391 213.682 155.503 213.599 155.632ZM209.081 152.914C208.94 152.914 208.77 152.985 208.57 153.126C208.381 153.267 208.193 153.473 208.005 153.744C207.817 154.003 207.64 154.326 207.475 154.715C207.311 155.091 207.187 155.526 207.105 156.021C207.246 155.915 207.399 155.809 207.564 155.703C207.728 155.585 207.893 155.462 208.058 155.332C208.564 154.944 208.917 154.603 209.117 154.309C209.317 154.014 209.428 153.762 209.452 153.55C209.475 153.326 209.452 153.167 209.381 153.073C209.311 152.967 209.211 152.914 209.081 152.914Z" fill="white"/>
<path d="M201.81 155.632C201.457 156.15 201.057 156.656 200.61 157.15C200.163 157.632 199.686 158.068 199.18 158.456C198.686 158.833 198.174 159.138 197.645 159.374C197.127 159.609 196.621 159.727 196.127 159.727C195.868 159.727 195.586 159.662 195.28 159.533C194.986 159.415 194.715 159.227 194.468 158.968C194.221 158.709 194.021 158.374 193.868 157.962C193.727 157.55 193.686 157.05 193.745 156.462C193.792 155.979 193.939 155.473 194.186 154.944C194.445 154.403 194.757 153.909 195.121 153.461C195.498 153.014 195.915 152.644 196.374 152.35C196.845 152.055 197.316 151.908 197.786 151.908C198.233 151.908 198.557 152.02 198.757 152.244C198.957 152.467 199.045 152.744 199.022 153.073C198.986 153.438 198.88 153.773 198.704 154.079C198.539 154.385 198.339 154.662 198.104 154.909C197.869 155.156 197.616 155.379 197.345 155.579C197.086 155.779 196.839 155.962 196.604 156.126C196.345 156.303 196.098 156.474 195.862 156.638C195.627 156.791 195.421 156.932 195.245 157.062C195.257 157.356 195.309 157.603 195.404 157.803C195.498 158.003 195.615 158.168 195.757 158.297C195.898 158.415 196.057 158.503 196.233 158.562C196.421 158.609 196.61 158.633 196.798 158.633C197.198 158.633 197.616 158.509 198.051 158.262C198.486 158.003 198.91 157.697 199.322 157.344C199.745 156.979 200.133 156.603 200.486 156.215C200.851 155.826 201.151 155.491 201.387 155.209C201.469 155.115 201.551 155.062 201.634 155.05C201.728 155.026 201.798 155.038 201.845 155.085C201.904 155.12 201.934 155.191 201.934 155.297C201.934 155.391 201.892 155.503 201.81 155.632ZM197.292 152.914C197.151 152.914 196.98 152.985 196.78 153.126C196.592 153.267 196.404 153.473 196.215 153.744C196.027 154.003 195.851 154.326 195.686 154.715C195.521 155.091 195.398 155.526 195.315 156.021C195.457 155.915 195.61 155.809 195.774 155.703C195.939 155.585 196.104 155.462 196.268 155.332C196.774 154.944 197.127 154.603 197.327 154.309C197.527 154.014 197.639 153.762 197.663 153.55C197.686 153.326 197.663 153.167 197.592 153.073C197.521 152.967 197.421 152.914 197.292 152.914Z" fill="white"/>
<path d="M184.391 166.839C184.308 166.804 184.226 166.751 184.144 166.68C184.073 166.622 184.003 166.545 183.932 166.451C183.861 166.369 183.803 166.263 183.755 166.133C184.085 164.874 184.367 163.78 184.603 162.851C184.826 161.921 185.02 161.145 185.185 160.521C185.362 159.791 185.514 159.18 185.644 158.685C185.762 158.215 185.879 157.744 185.997 157.274C186.091 156.862 186.191 156.421 186.297 155.95C186.415 155.479 186.52 155.038 186.615 154.626C186.732 154.167 186.803 153.803 186.826 153.532C186.85 153.25 186.762 153.008 186.562 152.808C186.703 152.691 186.844 152.603 186.985 152.544C187.138 152.473 187.273 152.426 187.391 152.403C187.521 152.367 187.65 152.355 187.779 152.367C188.097 152.391 188.291 152.491 188.362 152.667C188.444 152.844 188.456 153.126 188.397 153.514C188.385 153.573 188.374 153.626 188.362 153.673C188.362 153.709 188.362 153.75 188.362 153.797C188.527 153.609 188.709 153.426 188.909 153.25C189.109 153.073 189.309 152.914 189.509 152.773C189.721 152.632 189.933 152.52 190.144 152.438C190.368 152.344 190.58 152.297 190.78 152.297C191.05 152.297 191.268 152.367 191.433 152.508C191.609 152.638 191.744 152.814 191.839 153.038C191.933 153.261 191.992 153.514 192.015 153.797C192.039 154.067 192.045 154.338 192.033 154.609C192.021 154.903 191.968 155.215 191.874 155.544C191.792 155.873 191.674 156.209 191.521 156.55C191.368 156.891 191.191 157.227 190.991 157.556C190.791 157.885 190.58 158.191 190.356 158.474C190.403 158.485 190.433 158.497 190.444 158.509C190.456 158.509 190.462 158.515 190.462 158.527C190.462 158.527 190.468 158.533 190.48 158.544C190.503 158.544 190.544 158.544 190.603 158.544C190.874 158.544 191.15 158.474 191.433 158.333C191.715 158.191 191.992 158.015 192.262 157.803C192.533 157.58 192.792 157.338 193.039 157.079C193.298 156.821 193.527 156.574 193.727 156.338C193.939 156.091 194.115 155.873 194.256 155.685C194.398 155.485 194.504 155.344 194.574 155.262C194.668 155.144 194.757 155.068 194.839 155.032C194.921 154.985 194.986 154.979 195.033 155.015C195.08 155.05 195.104 155.12 195.104 155.226C195.104 155.32 195.068 155.444 194.998 155.597C194.951 155.703 194.851 155.873 194.698 156.109C194.545 156.344 194.356 156.609 194.133 156.903C193.909 157.197 193.651 157.503 193.356 157.821C193.074 158.138 192.774 158.427 192.456 158.685C192.139 158.944 191.809 159.156 191.468 159.321C191.139 159.497 190.815 159.586 190.497 159.586C190.344 159.586 190.221 159.58 190.127 159.568C190.033 159.556 189.95 159.533 189.88 159.497C189.821 159.474 189.762 159.444 189.703 159.409C189.644 159.386 189.574 159.356 189.491 159.321C189.28 159.486 189.062 159.609 188.838 159.691C188.615 159.786 188.397 159.833 188.185 159.833C187.985 159.833 187.809 159.797 187.656 159.727C187.515 159.668 187.397 159.58 187.303 159.462C187.209 159.356 187.132 159.238 187.073 159.109C187.015 158.968 186.968 158.833 186.932 158.703C186.92 158.75 186.909 158.791 186.897 158.827C186.897 158.862 186.891 158.909 186.879 158.968C186.738 159.533 186.591 160.186 186.438 160.927C186.309 161.562 186.15 162.333 185.962 163.239C185.785 164.157 185.597 165.198 185.397 166.363C185.326 166.68 185.203 166.863 185.026 166.91C184.838 166.957 184.626 166.933 184.391 166.839ZM187.621 155.897C187.562 156.097 187.497 156.332 187.426 156.603C187.368 156.862 187.297 157.174 187.215 157.538C187.309 157.468 187.415 157.415 187.532 157.379C187.65 157.344 187.768 157.327 187.885 157.327C188.015 157.327 188.179 157.397 188.379 157.538C188.579 157.668 188.821 157.809 189.103 157.962C189.28 157.75 189.462 157.515 189.65 157.256C189.85 156.985 190.027 156.709 190.18 156.426C190.344 156.144 190.48 155.856 190.586 155.562C190.703 155.268 190.768 154.985 190.78 154.715C190.803 154.362 190.762 154.085 190.656 153.885C190.55 153.685 190.374 153.585 190.127 153.585C189.762 153.585 189.362 153.803 188.927 154.238C188.503 154.662 188.068 155.215 187.621 155.897Z" fill="white"/>
<path d="M183.773 156.497C183.655 156.944 183.497 157.362 183.297 157.75C183.097 158.138 182.855 158.474 182.573 158.756C182.302 159.038 181.991 159.256 181.638 159.409C181.296 159.574 180.92 159.656 180.508 159.656C180.026 159.656 179.643 159.55 179.361 159.338C179.09 159.138 178.884 158.886 178.743 158.58C178.614 158.274 178.537 157.938 178.514 157.574C178.479 157.209 178.461 156.868 178.461 156.55C178.461 156.326 178.49 156.079 178.549 155.809C178.596 155.538 178.667 155.262 178.761 154.979C178.855 154.697 178.973 154.415 179.114 154.132C179.267 153.85 179.443 153.591 179.643 153.356C179.714 153.156 179.82 152.979 179.961 152.826C180.114 152.673 180.285 152.55 180.473 152.455C180.673 152.35 180.885 152.273 181.108 152.226C181.332 152.167 181.549 152.138 181.761 152.138C181.796 152.138 181.826 152.144 181.849 152.155C181.885 152.167 181.92 152.179 181.955 152.191C182.108 152.203 182.297 152.261 182.52 152.367C182.755 152.473 182.979 152.632 183.191 152.844C183.414 153.056 183.603 153.326 183.755 153.656C183.908 153.973 183.985 154.362 183.985 154.82C183.985 154.915 183.979 155.032 183.967 155.173C183.956 155.303 183.944 155.415 183.932 155.509C184.203 155.403 184.485 155.273 184.779 155.12C185.073 154.967 185.356 154.809 185.626 154.644C185.909 154.467 186.167 154.291 186.403 154.114C186.638 153.938 186.826 153.779 186.968 153.638C187.085 153.532 187.185 153.473 187.268 153.461C187.35 153.45 187.409 153.473 187.444 153.532C187.479 153.591 187.485 153.673 187.462 153.779C187.438 153.885 187.373 154.003 187.268 154.132C187.209 154.203 187.056 154.344 186.809 154.556C186.573 154.767 186.291 154.997 185.962 155.244C185.632 155.491 185.273 155.732 184.885 155.968C184.497 156.203 184.126 156.379 183.773 156.497ZM180.791 153.814C180.755 153.92 180.738 154.032 180.738 154.15C180.738 154.338 180.749 154.538 180.773 154.75C180.796 154.95 180.855 155.132 180.949 155.297C181.043 155.462 181.191 155.603 181.391 155.721C181.602 155.826 181.891 155.879 182.255 155.879C182.314 155.879 182.373 155.879 182.432 155.879C182.491 155.868 182.549 155.856 182.608 155.844C182.644 155.691 182.673 155.556 182.697 155.438C182.732 155.309 182.75 155.197 182.75 155.103C182.773 154.879 182.773 154.65 182.75 154.415C182.726 154.179 182.679 153.967 182.608 153.779C182.549 153.579 182.467 153.42 182.361 153.303C182.267 153.173 182.149 153.108 182.008 153.108C181.785 153.108 181.567 153.173 181.355 153.303C181.155 153.42 180.967 153.591 180.791 153.814ZM179.661 156.921C179.661 157.132 179.673 157.344 179.696 157.556C179.72 157.756 179.767 157.938 179.837 158.103C179.908 158.256 180.002 158.385 180.12 158.491C180.238 158.585 180.39 158.633 180.579 158.633C180.791 158.633 180.985 158.585 181.161 158.491C181.338 158.385 181.496 158.256 181.638 158.103C181.779 157.938 181.902 157.756 182.008 157.556C182.126 157.344 182.226 157.127 182.308 156.903C182.226 156.915 182.144 156.927 182.061 156.938C181.991 156.938 181.908 156.938 181.814 156.938C181.367 156.938 180.979 156.809 180.649 156.55C180.332 156.279 180.085 155.938 179.908 155.526C179.837 155.773 179.779 156.015 179.732 156.25C179.685 156.485 179.661 156.709 179.661 156.921Z" fill="white"/>
<path d="M179.237 155.421C179.32 155.326 179.402 155.279 179.484 155.279C179.579 155.268 179.649 155.291 179.696 155.35C179.755 155.397 179.779 155.473 179.767 155.579C179.767 155.685 179.72 155.803 179.626 155.932C179.402 156.238 179.143 156.556 178.849 156.885C178.555 157.203 178.237 157.515 177.896 157.821C177.567 158.127 177.231 158.415 176.89 158.686C176.549 158.956 176.219 159.18 175.902 159.356C175.549 159.556 175.249 159.656 175.002 159.656C174.766 159.656 174.531 159.503 174.296 159.197C174.084 158.927 173.978 158.638 173.978 158.333C173.99 158.015 174.06 157.621 174.19 157.15C174.272 156.856 174.384 156.509 174.525 156.109C174.678 155.697 174.796 155.303 174.878 154.926C174.972 154.55 175.002 154.232 174.966 153.973C174.931 153.703 174.778 153.567 174.508 153.567C174.319 153.567 174.113 153.632 173.89 153.762C173.678 153.891 173.46 154.062 173.237 154.273C173.025 154.473 172.819 154.703 172.619 154.962C172.419 155.22 172.243 155.473 172.09 155.721C171.996 156.179 171.901 156.632 171.807 157.079C171.725 157.456 171.637 157.868 171.543 158.315C171.46 158.75 171.378 159.138 171.295 159.48C171.225 159.539 171.148 159.58 171.066 159.603C170.984 159.627 170.907 159.639 170.837 159.639C170.754 159.639 170.672 159.633 170.59 159.621C170.495 159.597 170.407 159.562 170.325 159.515C170.254 159.468 170.184 159.403 170.113 159.321C170.042 159.25 169.989 159.15 169.954 159.021C170.484 156.844 170.901 155.097 171.207 153.779C171.513 152.461 171.748 151.455 171.913 150.761C172.101 149.938 172.231 149.367 172.301 149.049C172.337 148.826 172.366 148.608 172.39 148.396C172.413 148.208 172.425 148.014 172.425 147.814C172.425 147.614 172.407 147.432 172.372 147.267C172.466 147.208 172.566 147.161 172.672 147.126C172.79 147.09 172.901 147.061 173.007 147.037C173.137 147.002 173.266 146.973 173.396 146.949C173.525 146.926 173.643 146.914 173.749 146.914C173.843 146.914 173.931 146.926 174.013 146.949C174.096 146.961 174.149 146.996 174.172 147.055C174.243 147.114 174.272 147.231 174.26 147.408C174.26 147.584 174.249 147.767 174.225 147.955C174.178 148.179 174.125 148.42 174.066 148.679C173.819 149.632 173.543 150.561 173.237 151.467C172.931 152.361 172.649 153.32 172.39 154.344C172.543 154.109 172.725 153.867 172.937 153.62C173.149 153.373 173.378 153.15 173.625 152.95C173.884 152.738 174.155 152.567 174.437 152.438C174.719 152.297 175.019 152.226 175.337 152.226C175.502 152.226 175.655 152.255 175.796 152.314C175.949 152.361 176.078 152.45 176.184 152.579C176.302 152.697 176.39 152.861 176.449 153.073C176.508 153.273 176.531 153.526 176.519 153.832C176.519 154.02 176.496 154.215 176.449 154.415C176.414 154.615 176.361 154.838 176.29 155.085C176.219 155.32 176.125 155.585 176.008 155.879C175.902 156.174 175.772 156.515 175.619 156.903C175.514 157.174 175.431 157.403 175.372 157.591C175.313 157.78 175.325 157.944 175.408 158.085C175.514 158.274 175.719 158.321 176.025 158.227C176.343 158.121 176.814 157.815 177.437 157.309C177.578 157.191 177.737 157.044 177.914 156.868C178.09 156.691 178.261 156.515 178.426 156.338C178.59 156.15 178.743 155.973 178.884 155.809C179.026 155.644 179.143 155.515 179.237 155.421Z" fill="white"/>
<path d="M166.336 155.632C165.983 156.15 165.583 156.656 165.136 157.15C164.689 157.632 164.212 158.068 163.707 158.456C163.212 158.833 162.701 159.138 162.171 159.374C161.653 159.609 161.147 159.727 160.653 159.727C160.394 159.727 160.112 159.662 159.806 159.533C159.512 159.415 159.241 159.227 158.994 158.968C158.747 158.709 158.547 158.374 158.394 157.962C158.253 157.55 158.212 157.05 158.271 156.462C158.318 155.979 158.465 155.473 158.712 154.944C158.971 154.403 159.283 153.909 159.647 153.461C160.024 153.014 160.441 152.644 160.9 152.35C161.371 152.055 161.842 151.908 162.312 151.908C162.759 151.908 163.083 152.02 163.283 152.244C163.483 152.467 163.571 152.744 163.548 153.073C163.512 153.438 163.406 153.773 163.23 154.079C163.065 154.385 162.865 154.662 162.63 154.909C162.395 155.156 162.142 155.379 161.871 155.579C161.612 155.779 161.365 155.962 161.13 156.126C160.871 156.303 160.624 156.474 160.389 156.638C160.153 156.791 159.947 156.932 159.771 157.062C159.783 157.356 159.836 157.603 159.93 157.803C160.024 158.003 160.141 158.168 160.283 158.297C160.424 158.415 160.583 158.503 160.759 158.562C160.947 158.609 161.136 158.633 161.324 158.633C161.724 158.633 162.142 158.509 162.577 158.262C163.012 158.003 163.436 157.697 163.848 157.344C164.271 156.979 164.66 156.603 165.013 156.215C165.377 155.826 165.677 155.491 165.913 155.209C165.995 155.115 166.077 155.062 166.16 155.05C166.254 155.026 166.324 155.038 166.371 155.085C166.43 155.12 166.46 155.191 166.46 155.297C166.46 155.391 166.419 155.503 166.336 155.632ZM161.818 152.914C161.677 152.914 161.506 152.985 161.306 153.126C161.118 153.267 160.93 153.473 160.742 153.744C160.553 154.003 160.377 154.326 160.212 154.715C160.047 155.091 159.924 155.526 159.841 156.021C159.983 155.915 160.136 155.809 160.3 155.703C160.465 155.585 160.63 155.462 160.794 155.332C161.3 154.944 161.653 154.603 161.853 154.309C162.053 154.014 162.165 153.762 162.189 153.55C162.212 153.326 162.189 153.167 162.118 153.073C162.048 152.967 161.948 152.914 161.818 152.914Z" fill="white"/>
<path d="M150.329 159.215C150.246 159.344 150.158 159.427 150.064 159.462C149.958 159.509 149.87 159.515 149.799 159.48C149.717 159.456 149.664 159.397 149.64 159.303C149.617 159.209 149.64 159.091 149.711 158.95C149.746 158.88 149.829 158.721 149.958 158.474C150.076 158.227 150.223 157.932 150.399 157.591C150.564 157.238 150.746 156.862 150.946 156.462C151.147 156.05 151.335 155.662 151.511 155.297C151.699 154.932 151.87 154.609 152.023 154.326C152.176 154.032 152.288 153.82 152.358 153.691C152.229 153.573 152.141 153.491 152.094 153.444C152.047 153.385 152.011 153.267 151.988 153.091C151.964 152.938 152 152.738 152.094 152.491C152.188 152.244 152.311 152.008 152.464 151.785C152.617 151.55 152.788 151.35 152.976 151.185C153.164 151.02 153.347 150.938 153.523 150.938C153.853 150.938 154.082 151.044 154.211 151.255C154.353 151.467 154.435 151.685 154.459 151.908C154.482 152.061 154.47 152.255 154.423 152.491C154.376 152.726 154.288 152.938 154.159 153.126C154.194 153.15 154.241 153.179 154.3 153.214C154.359 153.238 154.453 153.25 154.582 153.25C154.77 153.25 154.9 153.238 154.97 153.214C155.053 153.191 155.176 153.179 155.341 153.179C155.541 153.179 155.706 153.232 155.835 153.338C155.965 153.432 156.07 153.556 156.153 153.709C156.235 153.85 156.294 154.009 156.329 154.185C156.376 154.35 156.406 154.503 156.418 154.644C156.453 154.938 156.376 155.244 156.188 155.562C156 155.879 155.77 156.226 155.5 156.603C155.335 156.838 155.17 157.103 155.006 157.397C154.841 157.691 154.77 157.956 154.794 158.191C154.817 158.344 154.859 158.468 154.917 158.562C154.976 158.656 155.141 158.703 155.412 158.703C155.612 158.703 155.829 158.633 156.065 158.491C156.312 158.338 156.559 158.15 156.806 157.927C157.065 157.691 157.318 157.438 157.565 157.168C157.812 156.885 158.041 156.615 158.253 156.356C158.465 156.085 158.641 155.844 158.783 155.632C158.935 155.42 159.047 155.268 159.118 155.173C159.177 155.079 159.253 155.015 159.347 154.979C159.441 154.944 159.524 154.944 159.594 154.979C159.665 155.015 159.706 155.085 159.718 155.191C159.741 155.297 159.7 155.438 159.594 155.615C159.524 155.732 159.4 155.921 159.224 156.179C159.059 156.438 158.853 156.726 158.606 157.044C158.371 157.362 158.106 157.691 157.812 158.032C157.518 158.362 157.206 158.668 156.876 158.95C156.559 159.221 156.235 159.444 155.906 159.621C155.588 159.797 155.282 159.886 154.988 159.886C154.682 159.886 154.429 159.827 154.229 159.709C154.029 159.591 153.864 159.45 153.735 159.286C153.617 159.109 153.529 158.921 153.47 158.721C153.423 158.509 153.406 158.315 153.417 158.138C153.429 157.997 153.464 157.85 153.523 157.697C153.594 157.532 153.67 157.368 153.753 157.203C153.847 157.027 153.941 156.856 154.035 156.691C154.141 156.515 154.235 156.344 154.317 156.179C154.517 155.838 154.676 155.55 154.794 155.315C154.923 155.068 154.988 154.862 154.988 154.697C154.988 154.591 154.965 154.497 154.917 154.415C154.87 154.332 154.794 154.291 154.688 154.291C154.617 154.291 154.564 154.297 154.529 154.309C154.506 154.309 154.476 154.309 154.441 154.309C154.417 154.309 154.376 154.315 154.317 154.326C154.27 154.326 154.194 154.326 154.088 154.326C153.935 154.326 153.806 154.303 153.7 154.256C153.594 154.209 153.494 154.173 153.4 154.15C153.353 154.232 153.247 154.409 153.082 154.679C152.917 154.95 152.723 155.268 152.5 155.632C152.288 155.997 152.058 156.379 151.811 156.779C151.576 157.179 151.352 157.556 151.141 157.909C150.929 158.25 150.752 158.544 150.611 158.791C150.458 159.027 150.364 159.168 150.329 159.215Z" fill="white"/>
<path d="M152.27 155.632C151.917 156.15 151.517 156.656 151.07 157.15C150.623 157.632 150.146 158.068 149.64 158.456C149.146 158.833 148.634 159.138 148.105 159.374C147.587 159.609 147.081 159.727 146.587 159.727C146.328 159.727 146.046 159.662 145.74 159.533C145.446 159.415 145.175 159.227 144.928 158.968C144.681 158.709 144.481 158.374 144.328 157.962C144.187 157.55 144.146 157.05 144.205 156.462C144.252 155.979 144.399 155.473 144.646 154.944C144.905 154.403 145.217 153.909 145.581 153.461C145.958 153.014 146.375 152.644 146.834 152.35C147.305 152.055 147.776 151.908 148.246 151.908C148.693 151.908 149.017 152.02 149.217 152.244C149.417 152.467 149.505 152.744 149.482 153.073C149.446 153.438 149.34 153.773 149.164 154.079C148.999 154.385 148.799 154.662 148.564 154.909C148.329 155.156 148.076 155.379 147.805 155.579C147.546 155.779 147.299 155.962 147.064 156.126C146.805 156.303 146.558 156.474 146.323 156.638C146.087 156.791 145.881 156.932 145.705 157.062C145.717 157.356 145.77 157.603 145.864 157.803C145.958 158.003 146.075 158.168 146.217 158.297C146.358 158.415 146.517 158.503 146.693 158.562C146.881 158.609 147.07 158.633 147.258 158.633C147.658 158.633 148.076 158.509 148.511 158.262C148.946 158.003 149.37 157.697 149.782 157.344C150.205 156.979 150.594 156.603 150.946 156.215C151.311 155.826 151.611 155.491 151.847 155.209C151.929 155.115 152.011 155.062 152.094 155.05C152.188 155.026 152.258 155.038 152.305 155.085C152.364 155.12 152.394 155.191 152.394 155.297C152.394 155.391 152.352 155.503 152.27 155.632ZM147.752 152.914C147.611 152.914 147.44 152.985 147.24 153.126C147.052 153.267 146.864 153.473 146.675 153.744C146.487 154.003 146.311 154.326 146.146 154.715C145.981 155.091 145.858 155.526 145.775 156.021C145.917 155.915 146.07 155.809 146.234 155.703C146.399 155.585 146.564 155.462 146.728 155.332C147.234 154.944 147.587 154.603 147.787 154.309C147.987 154.014 148.099 153.762 148.123 153.55C148.146 153.326 148.123 153.167 148.052 153.073C147.981 152.967 147.881 152.914 147.752 152.914Z" fill="white"/>
<path d="M144.964 155.421C145.046 155.326 145.128 155.279 145.211 155.279C145.305 155.268 145.375 155.291 145.422 155.35C145.481 155.397 145.505 155.473 145.493 155.579C145.493 155.685 145.446 155.803 145.352 155.932C145.128 156.238 144.869 156.556 144.575 156.885C144.281 157.203 143.963 157.515 143.622 157.821C143.293 158.127 142.958 158.415 142.616 158.686C142.275 158.956 141.946 159.18 141.628 159.356C141.275 159.556 140.975 159.656 140.728 159.656C140.493 159.656 140.257 159.503 140.022 159.197C139.81 158.927 139.704 158.638 139.704 158.333C139.716 158.015 139.787 157.621 139.916 157.15C139.998 156.856 140.11 156.509 140.251 156.109C140.404 155.697 140.522 155.303 140.604 154.926C140.698 154.55 140.728 154.232 140.693 153.973C140.657 153.703 140.504 153.567 140.234 153.567C140.045 153.567 139.84 153.632 139.616 153.762C139.404 153.891 139.187 154.062 138.963 154.273C138.751 154.473 138.545 154.703 138.345 154.962C138.145 155.22 137.969 155.473 137.816 155.721C137.722 156.179 137.628 156.632 137.533 157.079C137.451 157.456 137.363 157.868 137.269 158.315C137.186 158.75 137.104 159.138 137.022 159.48C136.951 159.539 136.875 159.58 136.792 159.603C136.71 159.627 136.633 159.639 136.563 159.639C136.48 159.639 136.398 159.633 136.316 159.621C136.222 159.597 136.133 159.562 136.051 159.515C135.98 159.468 135.91 159.403 135.839 159.321C135.769 159.25 135.716 159.15 135.68 159.021C136.21 156.844 136.628 155.097 136.933 153.779C137.239 152.461 137.475 151.455 137.639 150.761C137.828 149.938 137.957 149.367 138.028 149.049C138.063 148.826 138.092 148.608 138.116 148.396C138.139 148.208 138.151 148.014 138.151 147.814C138.151 147.614 138.134 147.432 138.098 147.267C138.192 147.208 138.292 147.161 138.398 147.126C138.516 147.09 138.628 147.061 138.734 147.037C138.863 147.002 138.992 146.973 139.122 146.949C139.251 146.926 139.369 146.914 139.475 146.914C139.569 146.914 139.657 146.926 139.74 146.949C139.822 146.961 139.875 146.996 139.898 147.055C139.969 147.114 139.998 147.231 139.987 147.408C139.987 147.584 139.975 147.767 139.951 147.955C139.904 148.179 139.851 148.42 139.793 148.679C139.545 149.632 139.269 150.561 138.963 151.467C138.657 152.361 138.375 153.32 138.116 154.344C138.269 154.109 138.451 153.867 138.663 153.62C138.875 153.373 139.104 153.15 139.351 152.95C139.61 152.738 139.881 152.567 140.163 152.438C140.446 152.297 140.746 152.226 141.063 152.226C141.228 152.226 141.381 152.255 141.522 152.314C141.675 152.361 141.804 152.45 141.91 152.579C142.028 152.697 142.116 152.861 142.175 153.073C142.234 153.273 142.257 153.526 142.246 153.832C142.246 154.02 142.222 154.215 142.175 154.415C142.14 154.615 142.087 154.838 142.016 155.085C141.946 155.32 141.852 155.585 141.734 155.879C141.628 156.174 141.499 156.515 141.346 156.903C141.24 157.174 141.157 157.403 141.099 157.591C141.04 157.78 141.051 157.944 141.134 158.085C141.24 158.274 141.446 158.321 141.752 158.227C142.069 158.121 142.54 157.815 143.163 157.309C143.305 157.191 143.463 157.044 143.64 156.868C143.816 156.691 143.987 156.515 144.152 156.338C144.316 156.15 144.469 155.973 144.611 155.809C144.752 155.644 144.869 155.515 144.964 155.421Z" fill="white"/>
<path d="M123.626 162.674C123.285 162.674 122.967 162.521 122.673 162.215C122.391 161.921 122.156 161.492 121.967 160.927C121.791 160.374 121.661 159.691 121.579 158.88C121.508 158.056 121.514 157.121 121.597 156.073C121.644 155.379 121.738 154.673 121.879 153.956C122.02 153.226 122.179 152.526 122.356 151.855C122.532 151.173 122.72 150.532 122.92 149.932C123.12 149.332 123.303 148.802 123.467 148.343C123.644 147.873 123.785 147.496 123.891 147.214C124.009 146.931 124.079 146.767 124.103 146.72C124.138 146.661 124.203 146.602 124.297 146.543C124.403 146.473 124.52 146.414 124.65 146.367C124.791 146.32 124.938 146.284 125.091 146.261C125.256 146.225 125.409 146.208 125.55 146.208C125.668 146.208 125.779 146.214 125.885 146.225C125.979 146.237 126.074 146.255 126.168 146.278C126.262 146.302 126.344 146.337 126.415 146.384C126.285 146.467 126.156 146.596 126.027 146.773C125.909 146.937 125.797 147.114 125.691 147.302C125.562 147.514 125.444 147.743 125.338 147.99C125.103 148.485 124.856 149.085 124.597 149.791C124.338 150.496 124.091 151.249 123.856 152.05C123.632 152.838 123.432 153.644 123.256 154.467C123.091 155.279 122.979 156.044 122.92 156.762C122.826 158.209 122.879 159.286 123.079 159.991C123.279 160.709 123.562 161.068 123.926 161.068C124.103 161.068 124.291 160.956 124.491 160.733C124.691 160.509 124.891 160.221 125.091 159.868C125.303 159.515 125.509 159.121 125.709 158.685C125.909 158.25 126.097 157.821 126.274 157.397C126.379 157.127 126.491 156.826 126.609 156.497C126.738 156.156 126.862 155.809 126.98 155.456C127.109 155.103 127.232 154.756 127.35 154.415C127.468 154.062 127.574 153.744 127.668 153.461C127.668 153.108 127.674 152.738 127.685 152.35C127.697 151.95 127.721 151.55 127.756 151.149C127.803 150.738 127.862 150.338 127.933 149.949C128.003 149.549 128.097 149.185 128.215 148.855C128.45 148.22 128.727 147.755 129.044 147.461C129.362 147.155 129.639 146.996 129.874 146.984C130.039 146.984 130.156 147.055 130.227 147.196C130.297 147.337 130.327 147.526 130.315 147.761C130.292 148.067 130.239 148.437 130.156 148.873C130.074 149.296 129.974 149.755 129.856 150.249C129.75 150.732 129.627 151.226 129.486 151.732C129.344 152.226 129.209 152.703 129.08 153.161C128.868 154.373 128.739 155.473 128.691 156.462C128.644 157.438 128.65 158.28 128.709 158.986C128.78 159.68 128.891 160.215 129.044 160.592C129.209 160.98 129.403 161.174 129.627 161.174C129.886 161.174 130.156 160.997 130.439 160.645C130.733 160.292 131.021 159.827 131.303 159.25C131.586 158.662 131.856 157.997 132.115 157.256C132.386 156.515 132.627 155.756 132.839 154.979C133.062 154.191 133.245 153.42 133.386 152.667C133.527 151.903 133.621 151.214 133.668 150.602C133.704 150.096 133.721 149.596 133.721 149.102C133.721 148.679 133.704 148.226 133.668 147.743C133.633 147.261 133.568 146.826 133.474 146.437C133.627 146.308 133.833 146.202 134.092 146.12C134.221 146.073 134.363 146.031 134.516 145.996C134.61 145.973 134.71 145.955 134.816 145.943C134.91 145.931 135.004 145.925 135.098 145.925C135.192 145.914 135.28 145.92 135.363 145.943C135.433 146.108 135.48 146.32 135.504 146.578C135.539 146.837 135.563 147.09 135.574 147.337C135.586 147.632 135.58 147.937 135.557 148.255C135.463 149.502 135.298 150.726 135.063 151.926C134.839 153.126 134.563 154.267 134.233 155.35C133.904 156.421 133.533 157.409 133.121 158.315C132.721 159.209 132.304 159.986 131.868 160.645C131.445 161.303 131.015 161.815 130.58 162.18C130.156 162.545 129.75 162.727 129.362 162.727C128.95 162.727 128.621 162.551 128.374 162.198C128.127 161.856 127.938 161.421 127.809 160.892C127.68 160.374 127.597 159.815 127.562 159.215C127.527 158.615 127.515 158.062 127.527 157.556C127.256 158.215 126.962 158.85 126.644 159.462C126.338 160.074 126.015 160.615 125.674 161.086C125.344 161.568 125.003 161.951 124.65 162.233C124.309 162.527 123.967 162.674 123.626 162.674Z" fill="white"/>
<g clip-path="url(#clip0_264_4038)">
<path d="M183.863 79.3457C183.952 79.3808 184.042 79.4159 184.135 79.4521C184.214 79.4835 184.294 79.5149 184.375 79.5473C185.035 79.7879 185.697 79.9722 186.385 80.1137C186.465 80.1304 186.546 80.1471 186.629 80.1643C186.889 80.2176 187.149 80.2697 187.409 80.3214C187.498 80.3391 187.587 80.3569 187.679 80.3751C189.349 80.7036 190.968 80.8511 192.672 80.8515C193.649 80.8551 194.526 80.9666 195.263 81.6644C196.136 82.6604 196.103 83.7364 196.133 85.0051C196.138 85.1934 196.138 85.1934 196.143 85.3855C196.152 85.7269 196.161 86.0684 196.169 86.4099C196.178 86.7681 196.187 87.1263 196.197 87.4846C196.212 88.0852 196.227 88.6859 196.242 89.2865C196.259 89.981 196.277 90.6754 196.295 91.3698C196.312 92.0389 196.329 92.708 196.346 93.3772C196.353 93.6616 196.36 93.9461 196.368 94.2305C196.378 94.6269 196.388 95.0233 196.397 95.4197C196.402 95.5968 196.402 95.5968 196.407 95.7776C196.41 95.9391 196.41 95.9391 196.414 96.1038C196.418 96.2443 196.418 96.2443 196.421 96.3876C196.419 96.6227 196.419 96.6227 196.362 96.9172C196.476 96.9545 196.59 96.9917 196.707 97.0301C199.751 98.0453 202.774 99.3748 205.403 101.232C205.5 101.301 205.5 101.301 205.6 101.371C206.92 102.313 208.428 103.603 208.729 105.284C208.753 106.167 208.552 107.057 208 107.752C207.837 107.901 207.674 108.045 207.498 108.18C207.251 108.509 207.353 108.91 207.405 109.296C207.447 109.538 207.489 109.78 207.531 110.021C207.869 112.403 207.011 114.897 205.605 116.796C204.907 117.709 204.088 118.387 203.146 119.031C203.054 119.095 202.962 119.16 202.867 119.226C200.864 120.527 198.302 120.794 195.997 120.319C194.293 119.929 192.774 119.071 191.432 117.965C191.164 118.125 190.899 118.291 190.635 118.458C190.56 118.503 190.485 118.548 190.408 118.594C190.298 118.664 190.298 118.664 190.187 118.736C190.12 118.777 190.053 118.819 189.984 118.861C189.774 119.087 189.734 119.223 189.64 119.511C189.4 120.106 189.021 120.365 188.496 120.708C188.404 120.771 188.313 120.833 188.218 120.898C187.917 121.103 187.613 121.304 187.309 121.506C187.098 121.648 186.887 121.79 186.677 121.932C186.235 122.229 185.793 122.525 185.35 122.819C184.839 123.159 184.329 123.501 183.821 123.846C183.33 124.178 182.838 124.508 182.346 124.837C182.137 124.976 181.928 125.117 181.72 125.258C181.429 125.454 181.136 125.648 180.844 125.841C180.758 125.9 180.672 125.958 180.584 126.019C180.097 126.336 179.789 126.49 179.191 126.373C178.746 126.176 178.524 125.814 178.264 125.418C178.221 125.354 178.178 125.29 178.134 125.224C178.044 125.089 177.954 124.953 177.864 124.818C177.727 124.609 177.588 124.402 177.449 124.195C177.361 124.063 177.274 123.932 177.186 123.8C177.145 123.738 177.103 123.676 177.06 123.612C176.803 123.22 176.698 123.041 176.725 122.567C176.802 122.197 176.929 122.055 177.231 121.834C177.307 121.778 177.383 121.722 177.461 121.664C177.579 121.581 177.579 121.581 177.698 121.496C177.805 121.42 177.805 121.42 177.913 121.343C178.136 121.186 178.361 121.032 178.586 120.879C178.67 120.821 178.754 120.763 178.841 120.703C179.714 120.105 180.59 119.511 181.466 118.917C181.881 118.635 182.295 118.352 182.708 118.068C183.209 117.724 183.712 117.382 184.215 117.042C184.406 116.913 184.597 116.782 184.787 116.651C185.053 116.468 185.32 116.287 185.588 116.107C185.666 116.053 185.743 115.999 185.823 115.943C186.326 115.611 186.682 115.521 187.285 115.572C187.712 115.567 188.012 115.326 188.346 115.081C188.449 115.013 188.449 115.013 188.554 114.943C188.773 114.796 188.773 114.796 189.044 114.543C189.059 114.325 189.059 114.325 189.023 114.131C188.691 114.213 188.379 114.331 188.061 114.454C184.899 115.663 181.229 115.557 178.108 114.236C177.98 114.179 177.852 114.121 177.725 114.062C177.659 114.032 177.593 114.003 177.524 113.972C175.702 113.133 174.207 111.828 172.934 110.292C170.409 107.248 167.167 104.984 163.763 103.031C162.789 102.472 161.859 101.907 160.978 101.21C160.878 101.134 160.778 101.059 160.676 100.981C159.778 100.279 158.939 99.4343 158.474 98.377C158.44 98.2998 158.406 98.2227 158.37 98.1433C158.07 97.314 158.216 96.5438 158.482 95.7291C159.133 94.4413 160.584 93.777 161.886 93.3334C165.425 92.1913 169.521 92.0133 173.198 92.3894C173.229 92.2871 173.26 92.1848 173.293 92.0794C173.476 91.5235 173.711 90.9911 173.944 90.4547C174.016 90.2891 174.016 90.2891 174.089 90.1201C174.19 89.8878 174.291 89.6555 174.393 89.4233C174.547 89.068 174.701 88.7121 174.854 88.3563C174.953 88.1301 175.051 87.9039 175.15 87.6778C175.218 87.5184 175.218 87.5184 175.288 87.3558C175.331 87.2568 175.375 87.1578 175.42 87.0558C175.457 86.969 175.495 86.8822 175.534 86.7928C175.679 86.5233 175.827 86.3268 176.054 86.1202C176.431 86.1112 176.431 86.1112 176.76 86.1563C176.815 85.9686 176.815 85.9686 176.872 85.7771C176.971 85.4484 177.096 85.1619 177.255 84.8585C177.358 84.6535 177.358 84.6535 177.4 84.4472C177.275 84.2186 177.15 83.9904 177.024 83.7623C177.114 82.9913 177.542 82.2282 177.853 81.5237C177.939 81.3298 178.023 81.1353 178.106 80.9407C178.815 79.3131 178.815 79.3131 179.661 78.8388C179.746 78.7895 179.832 78.7402 179.919 78.6895C181.216 78.0949 182.646 78.8681 183.863 79.3457Z" fill="#020202"/>
<path d="M172.479 93.9812C172.318 94.4909 172.136 94.977 171.921 95.4667C171.862 95.6012 171.804 95.7358 171.745 95.8703C171.655 96.0782 171.563 96.286 171.472 96.4935C170.872 97.7634 170.872 97.7634 170.752 99.1337C171.167 99.77 172.012 100.129 172.668 100.476C172.758 100.524 172.848 100.572 172.941 100.621C175.472 101.968 175.472 101.968 178.205 102.743C178.479 102.644 178.479 102.644 178.674 102.427C178.798 102.141 178.798 102.141 178.79 101.838C178.569 101.534 178.365 101.404 178.014 101.28C177.927 101.248 177.839 101.216 177.75 101.184C177.656 101.15 177.562 101.117 177.466 101.083C175.627 100.403 173.905 99.5502 172.185 98.6113C172.474 97.8217 172.785 97.0444 173.114 96.2708C173.158 96.1682 173.201 96.0655 173.246 95.9598C173.351 95.7105 173.457 95.4613 173.563 95.2122C174.647 95.6206 174.647 95.6206 175.103 95.9017C176.349 96.626 177.682 97.2024 179.042 97.6735C179.208 97.7312 179.375 97.79 179.541 97.8495C184.116 99.4783 189.458 100.121 194.26 99.3414C194.575 99.3173 194.673 99.3504 194.941 99.4928C194.959 99.842 194.975 100.191 194.991 100.541C194.998 100.689 194.998 100.689 195.006 100.84C195.01 100.936 195.015 101.031 195.019 101.13C195.023 101.218 195.027 101.306 195.032 101.396C195.029 101.662 195.009 101.886 194.933 102.141C194.704 102.271 194.505 102.365 194.26 102.455C194.136 102.503 194.011 102.552 193.888 102.601C193.79 102.64 193.79 102.64 193.69 102.679C193.459 102.786 193.255 102.919 193.041 103.057C192.534 103.357 192.105 103.385 191.526 103.379C191.428 103.38 191.331 103.38 191.23 103.381C190.923 103.383 190.617 103.38 190.309 103.377C190.113 103.377 189.917 103.377 189.721 103.376C188.018 103.367 186.367 103.211 184.691 102.914C184.593 102.897 184.496 102.88 184.396 102.862C183.9 102.774 183.405 102.684 182.91 102.591C182.725 102.558 182.54 102.524 182.355 102.49C182.27 102.474 182.184 102.457 182.096 102.44C181.748 102.378 181.508 102.337 181.164 102.436C180.955 102.575 180.955 102.575 180.879 102.909C180.828 103.243 180.828 103.243 180.945 103.451C181.133 103.658 181.259 103.685 181.533 103.739C181.669 103.767 181.669 103.767 181.808 103.796C181.907 103.814 182.006 103.833 182.107 103.852C182.21 103.873 182.314 103.893 182.42 103.914C182.64 103.957 182.859 104 183.08 104.042C183.408 104.104 183.736 104.17 184.063 104.236C185.889 104.595 187.699 104.741 189.559 104.74C189.744 104.74 189.929 104.741 190.114 104.742C190.192 104.742 190.269 104.742 190.349 104.742C190.551 104.749 190.551 104.749 190.845 104.806C190.625 105.21 190.378 105.584 190.116 105.963C188.993 107.665 188.46 109.838 188.73 111.861C188.744 112.07 188.744 112.07 188.643 112.426C187.144 113.676 184.286 113.892 182.421 113.736C179.11 113.379 176.38 111.954 174.253 109.409C171.643 106.341 168.461 103.926 164.972 101.94C163.779 101.261 162.624 100.593 161.579 99.6971C161.496 99.6289 161.413 99.5607 161.328 99.4904C160.585 98.8566 159.853 98.1081 159.744 97.0965C159.75 96.6183 159.884 96.365 160.196 96.0195C162.904 93.5071 168.067 93.7882 171.503 93.8343C171.838 93.849 172.152 93.9105 172.479 93.9812Z" fill="#EFEFF2"/>
<path d="M182.635 80.5665C184.1 81.1521 185.554 81.5947 187.103 81.8857C187.178 81.9 187.253 81.9143 187.33 81.929C188.949 82.2375 190.524 82.4298 192.176 82.375C192.885 82.3565 193.605 82.363 194.176 82.8159C194.488 83.2197 194.537 83.5155 194.552 84.0131C194.556 84.1423 194.56 84.2714 194.564 84.4045C194.568 84.5507 194.572 84.6968 194.576 84.8429C194.58 84.9987 194.585 85.1545 194.589 85.3102C194.641 87.1522 194.674 88.9948 194.709 90.8372C194.743 92.5713 194.785 94.305 194.839 96.0386C194.841 96.1166 194.844 96.1946 194.846 96.275C194.852 96.4799 194.859 96.6847 194.866 96.8896C194.872 97.2092 194.867 97.5262 194.855 97.8456C192.984 98.1096 191.179 98.2444 189.287 98.1837C189.192 98.1813 189.098 98.1789 189.001 98.1764C183.923 98.044 178.531 96.5921 174.243 93.8166C174.806 92.3827 175.398 90.9634 176.013 89.5515C176.062 89.4403 176.062 89.4403 176.111 89.3268C176.204 89.1135 176.297 88.9004 176.39 88.6874C176.418 88.6241 176.446 88.5608 176.474 88.4956C176.597 88.2163 176.727 87.9486 176.877 87.6829C177.059 87.3617 177.131 87.1116 177.155 86.743C177.083 86.6681 177.012 86.5931 176.938 86.5159C176.741 86.2545 176.741 86.2545 176.764 86.0401C176.84 85.7842 176.932 85.5401 177.031 85.2921C177.056 85.2114 177.081 85.1308 177.107 85.0476C177.186 84.8219 177.258 84.64 177.4 84.4471C177.772 84.3352 177.772 84.3352 178.144 84.287C178.546 84.0231 178.683 83.6233 178.857 83.1944C178.921 83.0433 178.985 82.8923 179.049 82.7412C179.148 82.5039 179.246 82.2665 179.344 82.0289C179.44 81.7987 179.537 81.5694 179.634 81.34C179.662 81.2692 179.691 81.1985 179.72 81.1256C180.352 79.642 181.443 80.0883 182.635 80.5665Z" fill="#F0F0F3"/>
<path d="M199.532 103.212C199.681 103.24 199.681 103.24 199.833 103.269C201.862 103.686 203.508 104.879 204.661 106.59C204.753 106.724 204.753 106.724 204.847 106.861C205.595 108.025 205.938 109.247 206.012 110.624C206.024 110.752 206.035 110.879 206.047 111.01C206.148 113.075 205.152 114.995 203.841 116.518C203.536 116.827 203.216 117.091 202.864 117.346C202.785 117.407 202.705 117.468 202.623 117.532C201.505 118.346 200.252 118.739 198.89 118.913C198.788 118.929 198.686 118.945 198.581 118.961C196.699 119.155 194.563 118.414 193.096 117.271C192.405 116.692 191.851 116.04 191.342 115.297C191.268 115.189 191.268 115.189 191.191 115.079C190.015 113.218 189.86 110.988 190.322 108.889C190.737 107.18 191.81 105.697 193.218 104.659C193.298 104.597 193.377 104.536 193.459 104.473C195.252 103.168 197.388 102.803 199.532 103.212Z" fill="#030303"/>
<path d="M173.563 95.2121C174.647 95.6206 174.647 95.6206 175.103 95.9017C176.349 96.626 177.682 97.2024 179.042 97.6734C179.208 97.7312 179.375 97.79 179.541 97.8495C184.116 99.4783 189.458 100.121 194.26 99.3414C194.575 99.3172 194.673 99.3504 194.941 99.4927C194.959 99.842 194.975 100.191 194.991 100.541C194.996 100.639 195.001 100.738 195.006 100.84C195.012 100.984 195.012 100.984 195.019 101.13C195.023 101.218 195.027 101.306 195.032 101.396C195.029 101.662 195.009 101.886 194.933 102.141C194.704 102.271 194.505 102.365 194.26 102.455C194.136 102.503 194.011 102.552 193.888 102.601C193.822 102.627 193.757 102.653 193.69 102.679C193.459 102.786 193.255 102.919 193.041 103.057C192.534 103.357 192.106 103.385 191.526 103.379C191.428 103.38 191.331 103.38 191.231 103.381C190.923 103.383 190.617 103.38 190.309 103.377C190.113 103.377 189.917 103.377 189.721 103.376C188.018 103.367 186.367 103.211 184.691 102.914C184.593 102.897 184.496 102.88 184.396 102.862C183.9 102.774 183.405 102.684 182.91 102.591C182.725 102.558 182.54 102.524 182.355 102.49C182.27 102.474 182.184 102.457 182.096 102.44C181.632 102.357 181.632 102.357 181.174 102.435C180.954 102.588 180.954 102.588 180.716 102.928C180.081 102.737 179.446 102.546 178.792 102.348C178.752 102.038 178.752 102.038 178.711 101.721C178.459 101.472 178.343 101.407 178.022 101.291C177.934 101.259 177.847 101.227 177.757 101.194C177.615 101.143 177.615 101.143 177.471 101.09C175.633 100.403 173.907 99.5512 172.185 98.6113C172.474 97.8217 172.785 97.0444 173.114 96.2708C173.179 96.1168 173.179 96.1168 173.246 95.9598C173.351 95.7105 173.457 95.4613 173.563 95.2121Z" fill="#ADA8B2"/>
<path d="M199.532 103.212C199.681 103.24 199.681 103.24 199.833 103.269C201.862 103.686 203.508 104.879 204.661 106.59C204.753 106.724 204.753 106.724 204.847 106.861C205.595 108.025 205.938 109.247 206.012 110.624C206.024 110.752 206.035 110.879 206.047 111.01C206.148 113.075 205.152 114.995 203.841 116.518C203.536 116.827 203.216 117.091 202.864 117.346C202.785 117.407 202.705 117.468 202.623 117.532C201.505 118.346 200.252 118.739 198.89 118.913C198.788 118.929 198.686 118.945 198.581 118.961C196.699 119.155 194.563 118.414 193.096 117.271C192.405 116.692 191.851 116.04 191.342 115.297C191.268 115.189 191.268 115.189 191.191 115.079C190.015 113.218 189.86 110.988 190.322 108.889C190.737 107.18 191.81 105.697 193.218 104.659C193.298 104.597 193.377 104.536 193.459 104.473C195.252 103.168 197.388 102.803 199.532 103.212ZM193.517 105.736C191.998 107.168 191.247 108.82 191.111 110.896C191.082 112.798 191.843 114.465 193.088 115.862C194.459 117.192 196.206 117.955 198.133 117.93C200.056 117.807 201.756 117.133 203.115 115.739C204.391 114.285 205.061 112.364 204.981 110.429C204.762 108.434 203.701 106.636 202.145 105.385C201.808 105.161 201.514 104.992 201.104 104.977C200.835 105.073 200.835 105.073 200.635 105.293C200.502 105.624 200.502 105.624 200.5 105.98C200.708 106.367 200.96 106.574 201.317 106.821C201.896 107.252 202.281 107.755 202.688 108.344C201.79 108.542 200.894 108.68 199.982 108.796C197.506 109.125 195.014 109.675 192.675 110.565C193.078 108.859 193.681 107.548 195.152 106.493C195.946 106.006 196.847 105.702 197.779 105.665C198.19 105.609 198.342 105.514 198.614 105.204C198.739 104.895 198.731 104.77 198.613 104.459C197.328 103.199 194.588 104.882 193.517 105.736Z" fill="#C1BCC3"/>
<path d="M203.381 110.008C203.579 110.638 203.491 111.281 203.359 111.914C203.342 112 203.324 112.086 203.306 112.174C203.003 113.534 202.247 114.687 201.109 115.506C199.677 116.393 198.195 116.585 196.565 116.251C195.222 115.907 194.081 114.928 193.352 113.773C192.778 112.712 192.778 112.712 192.85 112.226C193.089 111.942 193.426 111.876 193.77 111.772C193.888 111.735 193.888 111.735 194.008 111.698C194.251 111.623 194.494 111.55 194.738 111.478C194.808 111.456 194.878 111.435 194.95 111.414C195.451 111.263 195.955 111.128 196.462 110.999C196.544 110.978 196.625 110.957 196.709 110.936C198.173 110.568 199.653 110.332 201.145 110.112C201.24 110.098 201.335 110.084 201.433 110.069C201.704 110.029 201.976 109.989 202.248 109.951C202.33 109.939 202.413 109.926 202.498 109.913C203.074 109.834 203.074 109.834 203.381 110.008Z" fill="#BCDFE1"/>
<path d="M198.691 104.811C200.079 105.04 200.079 105.04 200.517 105.372C200.611 105.741 200.611 105.741 200.677 106.117C200.868 106.318 200.868 106.318 201.111 106.507C201.789 107.069 202.338 107.599 202.786 108.363C202.452 108.588 202.096 108.598 201.704 108.648C201.528 108.672 201.351 108.696 201.174 108.72C201.082 108.733 200.989 108.745 200.893 108.758C198.345 109.103 195.907 109.624 193.45 110.395C193.193 110.467 192.938 110.519 192.675 110.565C192.932 108.937 193.456 107.725 194.786 106.672C195.69 106.027 196.703 105.611 197.819 105.558C198.18 105.516 198.29 105.464 198.516 105.185C198.576 105.061 198.635 104.937 198.691 104.811Z" fill="#FBFBFB"/>
<path d="M192.885 82.379C193.393 82.4413 193.768 82.4921 194.176 82.8159C194.488 83.2197 194.537 83.5155 194.552 84.0132C194.558 84.2069 194.558 84.2069 194.564 84.4045C194.568 84.5507 194.572 84.6968 194.575 84.843C194.58 84.9987 194.584 85.1545 194.589 85.3103C194.641 87.1523 194.674 88.9948 194.709 90.8372C194.743 92.5713 194.785 94.305 194.839 96.0387C194.841 96.1167 194.844 96.1947 194.846 96.275C194.852 96.4799 194.859 96.6848 194.866 96.8896C194.872 97.2092 194.867 97.5262 194.855 97.8456C194.65 97.8738 194.445 97.9016 194.24 97.9292C194.126 97.9447 194.012 97.9602 193.894 97.9762C193.601 98.008 193.601 98.008 193.404 97.9696C193.296 94.6348 193.198 91.2996 193.115 87.9641C193.111 87.8145 193.107 87.6648 193.104 87.5152C193.102 87.4412 193.1 87.3671 193.098 87.2908C193.086 86.8009 193.072 86.311 193.058 85.8212C193.048 85.4786 193.039 85.136 193.029 84.7934C193.025 84.6297 193.02 84.466 193.015 84.3023C193.008 84.076 193.002 83.8497 192.996 83.6234C192.992 83.4945 192.988 83.3655 192.984 83.2327C192.986 82.9082 192.986 82.9082 193.062 82.5155C193.004 82.4705 192.946 82.4254 192.885 82.379Z" fill="#DDDBE0"/>
<path d="M186.663 117.338C186.912 117.524 187.089 117.686 187.259 117.946C187.322 118.04 187.322 118.04 187.386 118.136C187.428 118.201 187.47 118.265 187.514 118.332C187.557 118.398 187.601 118.464 187.646 118.532C187.753 118.694 187.859 118.857 187.965 119.019C187.482 119.412 186.988 119.774 186.471 120.12C186.397 120.169 186.324 120.219 186.248 120.27C186.009 120.431 185.769 120.592 185.529 120.753C185.361 120.865 185.194 120.977 185.027 121.09C184.588 121.385 184.15 121.679 183.711 121.973C183.263 122.274 182.815 122.575 182.366 122.876C181.489 123.466 180.611 124.056 179.732 124.645C179.641 124.53 179.55 124.415 179.459 124.301C179.408 124.237 179.357 124.173 179.304 124.107C179.128 123.88 178.967 123.647 178.809 123.407C178.755 123.327 178.702 123.246 178.647 123.163C178.588 123.074 178.588 123.074 178.529 122.983C178.708 122.732 178.877 122.557 179.133 122.385C179.233 122.318 179.233 122.318 179.335 122.249C179.443 122.177 179.443 122.177 179.554 122.103C179.631 122.051 179.708 122 179.787 121.946C180.04 121.776 180.294 121.606 180.548 121.437C180.724 121.319 180.9 121.201 181.076 121.083C181.538 120.772 182.002 120.462 182.465 120.152C182.938 119.836 183.41 119.518 183.882 119.201C184.809 118.58 185.736 117.959 186.663 117.338Z" fill="#655D65"/>
<path d="M196.428 98.6625C199.489 99.4624 202.453 100.992 204.978 102.881C205.072 102.951 205.165 103.02 205.261 103.092C206.077 103.734 206.997 104.59 207.187 105.657C207.157 106.188 206.992 106.479 206.643 106.875C206.579 106.863 206.514 106.85 206.447 106.837C206.342 106.651 206.245 106.461 206.15 106.269C205.206 104.475 203.348 102.852 201.401 102.203C199.968 101.838 198.467 101.458 196.987 101.674C196.729 101.682 196.608 101.622 196.382 101.507C196.374 101.106 196.368 100.706 196.362 100.305C196.36 100.192 196.357 100.078 196.355 99.9611C196.354 99.8517 196.352 99.7424 196.35 99.6297C196.349 99.5291 196.347 99.4284 196.345 99.3247C196.351 99.0551 196.351 99.0551 196.428 98.6625Z" fill="#ECECEF"/>
<path d="M200.245 110.414C200.082 110.998 199.869 111.413 199.493 111.885C199.444 111.946 199.396 112.007 199.346 112.071C198.269 113.401 196.919 114.133 195.236 114.403C194.237 114.502 194.237 114.502 193.77 114.345C193.261 113.898 192.953 113.079 192.82 112.427C192.85 112.226 192.85 112.226 192.995 112.054C193.256 111.941 193.499 111.853 193.77 111.772C193.888 111.736 193.888 111.736 194.008 111.698C194.251 111.623 194.494 111.55 194.738 111.478C194.808 111.456 194.878 111.435 194.95 111.414C199.253 110.122 199.253 110.122 200.245 110.414Z" fill="#DBEDEF"/>
<path d="M173.563 95.2122C174.101 95.4035 174.61 95.6117 175.103 95.9017C176.425 96.6705 177.839 97.2576 179.282 97.7566C179.365 97.7863 179.449 97.816 179.535 97.8467C181.571 98.5654 183.672 98.9934 185.781 99.4346C185.775 99.467 185.768 99.4994 185.762 99.5328C181.35 99.2435 177.181 98.2384 173.098 96.5479C173.245 96.0987 173.394 95.6535 173.563 95.2122Z" fill="#C2BEC5"/>
<path d="M189.913 115.833C190.101 116.072 190.29 116.311 190.485 116.556C190.207 116.916 189.923 117.125 189.549 117.367C189.489 117.407 189.429 117.447 189.366 117.488C189.218 117.586 189.07 117.683 188.921 117.779C188.732 117.541 188.543 117.302 188.349 117.056C188.626 116.697 188.911 116.488 189.284 116.245C189.345 116.206 189.405 116.166 189.467 116.125C189.615 116.027 189.764 115.93 189.913 115.833Z" fill="#A7A2AC"/>
</g>
<defs>
<clipPath id="clip0_264_4038">
<rect width="51.2048" height="51.2048" fill="white" transform="translate(162.933 72.9578) rotate(11.06)"/>
</clipPath>
</defs>
</svg>
