<svg width="332" height="294" viewBox="0 0 332 294" fill="none" xmlns="http://www.w3.org/2000/svg">
<g clip-path="url(#clip0_8_831)">
<path d="M68.9231 193.383C53.9128 176.569 47.5732 159.029 51.0715 143.992C55.561 124.696 75.5056 111.355 105.791 107.389L105.903 108.495C76.039 112.406 56.3987 125.448 52.018 144.277C48.6133 158.91 54.8609 176.068 69.61 192.589L68.9231 193.383Z" fill="#F0F0F0"/>
<path d="M213.747 253.066C195.013 253.066 174.656 249.898 154.435 243.807C129.429 236.274 106.501 224.905 88.1308 210.927L88.6748 210.001C106.957 223.911 129.783 235.229 154.685 242.73C177.189 249.509 199.862 252.65 220.244 251.821L220.279 252.934C218.127 253.022 215.949 253.066 213.747 253.066Z" fill="#F0F0F0"/>
<path d="M256.725 246.061L256.411 245.006C273.166 238.56 283.645 228.176 286.716 214.977C290.62 198.197 282.139 178.725 262.834 160.148C243.432 141.476 215.452 125.984 184.049 116.524L184.3 115.447C215.84 124.948 243.955 140.521 263.466 159.297C283.076 178.168 291.669 198.043 287.663 215.262C284.504 228.84 273.805 239.49 256.725 246.061Z" fill="#F0F0F0"/>
<path d="M102.876 253.531C66.0657 234.955 37.7003 210.854 23.0058 185.668L23.8213 185.052C38.4142 210.063 66.6308 234.021 103.273 252.513L102.876 253.531Z" fill="#F0F0F0"/>
<path d="M232.3 285.714C228.503 285.714 224.641 285.617 220.715 285.424L220.757 284.312C250.06 285.755 275.914 281.765 295.529 272.77L295.896 273.804C278.784 281.649 256.974 285.714 232.3 285.714Z" fill="#F0F0F0"/>
<path d="M210.942 108.387C204.858 106.134 198.6 104.035 192.342 102.15C156.328 91.3015 120.927 87.4498 89.9635 91.0132L89.8651 89.9047C120.944 86.3296 156.467 90.1905 192.592 101.073C198.868 102.963 205.144 105.068 211.245 107.328L210.942 108.387Z" fill="#F0F0F0"/>
<path d="M45.9173 195.054C30.907 178.24 24.5674 160.699 28.0657 145.663C32.5552 126.367 52.4998 113.026 82.7854 109.059L82.8973 110.166C53.0332 114.077 33.3929 127.119 29.0122 145.948C25.6076 160.581 31.8552 177.739 46.6042 194.26L45.9173 195.054Z" fill="#F0F0F0"/>
<path d="M190.741 254.737C172.007 254.737 151.65 251.569 131.429 245.478C106.423 237.945 83.4957 226.576 65.125 212.598L65.669 211.672C83.9513 225.582 106.777 236.9 131.68 244.401C154.183 251.18 176.856 254.321 197.238 253.492L197.273 254.605C195.121 254.693 192.943 254.737 190.741 254.737Z" fill="#F0F0F0"/>
<path d="M233.719 247.732L233.405 246.676C250.16 240.231 260.639 229.847 263.711 216.648C267.615 199.868 259.133 180.396 239.829 161.819C220.426 143.147 192.446 127.655 161.043 118.195L161.294 117.118C192.834 126.619 220.95 142.192 240.461 160.968C260.07 179.839 268.663 199.714 264.657 216.933C261.498 230.511 250.8 241.161 233.719 247.732Z" fill="#F0F0F0"/>
<path d="M79.8707 255.202C43.06 236.626 14.6945 212.525 0 187.339L0.815494 186.723C15.4085 211.734 43.625 235.692 80.2675 254.184L79.8707 255.202Z" fill="#F0F0F0"/>
<path d="M209.294 287.385C205.497 287.385 201.636 287.288 197.709 287.095L197.751 285.982C227.054 287.426 252.908 283.436 272.524 274.441L272.89 275.475C255.779 283.32 233.969 287.385 209.294 287.385Z" fill="#F0F0F0"/>
<path d="M187.936 110.058C181.852 107.804 175.594 105.706 169.336 103.821C133.323 92.9723 97.9214 89.1206 66.9577 92.6841L66.8593 91.5756C97.9384 88.0005 133.461 91.8614 169.586 102.744C175.862 104.634 182.138 106.739 188.239 108.999L187.936 110.058Z" fill="#F0F0F0"/>
<path d="M16.686 165.218C23.721 156.243 34.943 150.773 45.1127 154.048C35.7307 161.602 28.9996 172.689 26.1102 185.347C25.0115 190.234 24.2366 195.798 20.6652 198.786C18.4431 200.645 15.4987 201.089 12.7659 200.666C10.0329 200.242 7.4489 199.033 4.89973 197.835L4.21378 197.902C6.18595 186.087 9.65099 174.193 16.686 165.218Z" fill="#F2F2F2"/>
<path d="M45.0816 154.297C36.579 156.64 28.9413 161.971 23.2533 169.534C22.0034 171.137 20.9834 172.955 20.2309 174.92C19.5522 176.861 19.3427 178.973 19.6241 181.037C19.8525 182.968 20.2826 184.912 20.0946 186.873C19.9852 187.874 19.691 188.839 19.2312 189.702C18.7714 190.565 18.1565 191.308 17.4266 191.882C15.6408 193.366 13.4929 194.031 11.3725 194.599C9.01831 195.229 6.56422 195.841 4.64515 197.621C4.41262 197.836 4.13207 197.413 4.36425 197.198C7.70311 194.101 12.3434 194.498 16.0375 192.249C17.7613 191.199 19.2174 189.552 19.5715 187.291C19.8811 185.315 19.439 183.309 19.1929 181.356C18.8925 179.347 19.0289 177.285 19.5904 175.35C20.2526 173.348 21.2093 171.488 22.4197 169.852C25.0929 166.117 28.2656 162.884 31.8215 160.271C35.8652 157.264 40.3313 155.065 45.0266 153.771C45.3172 153.691 45.3703 154.218 45.0816 154.297Z" fill="white"/>
<path d="M24.9589 166.976C23.9733 165.718 23.4128 164.102 23.3776 162.417C23.3423 160.732 23.8346 159.088 24.7665 157.778C24.9558 157.514 25.3257 157.836 25.1361 158.101C24.2664 159.319 23.8079 160.85 23.8436 162.419C23.8792 163.988 24.4066 165.491 25.3304 166.656C25.531 166.91 25.1582 167.228 24.9589 166.976Z" fill="white"/>
<path d="M19.395 180.075C22.4162 180.304 25.4021 179.228 27.7573 177.063C27.9905 176.848 28.2711 177.271 28.0382 177.485C25.5837 179.734 22.4744 180.846 19.3309 180.6C19.0312 180.577 19.097 180.052 19.395 180.075Z" fill="white"/>
<path d="M35.9699 157.956C36.2621 158.533 36.6757 159.019 37.1736 159.369C37.6715 159.72 38.2381 159.924 38.8225 159.964C39.1222 159.983 39.0561 160.508 38.7584 160.489C38.1129 160.441 37.4874 160.215 36.9366 159.829C36.3857 159.444 35.9262 158.91 35.5983 158.276C35.563 158.219 35.548 158.149 35.5565 158.08C35.5649 158.011 35.5961 157.948 35.6437 157.905C35.693 157.863 35.755 157.844 35.8161 157.854C35.8772 157.864 35.9325 157.9 35.9699 157.956Z" fill="white"/>
<path d="M59.5487 191.305C59.3612 191.299 59.1738 191.293 58.9839 191.291C56.4634 191.225 53.9423 191.392 51.4455 191.791C51.2521 191.819 51.0564 191.85 50.864 191.883C44.8578 192.917 39.0725 195.211 33.8021 198.648C31.7061 200.017 29.7046 201.567 27.8151 203.282C25.2058 205.651 22.5422 208.456 19.4873 209.67C19.1698 209.801 18.8456 209.909 18.5163 209.994L4.33948 198.849C4.31844 198.805 4.29501 198.765 4.2738 198.721L3.68988 198.306C3.7819 198.21 3.87916 198.112 3.97117 198.016C4.02435 197.96 4.0807 197.906 4.13385 197.85C4.1703 197.814 4.20693 197.777 4.23798 197.742C4.25008 197.73 4.26233 197.717 4.2722 197.709C4.30325 197.673 4.3354 197.644 4.36421 197.613C4.90653 197.066 5.45316 196.522 6.00412 195.982C6.00636 195.978 6.00636 195.978 6.01176 195.977C10.219 191.874 14.7643 188.134 19.6639 185.298C19.8114 185.213 19.9609 185.124 20.1148 185.044C22.3296 183.779 24.6315 182.723 26.9975 181.885C28.2943 181.431 29.6105 181.052 30.941 180.75C34.3802 179.976 37.905 179.822 41.3862 180.294C48.3257 181.237 54.9231 184.695 59.2241 190.833C59.334 190.99 59.441 191.144 59.5487 191.305Z" fill="#F2F2F2"/>
<path d="M59.3925 191.485C51.3642 187.53 42.445 186.555 33.9017 188.697C32.0554 189.12 30.2793 189.873 28.6388 190.926C27.07 192.011 25.785 193.554 24.9174 195.395C24.0782 197.093 23.3927 198.94 22.2053 200.377C21.5879 201.101 20.8429 201.67 20.019 202.044C19.195 202.418 18.3109 202.59 17.4245 202.549C15.2135 202.51 13.1465 201.57 11.1533 200.57C8.9402 199.46 6.65693 198.268 4.18268 198.374C3.8829 198.387 3.88279 197.857 4.18213 197.844C8.48689 197.659 11.9815 201.155 16.1214 201.89C18.0532 202.232 20.0874 201.915 21.5661 200.352C22.8591 198.986 23.5676 197.082 24.4042 195.354C25.2274 193.544 26.4275 191.991 27.8998 190.831C29.4879 189.686 31.2355 188.857 33.068 188.379C37.1784 187.229 41.4222 186.821 45.644 187.171C50.4642 187.539 55.1934 188.844 59.6271 191.027C59.9015 191.162 59.6651 191.619 59.3925 191.485Z" fill="white"/>
<path d="M36.617 187.823C36.4957 186.143 36.9032 184.469 37.7666 183.099C38.63 181.73 39.8932 180.754 41.3304 180.347C41.6215 180.265 41.7462 180.776 41.4548 180.858C40.1158 181.234 38.9393 182.143 38.1376 183.42C37.3358 184.697 36.9617 186.259 37.0828 187.822C37.1087 188.162 36.6428 188.16 36.617 187.823Z" fill="white"/>
<path d="M25.2433 194.47C27.5348 196.722 30.4881 197.909 33.5143 197.793C33.8141 197.781 33.8143 198.312 33.5148 198.323C30.3655 198.437 27.2943 197.195 24.9143 194.845C24.6876 194.621 25.0178 194.247 25.2433 194.47Z" fill="white"/>
<path d="M50.1813 188.164C50.1092 188.825 50.1825 189.496 50.3946 190.117C50.6068 190.738 50.9511 191.289 51.3968 191.721C51.6259 191.942 51.2954 192.316 51.0678 192.096C50.5774 191.616 50.1977 191.007 49.962 190.322C49.7263 189.637 49.6416 188.896 49.7155 188.165C49.7174 188.095 49.7425 188.029 49.7857 187.98C49.8289 187.93 49.8869 187.902 49.9481 187.899C50.0098 187.9 50.0689 187.928 50.1125 187.977C50.1562 188.027 50.1809 188.094 50.1813 188.164Z" fill="white"/>
<path d="M292.342 238.79C288.367 227.647 279.414 218.204 268.869 217.398C275.473 228.102 278.538 241.118 277.52 254.145C277.112 259.167 276.198 264.704 278.679 268.884C280.223 271.484 282.865 273.029 285.564 273.675C288.263 274.321 291.054 274.171 293.808 274.017L294.434 274.343C296.067 262.461 296.317 249.934 292.342 238.79Z" fill="#F2F2F2"/>
<path d="M268.824 217.646C276.14 223.103 281.759 231.046 284.882 240.344C285.586 242.332 286.009 244.434 286.138 246.572C286.204 248.659 285.777 250.729 284.902 252.566C284.117 254.297 283.137 255.964 282.736 257.882C282.543 258.867 282.535 259.888 282.713 260.877C282.891 261.865 283.251 262.8 283.769 263.62C285.012 265.701 286.839 267.148 288.668 268.494C290.699 269.987 292.83 271.502 294.111 273.913C294.267 274.205 294.656 273.914 294.501 273.622C292.271 269.428 287.783 268.028 284.969 264.497C283.655 262.849 282.77 260.74 283.104 258.476C283.397 256.496 284.406 254.776 285.214 253.031C286.091 251.254 286.571 249.259 286.614 247.222C286.582 245.083 286.23 242.966 285.573 240.962C284.159 236.422 282.125 232.164 279.548 228.343C276.628 223.964 273.071 220.185 269.031 217.171C268.781 216.984 268.576 217.46 268.824 217.646Z" fill="white"/>
<path d="M284.031 237.282C285.331 236.474 286.336 235.167 286.867 233.593C287.398 232.02 287.42 230.283 286.929 228.693C286.829 228.371 286.386 228.534 286.486 228.855C286.945 230.335 286.925 231.953 286.428 233.417C285.931 234.881 284.99 236.095 283.776 236.839C283.512 237.001 283.769 237.444 284.031 237.282Z" fill="white"/>
<path d="M285.402 251.748C282.489 250.807 279.995 248.652 278.416 245.712C278.26 245.42 277.871 245.712 278.027 246.003C279.675 249.059 282.274 251.295 285.308 252.266C285.597 252.359 285.69 251.839 285.402 251.748Z" fill="white"/>
<path d="M276.325 224.576C275.879 225.008 275.346 225.307 274.774 225.447C274.201 225.587 273.608 225.562 273.045 225.376C272.757 225.28 272.665 225.799 272.951 225.895C273.573 226.097 274.229 226.123 274.861 225.971C275.494 225.818 276.084 225.492 276.581 225.019C276.631 224.979 276.665 224.919 276.678 224.851C276.69 224.783 276.679 224.712 276.648 224.652C276.613 224.594 276.56 224.553 276.5 224.539C276.44 224.525 276.377 224.538 276.325 224.576Z" fill="white"/>
<path d="M244.267 246.968C244.446 247.034 244.624 247.1 244.804 247.17C247.197 248.072 249.522 249.194 251.756 250.524C251.93 250.624 252.105 250.728 252.276 250.834C257.628 254.104 262.399 258.477 266.347 263.729C267.917 265.821 269.344 268.046 270.617 270.384C272.375 273.613 274.055 277.274 276.573 279.585C276.834 279.83 277.107 280.056 277.392 280.262L294.036 275.187C294.069 275.154 294.103 275.125 294.136 275.092L294.809 274.924C294.75 274.798 294.688 274.669 294.629 274.543C294.596 274.47 294.559 274.398 294.525 274.325C294.502 274.276 294.478 274.228 294.459 274.183C294.451 274.166 294.443 274.15 294.437 274.139C294.418 274.093 294.396 274.054 294.378 274.013C294.029 273.29 293.675 272.569 293.316 271.85C293.315 271.846 293.315 271.846 293.31 271.842C290.559 266.369 287.383 261.108 283.606 256.563C283.493 256.427 283.378 256.286 283.257 256.151C281.544 254.113 279.688 252.238 277.707 250.545C276.62 249.621 275.492 248.761 274.329 247.967C271.318 245.923 268.044 244.43 264.626 243.544C257.811 241.777 250.577 242.511 244.713 246.647C244.563 246.753 244.416 246.858 244.267 246.968Z" fill="#F2F2F2"/>
<path d="M244.361 247.197C253.091 246.543 261.779 249.035 269.193 254.319C270.807 255.425 272.257 256.812 273.491 258.432C274.648 260.053 275.403 261.998 275.676 264.064C275.965 265.984 276.065 267.986 276.759 269.793C277.126 270.712 277.66 271.532 278.325 272.2C278.991 272.867 279.773 273.367 280.62 273.667C282.714 274.476 284.938 274.381 287.111 274.202C289.523 274.003 292.026 273.753 294.324 274.8C294.603 274.927 294.76 274.427 294.481 274.301C290.482 272.48 286.158 274.436 282.042 273.545C280.121 273.129 278.299 272.051 277.368 270.015C276.554 268.234 276.449 266.169 276.171 264.222C275.931 262.202 275.259 260.281 274.215 258.625C273.058 256.939 271.657 255.49 270.072 254.339C266.54 251.684 262.664 249.677 258.584 248.391C253.936 246.895 249.096 246.315 244.276 246.676C243.977 246.698 244.065 247.219 244.361 247.197Z" fill="white"/>
<path d="M266.894 252.458C267.504 250.922 267.615 249.19 267.206 247.57C266.797 245.95 265.896 244.548 264.663 243.614C264.413 243.426 264.144 243.86 264.395 244.048C265.544 244.915 266.384 246.221 266.762 247.73C267.14 249.239 267.031 250.853 266.455 252.279C266.33 252.589 266.77 252.766 266.894 252.458Z" fill="white"/>
<path d="M275.642 263.068C272.819 264.313 269.687 264.301 266.871 263.035C266.592 262.909 266.435 263.408 266.714 263.534C269.646 264.845 272.906 264.85 275.841 263.547C276.121 263.423 275.92 262.945 275.642 263.068Z" fill="white"/>
<path d="M254.018 247.592C253.89 248.242 253.623 248.846 253.24 249.35C252.857 249.853 252.369 250.241 251.822 250.477C251.541 250.597 251.742 251.076 252.021 250.956C252.625 250.692 253.162 250.263 253.587 249.708C254.011 249.153 254.31 248.488 254.456 247.771C254.475 247.704 254.471 247.632 254.445 247.57C254.418 247.507 254.372 247.457 254.315 247.432C254.257 247.408 254.193 247.412 254.138 247.442C254.082 247.472 254.039 247.526 254.018 247.592Z" fill="white"/>
<path d="M215.23 276.735C217.393 276.735 219.146 274.74 219.146 272.279C219.146 269.818 217.393 267.823 215.23 267.823C213.067 267.823 211.314 269.818 211.314 272.279C211.314 274.74 213.067 276.735 215.23 276.735Z" fill="#FD6584"/>
<path d="M229.101 200.844C231.263 200.844 233.016 198.85 233.016 196.389C233.016 193.928 231.263 191.933 229.101 191.933C226.938 191.933 225.185 193.928 225.185 196.389C225.185 198.85 226.938 200.844 229.101 200.844Z" fill="#E6E6E6"/>
<path d="M156.236 77.2522C158.398 77.2522 160.151 75.2573 160.151 72.7965C160.151 70.3357 158.398 68.3408 156.236 68.3408C154.073 68.3408 152.32 70.3357 152.32 72.7965C152.32 75.2573 154.073 77.2522 156.236 77.2522Z" fill="#E6E6E6"/>
<path d="M74.1764 243.716C74.1764 244.85 74.2092 245.985 74.279 247.109C74.3528 248.454 74.48 249.789 74.6522 251.114C75.2313 255.578 76.3379 259.931 77.9421 264.057C78.0242 264.263 78.1062 264.468 78.1883 264.674L78.3113 264.982C78.3523 265.084 78.3975 265.187 78.4385 265.285C78.4959 265.42 78.5492 265.551 78.6067 265.682C78.6764 265.845 78.7461 266.008 78.82 266.172C78.8282 266.191 78.8364 266.214 78.8487 266.237C78.9102 266.377 78.9677 266.513 79.0333 266.653C79.0453 266.683 79.0591 266.713 79.0743 266.741C79.144 266.9 79.2179 267.063 79.2917 267.222C79.3738 267.39 79.4517 267.563 79.5337 267.731C79.7306 268.146 79.9357 268.557 80.145 268.968C80.2065 269.089 80.268 269.21 80.3336 269.332C80.3911 269.444 80.4485 269.556 80.51 269.668C80.5511 269.743 80.5921 269.822 80.6331 269.897C80.6987 270.023 80.7644 270.144 80.8341 270.27C80.9859 270.545 81.1418 270.821 81.2935 271.096H81.2976C81.3674 271.222 81.4412 271.348 81.5151 271.47V271.474C81.7325 271.848 81.9581 272.221 82.1837 272.59L82.1853 272.59L82.1866 272.591L82.1875 272.593L82.1878 272.594C82.3683 272.893 82.557 273.183 82.7416 273.472V273.477C82.8646 273.659 82.9836 273.845 83.1067 274.027C83.2051 274.177 83.3077 274.331 83.4102 274.48C83.4307 274.513 83.4553 274.541 83.4759 274.573V274.578C83.5046 274.62 83.5333 274.658 83.562 274.7C83.9968 275.334 84.4453 275.955 84.9075 276.562L84.9813 276.66C85.0059 276.693 85.0347 276.725 85.0593 276.763C85.1003 276.814 85.1372 276.865 85.1782 276.917C85.2151 276.968 85.2562 277.019 85.2972 277.071C87.7064 280.159 90.4381 282.9 93.4317 285.234C93.8296 285.547 94.2357 285.85 94.6418 286.144C94.7443 286.219 94.8469 286.294 94.9494 286.364C94.9781 286.387 95.011 286.41 95.0397 286.434C95.0971 286.471 95.1504 286.509 95.2079 286.551C95.2612 286.588 95.3145 286.625 95.3719 286.663C95.5894 286.817 95.8109 286.966 96.0324 287.115C96.0857 287.153 96.1431 287.19 96.2006 287.227C96.2539 287.26 96.3113 287.297 96.3687 287.335C96.3687 287.339 96.3688 287.339 96.3729 287.339H96.377V287.344H96.3811C96.6559 287.526 96.9349 287.703 97.2179 287.876C97.3697 287.969 97.5255 288.067 97.6814 288.156C98.0342 288.376 98.3911 288.586 98.748 288.786C98.8751 288.856 99.0064 288.926 99.1336 289.001C99.2402 289.057 99.3469 289.118 99.4535 289.174C99.4863 289.192 99.5151 289.206 99.5438 289.225C99.634 289.272 99.7202 289.318 99.8104 289.365C99.9089 289.416 100.007 289.468 100.102 289.519C100.212 289.575 100.319 289.631 100.43 289.682C100.84 289.893 101.254 290.093 101.669 290.285C103.153 290.977 104.671 291.576 106.214 292.077C106.284 292.1 106.357 292.124 106.431 292.147C107.092 292.357 107.756 292.548 108.425 292.721C109.594 293.029 110.774 293.281 111.965 293.477H111.973C112.117 293.501 112.256 293.524 112.4 293.547C112.412 293.547 112.424 293.552 112.441 293.552C112.441 293.557 112.441 293.557 112.445 293.552C112.601 293.575 112.761 293.599 112.917 293.622C112.927 293.626 112.938 293.627 112.949 293.627C113.097 293.65 113.249 293.669 113.397 293.687C113.557 293.706 113.717 293.725 113.877 293.743C114 293.757 114.123 293.771 114.246 293.785C114.256 293.789 114.267 293.791 114.279 293.79C114.389 293.799 114.5 293.813 114.611 293.823H114.627C114.722 293.832 114.82 293.841 114.914 293.851C116.059 293.953 117.207 294 118.372 294C119.632 294 120.883 293.944 122.118 293.823H122.13C122.397 293.795 122.659 293.767 122.922 293.739C122.991 293.729 123.057 293.725 123.127 293.715C123.139 293.715 123.155 293.711 123.168 293.711C123.188 293.706 123.209 293.706 123.233 293.701C123.244 293.702 123.256 293.7 123.266 293.697C123.356 293.687 123.447 293.673 123.541 293.664L123.849 293.622C123.951 293.608 124.054 293.589 124.156 293.575C124.181 293.571 124.202 293.571 124.226 293.566C124.3 293.557 124.374 293.543 124.448 293.529C124.485 293.524 124.521 293.519 124.554 293.515C124.628 293.501 124.698 293.491 124.772 293.477H124.776C127.027 293.109 129.249 292.539 131.421 291.774C131.536 291.732 131.651 291.694 131.766 291.652C131.77 291.652 131.774 291.648 131.778 291.648C131.811 291.634 131.848 291.624 131.881 291.61C132.188 291.498 132.492 291.381 132.795 291.26C133.214 291.101 133.628 290.929 134.042 290.751C134.153 290.7 134.264 290.653 134.375 290.602C134.6 290.504 134.822 290.401 135.043 290.299C135.421 290.126 135.798 289.944 136.171 289.757C136.52 289.58 136.865 289.402 137.209 289.216C137.217 289.211 137.23 289.211 137.238 289.202C137.316 289.16 137.394 289.118 137.468 289.076H137.472C139.361 288.044 141.183 286.86 142.923 285.533C143.481 285.108 144.031 284.67 144.573 284.217C145.007 283.848 145.434 283.475 145.861 283.092C147.965 281.187 149.914 279.069 151.681 276.763V276.758C151.809 276.599 151.928 276.436 152.051 276.273C152.071 276.249 152.088 276.226 152.104 276.207C152.182 276.1 152.256 275.997 152.334 275.894V275.89C152.436 275.754 152.539 275.614 152.637 275.474C152.662 275.442 152.682 275.414 152.703 275.386V275.381C152.785 275.269 152.863 275.157 152.945 275.04C152.986 274.984 153.023 274.928 153.064 274.872V274.868C153.306 274.522 153.54 274.177 153.774 273.822C153.835 273.729 153.897 273.631 153.962 273.533C154.258 273.08 154.545 272.618 154.824 272.156V272.151C154.93 271.978 155.033 271.801 155.14 271.628C155.242 271.451 155.345 271.274 155.447 271.096C155.55 270.909 155.656 270.727 155.759 270.541L155.771 270.513C155.874 270.335 155.976 270.149 156.075 269.967C156.153 269.817 156.231 269.673 156.309 269.528C156.358 269.43 156.411 269.332 156.46 269.229C156.48 269.198 156.497 269.165 156.514 269.131C156.629 268.902 156.743 268.674 156.858 268.445C156.994 268.179 157.125 267.908 157.256 267.638C157.305 267.526 157.359 267.413 157.412 267.301C157.433 267.264 157.449 267.227 157.465 267.189C157.527 267.059 157.588 266.923 157.646 266.788C157.707 266.657 157.769 266.522 157.831 266.387C157.888 266.256 157.949 266.121 158.007 265.985C158.052 265.883 158.093 265.78 158.138 265.677C158.141 265.669 158.145 265.661 158.15 265.654C158.171 265.602 158.192 265.556 158.208 265.509C158.213 265.502 158.217 265.494 158.22 265.486C158.265 265.383 158.306 265.276 158.351 265.173C158.409 265.038 158.462 264.898 158.52 264.762C158.557 264.669 158.598 264.571 158.635 264.473C158.688 264.338 158.745 264.202 158.795 264.062C158.852 263.922 158.905 263.782 158.959 263.637C158.974 263.603 158.988 263.567 159 263.53C159.028 263.465 159.049 263.399 159.073 263.334C159.139 263.161 159.205 262.984 159.266 262.811C159.34 262.615 159.41 262.414 159.475 262.218C159.541 262.036 159.603 261.85 159.664 261.663L159.689 261.598C160.645 258.733 161.369 255.776 161.855 252.762V252.757C162.128 251.037 162.324 249.301 162.441 247.558C162.445 247.46 162.454 247.366 162.458 247.273C162.532 246.092 162.564 244.906 162.564 243.716C162.564 243.189 162.556 242.666 162.544 242.143C162.257 231.21 158.831 220.685 152.789 212.177C152.658 211.991 152.526 211.804 152.391 211.617C152.256 211.43 152.116 211.248 151.981 211.066C147.484 205.074 141.813 200.368 135.424 197.328C129.036 194.287 122.108 192.997 115.201 193.561C108.294 194.126 101.6 196.529 95.6592 200.578C89.7182 204.626 84.6962 210.206 80.9982 216.868C80.7972 217.232 80.5962 217.601 80.4034 217.97C80.2065 218.343 80.0178 218.717 79.8291 219.095C76.1129 226.611 74.1658 235.092 74.1764 243.716Z" fill="#F2F2F2"/>
<path d="M116.616 210.825C123.883 212.947 131.33 214.17 138.828 214.473C139.962 214.543 141.098 214.535 142.231 214.447C144.721 214.209 146.853 213.318 149.228 212.832C150.37 212.598 151.642 212.428 152.791 212.176C152.526 211.801 152.255 211.431 151.98 211.065C149.501 211.303 146.984 212.083 144.476 212.445C140.212 213.062 135.435 212.374 132.202 210.676C130.634 209.852 129.433 208.824 127.87 207.996C127.658 207.872 127.427 207.792 127.19 207.759C126.74 207.744 126.294 207.875 125.907 208.138C123.286 209.644 119.479 210.868 115.946 210.195C115.682 210.429 116.183 210.696 116.616 210.825Z" fill="white"/>
<path d="M100.981 216.125C100.949 216.119 100.916 216.113 100.884 216.107C101.02 216.011 101.147 215.902 101.266 215.78L100.981 216.125Z" fill="white"/>
<path d="M79.83 219.097C81.3056 219.231 82.789 219.331 84.2801 219.396C85.4139 219.466 86.5504 219.457 87.6833 219.37C90.1728 219.13 92.3053 218.241 94.6803 217.755C96.8569 217.31 99.5018 217.095 100.884 216.107C97.312 215.404 93.6113 216.836 89.9282 217.369C86.949 217.785 83.929 217.616 81.0003 216.867C80.5926 217.597 80.2025 218.34 79.83 219.097Z" fill="white"/>
<path d="M97.6814 288.156C98.0342 288.376 98.3911 288.586 98.748 288.786C98.8751 288.856 99.0064 288.926 99.1336 289.001C99.2402 289.057 99.3469 289.118 99.4535 289.174C99.4864 289.192 99.5151 289.206 99.5438 289.225C99.634 289.272 99.7202 289.318 99.8104 289.365C99.9089 289.416 100.007 289.468 100.102 289.519C100.212 289.575 100.319 289.631 100.43 289.682C100.84 289.893 101.254 290.093 101.669 290.285C103.153 290.977 104.671 291.576 106.214 292.077C106.284 292.1 106.357 292.124 106.431 292.147C107.092 292.357 107.756 292.548 108.425 292.721C109.594 293.029 110.774 293.281 111.965 293.477H111.973C112.117 293.501 112.256 293.524 112.4 293.547C112.412 293.547 112.424 293.552 112.441 293.552C112.441 293.557 112.441 293.557 112.445 293.552C112.601 293.575 112.761 293.599 112.917 293.622C112.927 293.626 112.938 293.627 112.949 293.627C113.097 293.65 113.249 293.669 113.397 293.687C113.557 293.706 113.717 293.725 113.877 293.743C114 293.757 114.123 293.771 114.246 293.785C114.256 293.789 114.267 293.791 114.279 293.79C114.389 293.799 114.5 293.813 114.611 293.823H114.627C114.722 293.832 114.82 293.841 114.914 293.851C116.059 293.953 117.207 294 118.372 294C119.632 294 120.883 293.944 122.118 293.823H122.13C122.397 293.795 122.659 293.767 122.922 293.739C122.991 293.729 123.057 293.725 123.127 293.715C123.139 293.715 123.155 293.711 123.168 293.711C123.188 293.706 123.209 293.706 123.233 293.701C123.245 293.702 123.256 293.7 123.266 293.697C123.356 293.687 123.447 293.673 123.541 293.664L123.849 293.622C123.951 293.608 124.054 293.589 124.156 293.575C124.181 293.571 124.202 293.571 124.226 293.566C124.3 293.557 124.374 293.543 124.448 293.529C124.485 293.524 124.521 293.519 124.554 293.515C124.628 293.501 124.698 293.491 124.772 293.477H124.776C127.027 293.109 129.249 292.539 131.421 291.774C131.536 291.732 131.651 291.694 131.766 291.652C131.236 288.842 130.146 286.207 128.579 283.952C127.012 281.698 125.01 279.883 122.729 278.648C123.293 278.037 123.683 277.246 123.849 276.38C123.955 275.821 123.964 275.244 123.874 274.682C123.783 274.12 123.597 273.583 123.324 273.103C122.791 272.173 121.956 271.522 121.002 271.292L114.923 269.845C113.944 269.628 112.93 269.859 112.1 270.489C111.27 271.118 110.693 272.095 110.492 273.206C110.43 273.547 110.403 273.894 110.41 274.242C104.557 278.676 100.344 283.274 97.6814 288.156Z" fill="#3D8D7F"/>
<path d="M115.632 267.113C122.627 267.113 128.297 260.661 128.297 252.702C128.297 244.742 122.627 238.29 115.632 238.29C108.637 238.29 102.966 244.742 102.966 252.702C102.966 260.661 108.637 267.113 115.632 267.113Z" fill="#FFB8B8"/>
<path d="M107.737 265.127C106.387 264.077 105.007 262.06 104.087 260.548C102.866 258.56 102.027 256.303 101.622 253.923C101.218 251.543 101.257 249.093 101.738 246.731C101.892 245.787 102.269 244.908 102.828 244.19C103.425 243.518 104.399 243.199 105.127 243.674C104.929 243.069 104.841 242.424 104.87 241.778C104.899 241.133 105.044 240.501 105.296 239.922C105.808 238.765 106.549 237.761 107.462 236.987C109.207 235.458 111.283 234.495 113.47 234.2C115.657 233.906 117.874 234.29 119.884 235.313C120.676 235.731 119.376 232.509 120.204 232.82C121.027 233.182 121.941 233.164 122.752 232.769C123.531 232.323 126.113 234.973 125.814 234.041C126.405 234.346 126.918 234.817 127.307 235.409C127.695 236.001 127.945 236.695 128.034 237.426C128.123 238.158 128.048 238.903 127.815 239.593C127.583 240.283 127.201 240.894 126.705 241.371C126.051 241.998 125.235 242.36 124.519 242.893C123.265 243.897 122.378 245.388 122.024 247.086C121.67 248.783 121.875 250.57 122.6 252.107C121.847 251.556 121.021 251.148 120.153 250.897C119.718 250.776 119.264 250.775 118.828 250.895C118.392 251.014 117.988 251.25 117.649 251.582C117.365 251.952 117.151 252.383 117.019 252.85C116.888 253.317 116.841 253.809 116.883 254.297C116.911 255.275 117.116 256.239 117.139 257.217C117.206 260.087 118.557 265.544 116.601 267.069C115.058 268.273 109.581 266.56 107.737 265.127Z" fill="#2F2E41"/>
<path d="M124.34 180.568C124.074 180.568 123.81 180.507 123.563 180.39C123.196 180.222 122.882 179.932 122.662 179.557C122.442 179.183 122.327 178.742 122.331 178.292V176.011C122.331 175.532 122.164 175.073 121.866 174.735C121.569 174.397 121.166 174.206 120.745 174.206C120.216 174.205 119.709 173.965 119.334 173.54C118.96 173.114 118.75 172.536 118.749 171.934V140.682C118.75 140.08 118.96 139.503 119.334 139.077C119.708 138.651 120.216 138.411 120.745 138.411H211.741C212.27 138.411 212.777 138.651 213.152 139.077C213.526 139.503 213.736 140.08 213.737 140.682V171.934C213.736 172.536 213.526 173.114 213.152 173.54C212.777 173.965 212.27 174.205 211.741 174.206H131.399C131.19 174.205 130.984 174.251 130.791 174.342C130.599 174.433 130.424 174.566 130.277 174.734L125.739 179.898C125.557 180.109 125.339 180.277 125.099 180.393C124.859 180.508 124.601 180.568 124.34 180.568Z" fill="white"/>
<path d="M124.34 181.035C124.02 181.035 123.702 180.962 123.406 180.821C122.964 180.619 122.585 180.269 122.32 179.817C122.055 179.366 121.916 178.834 121.921 178.292V176.011C121.921 175.656 121.797 175.316 121.576 175.065C121.356 174.814 121.057 174.673 120.745 174.672C120.107 174.672 119.496 174.383 119.044 173.869C118.593 173.356 118.339 172.66 118.339 171.934V140.682C118.339 139.956 118.593 139.26 119.044 138.747C119.495 138.234 120.107 137.945 120.745 137.944H211.741C212.379 137.945 212.99 138.234 213.442 138.747C213.893 139.26 214.146 139.956 214.147 140.682V171.934C214.146 172.66 213.893 173.356 213.442 173.869C212.99 174.383 212.379 174.672 211.741 174.672H131.399C131.244 174.672 131.091 174.706 130.948 174.774C130.806 174.841 130.676 174.94 130.567 175.064L126.029 180.228C125.809 180.483 125.546 180.685 125.256 180.824C124.966 180.963 124.655 181.034 124.34 181.035ZM120.745 138.877C120.325 138.878 119.921 139.068 119.624 139.407C119.327 139.745 119.16 140.204 119.159 140.682V171.934C119.16 172.412 119.327 172.871 119.624 173.21C119.922 173.548 120.325 173.738 120.745 173.739C121.275 173.74 121.782 173.979 122.156 174.405C122.53 174.831 122.741 175.409 122.742 176.011V178.292C122.742 178.649 122.835 178.997 123.009 179.294C123.183 179.591 123.431 179.822 123.721 179.959C124.011 180.095 124.329 180.131 124.637 180.061C124.945 179.992 125.227 179.82 125.449 179.568L129.987 174.404C130.172 174.193 130.392 174.025 130.634 173.911C130.877 173.797 131.136 173.738 131.399 173.739H211.741C212.161 173.738 212.564 173.548 212.862 173.21C213.159 172.871 213.326 172.412 213.327 171.934V140.682C213.326 140.204 213.159 139.745 212.862 139.407C212.564 139.068 212.161 138.878 211.741 138.877L120.745 138.877Z" fill="#3F3D56"/>
<path d="M203.921 152.559H130.133C129.851 152.559 129.581 152.432 129.382 152.205C129.182 151.978 129.07 151.671 129.07 151.35C129.07 151.029 129.182 150.722 129.382 150.495C129.581 150.268 129.851 150.141 130.133 150.141H203.921C204.203 150.141 204.473 150.268 204.673 150.495C204.872 150.722 204.984 151.029 204.984 151.35C204.984 151.671 204.872 151.978 204.673 152.205C204.473 152.432 204.203 152.559 203.921 152.559Z" fill="#3D8D7F"/>
<path d="M203.786 157.697H130.133C129.851 157.697 129.581 157.569 129.382 157.343C129.182 157.116 129.07 156.808 129.07 156.488C129.07 156.167 129.182 155.859 129.382 155.632C129.581 155.406 129.851 155.278 130.133 155.278H203.786C204.067 155.278 204.338 155.406 204.537 155.632C204.736 155.859 204.848 156.167 204.848 156.488C204.848 156.808 204.736 157.116 204.537 157.343C204.338 157.569 204.067 157.697 203.786 157.697Z" fill="#E6E6E6"/>
<path d="M203.712 162.834H130.133C129.851 162.834 129.581 162.707 129.382 162.48C129.182 162.253 129.07 161.946 129.07 161.625C129.07 161.304 129.182 160.997 129.382 160.77C129.581 160.543 129.851 160.416 130.133 160.416H203.712C203.994 160.416 204.264 160.543 204.464 160.77C204.663 160.997 204.775 161.304 204.775 161.625C204.775 161.946 204.663 162.253 204.464 162.48C204.264 162.707 203.994 162.834 203.712 162.834Z" fill="#E6E6E6"/>
<path d="M320.122 133.561C320.122 134.695 320.089 135.829 320.019 136.954C319.945 138.299 319.818 139.634 319.646 140.959C319.067 145.423 317.96 149.776 316.356 153.902C316.274 154.108 316.192 154.313 316.11 154.518L315.987 154.827C315.946 154.929 315.901 155.032 315.86 155.13C315.802 155.265 315.749 155.396 315.692 155.527C315.622 155.69 315.552 155.853 315.478 156.017C315.47 156.035 315.462 156.059 315.45 156.082C315.388 156.222 315.331 156.357 315.265 156.498C315.253 156.528 315.239 156.558 315.224 156.586C315.154 156.745 315.08 156.908 315.007 157.067C314.924 157.235 314.847 157.408 314.765 157.576C314.568 157.991 314.363 158.402 314.153 158.813C314.092 158.934 314.03 159.055 313.965 159.177C313.907 159.289 313.85 159.401 313.788 159.513C313.747 159.587 313.706 159.667 313.665 159.741C313.599 159.868 313.534 159.989 313.464 160.115C313.312 160.39 313.156 160.666 313.005 160.941H313.001C312.931 161.067 312.857 161.193 312.783 161.314V161.319C312.566 161.693 312.34 162.066 312.115 162.435C312.114 162.435 312.113 162.435 312.113 162.435C312.112 162.435 312.112 162.436 312.112 162.436C312.111 162.436 312.111 162.437 312.111 162.438C312.111 162.438 312.11 162.439 312.11 162.439C311.93 162.738 311.741 163.027 311.557 163.317V163.322C311.434 163.504 311.315 163.69 311.192 163.872C311.093 164.022 310.991 164.176 310.888 164.325C310.868 164.358 310.843 164.386 310.822 164.418V164.423C310.794 164.465 310.765 164.502 310.736 164.544C310.301 165.179 309.853 165.8 309.391 166.407L309.317 166.505C309.292 166.537 309.264 166.57 309.239 166.607C309.198 166.659 309.161 166.71 309.12 166.762C309.083 166.813 309.042 166.864 309.001 166.916C306.592 170.004 303.86 172.745 300.867 175.079C300.469 175.392 300.063 175.695 299.656 175.989C299.554 176.064 299.451 176.139 299.349 176.209C299.32 176.232 299.287 176.255 299.259 176.279C299.201 176.316 299.148 176.353 299.09 176.395C299.037 176.433 298.984 176.47 298.926 176.507C298.709 176.661 298.487 176.811 298.266 176.96C298.213 176.998 298.155 177.035 298.098 177.072C298.044 177.105 297.987 177.142 297.929 177.18C297.929 177.184 297.929 177.184 297.925 177.184H297.921V177.189H297.917C297.642 177.371 297.363 177.548 297.08 177.721C296.929 177.814 296.773 177.912 296.617 178.001C296.264 178.22 295.907 178.43 295.55 178.631C295.423 178.701 295.292 178.771 295.165 178.846C295.058 178.902 294.951 178.963 294.845 179.019C294.812 179.037 294.783 179.051 294.754 179.07C294.664 179.117 294.578 179.163 294.488 179.21C294.389 179.261 294.291 179.313 294.197 179.364C294.086 179.42 293.979 179.476 293.868 179.527C293.458 179.737 293.044 179.938 292.63 180.129C291.145 180.822 289.627 181.42 288.084 181.922C288.015 181.945 287.941 181.969 287.867 181.992C287.207 182.202 286.542 182.393 285.873 182.566C284.704 182.874 283.524 183.126 282.333 183.322H282.325C282.182 183.345 282.042 183.369 281.898 183.392C281.886 183.392 281.874 183.397 281.857 183.397C281.857 183.401 281.857 183.401 281.853 183.397C281.697 183.42 281.537 183.443 281.382 183.467C281.371 183.47 281.36 183.472 281.349 183.471C281.201 183.495 281.049 183.513 280.902 183.532C280.742 183.551 280.582 183.569 280.422 183.588C280.299 183.602 280.176 183.616 280.052 183.63C280.042 183.634 280.031 183.636 280.02 183.635C279.909 183.644 279.798 183.658 279.687 183.668H279.671C279.577 183.677 279.478 183.686 279.384 183.696C278.239 183.798 277.091 183.845 275.926 183.845C274.666 183.845 273.415 183.789 272.181 183.668H272.168C271.902 183.64 271.639 183.612 271.377 183.584C271.307 183.574 271.241 183.569 271.171 183.56C271.159 183.56 271.143 183.556 271.13 183.556C271.11 183.551 271.089 183.551 271.065 183.546C271.054 183.547 271.043 183.545 271.032 183.542C270.942 183.532 270.852 183.518 270.757 183.509L270.449 183.467C270.347 183.453 270.244 183.434 270.142 183.42C270.117 183.415 270.097 183.415 270.072 183.411C269.998 183.401 269.924 183.387 269.851 183.374C269.814 183.369 269.777 183.364 269.744 183.359C269.67 183.345 269.6 183.336 269.527 183.322H269.522C267.271 182.953 265.049 182.384 262.877 181.618C262.762 181.576 262.647 181.539 262.532 181.497C262.528 181.497 262.524 181.492 262.52 181.492C262.487 181.478 262.45 181.469 262.418 181.455C262.11 181.343 261.806 181.226 261.503 181.105C261.084 180.946 260.67 180.774 260.256 180.596C260.145 180.545 260.034 180.498 259.924 180.447C259.698 180.349 259.476 180.246 259.255 180.144C258.877 179.971 258.5 179.789 258.127 179.602C257.778 179.425 257.434 179.247 257.089 179.061C257.081 179.056 257.068 179.056 257.06 179.047C256.982 179.005 256.904 178.963 256.831 178.921H256.826C254.937 177.889 253.115 176.705 251.375 175.378C250.817 174.953 250.267 174.514 249.726 174.062C249.291 173.693 248.864 173.32 248.438 172.937C246.333 171.032 244.385 168.913 242.617 166.608V166.603C242.49 166.444 242.371 166.281 242.248 166.117C242.227 166.094 242.211 166.071 242.194 166.052C242.116 165.945 242.042 165.842 241.965 165.739V165.735C241.862 165.599 241.759 165.459 241.661 165.319C241.636 165.287 241.616 165.259 241.595 165.231V165.226C241.513 165.114 241.435 165.002 241.353 164.885C241.312 164.829 241.275 164.773 241.234 164.717V164.712C240.992 164.367 240.759 164.022 240.525 163.667C240.463 163.574 240.402 163.476 240.336 163.378C240.041 162.925 239.753 162.463 239.475 162.001V161.996C239.368 161.823 239.265 161.646 239.159 161.473C239.056 161.296 238.954 161.118 238.851 160.941C238.748 160.754 238.642 160.572 238.539 160.386L238.527 160.358C238.424 160.18 238.322 159.994 238.223 159.812C238.145 159.662 238.068 159.517 237.99 159.373C237.94 159.275 237.887 159.177 237.838 159.074C237.819 159.042 237.801 159.01 237.784 158.976C237.67 158.747 237.555 158.519 237.44 158.29C237.305 158.024 237.173 157.753 237.042 157.482C236.993 157.37 236.939 157.258 236.886 157.146C236.866 157.109 236.849 157.072 236.833 157.034C236.771 156.904 236.71 156.768 236.652 156.633C236.591 156.502 236.529 156.367 236.468 156.231C236.41 156.101 236.349 155.965 236.291 155.83C236.246 155.727 236.205 155.625 236.16 155.522C236.157 155.514 236.153 155.506 236.148 155.499C236.127 155.447 236.107 155.401 236.09 155.354C236.085 155.347 236.081 155.339 236.078 155.331C236.033 155.228 235.992 155.121 235.947 155.018C235.889 154.883 235.836 154.743 235.779 154.607C235.742 154.514 235.701 154.416 235.664 154.318C235.61 154.182 235.553 154.047 235.504 153.907C235.446 153.767 235.393 153.627 235.34 153.482C235.324 153.447 235.311 153.412 235.299 153.375C235.27 153.31 235.249 153.244 235.225 153.179C235.159 153.006 235.093 152.829 235.032 152.656C234.958 152.46 234.888 152.259 234.823 152.063C234.757 151.881 234.696 151.695 234.634 151.508L234.609 151.443C233.654 148.578 232.929 145.621 232.444 142.607V142.602C232.17 140.881 231.974 139.146 231.857 137.402C231.853 137.304 231.845 137.211 231.841 137.118C231.767 135.937 231.734 134.751 231.734 133.561C231.734 133.034 231.742 132.511 231.754 131.988C232.041 121.055 235.467 110.529 241.509 102.022C241.64 101.835 241.772 101.649 241.907 101.462C242.042 101.275 242.182 101.093 242.317 100.911C246.814 94.9191 252.486 90.213 258.874 87.1724C265.263 84.1318 272.19 82.8418 279.097 83.4064C286.004 83.9709 292.698 86.3743 298.639 90.4226C304.58 94.471 309.602 100.051 313.3 106.713C313.501 107.077 313.702 107.446 313.895 107.815C314.092 108.188 314.28 108.561 314.469 108.94C318.185 116.456 320.132 124.937 320.122 133.561Z" fill="#F2F2F2"/>
<path d="M277.682 100.67C270.415 102.792 262.968 104.015 255.47 104.318C254.336 104.388 253.2 104.38 252.067 104.292C249.578 104.053 247.445 103.163 245.07 102.677C243.928 102.443 242.657 102.273 241.507 102.021C241.773 101.646 242.043 101.275 242.318 100.91C244.797 101.148 247.314 101.928 249.822 102.29C254.086 102.907 258.864 102.219 262.096 100.521C263.664 99.6971 264.865 98.6688 266.428 97.8412C266.641 97.717 266.871 97.6368 267.108 97.6042C267.559 97.5888 268.004 97.7202 268.391 97.9829C271.013 99.4889 274.819 100.713 278.352 100.039C278.616 100.274 278.115 100.541 277.682 100.67Z" fill="white"/>
<path d="M293.317 105.97C293.35 105.964 293.382 105.958 293.414 105.952C293.279 105.856 293.151 105.747 293.032 105.625L293.317 105.97Z" fill="white"/>
<path d="M314.468 108.942C312.993 109.076 311.509 109.176 310.018 109.241C308.884 109.311 307.748 109.302 306.615 109.215C304.125 108.975 301.993 108.086 299.618 107.6C297.441 107.155 294.796 106.94 293.414 105.952C296.986 105.249 300.687 106.681 304.37 107.214C307.349 107.63 310.369 107.461 313.298 106.712C313.706 107.442 314.096 108.185 314.468 108.942Z" fill="white"/>
<path d="M270.944 155.565C278.275 155.565 284.217 148.652 284.217 140.124C284.217 131.597 278.275 124.684 270.944 124.684C263.613 124.684 257.67 131.597 257.67 140.124C257.67 148.652 263.613 155.565 270.944 155.565Z" fill="#FFB6B6"/>
<path d="M296.617 178.001C296.264 178.22 295.907 178.431 295.55 178.631C295.423 178.701 295.292 178.771 295.165 178.846C295.058 178.902 294.951 178.963 294.845 179.019C294.812 179.037 294.783 179.051 294.754 179.07C294.664 179.117 294.578 179.163 294.488 179.21C294.389 179.261 294.291 179.313 294.197 179.364C294.086 179.42 293.979 179.476 293.868 179.527C293.458 179.737 293.044 179.938 292.63 180.13C291.145 180.822 289.627 181.42 288.084 181.922C288.015 181.945 287.941 181.969 287.867 181.992C287.207 182.202 286.542 182.393 285.873 182.566C284.704 182.874 283.524 183.126 282.333 183.322H282.325C282.181 183.346 282.042 183.369 281.898 183.392C281.886 183.392 281.874 183.397 281.857 183.397C281.857 183.402 281.857 183.402 281.853 183.397C281.697 183.42 281.537 183.444 281.382 183.467C281.371 183.47 281.36 183.472 281.349 183.472C281.201 183.495 281.049 183.514 280.902 183.532C280.742 183.551 280.582 183.57 280.422 183.588C280.299 183.602 280.176 183.616 280.052 183.63C280.042 183.634 280.031 183.636 280.02 183.635C279.909 183.644 279.798 183.658 279.687 183.668H279.671C279.577 183.677 279.478 183.686 279.384 183.696C278.239 183.798 277.091 183.845 275.926 183.845C274.666 183.845 273.415 183.789 272.181 183.668H272.168C271.902 183.64 271.639 183.612 271.377 183.584C271.307 183.574 271.241 183.57 271.171 183.56C271.159 183.56 271.143 183.556 271.13 183.556C271.11 183.551 271.089 183.551 271.065 183.546C271.054 183.547 271.043 183.545 271.032 183.542C270.942 183.532 270.851 183.518 270.757 183.509L270.449 183.467C270.347 183.453 270.244 183.434 270.142 183.42C270.117 183.416 270.097 183.416 270.072 183.411C269.998 183.402 269.924 183.388 269.851 183.374C269.814 183.369 269.777 183.364 269.744 183.36C269.67 183.346 269.6 183.336 269.526 183.322H269.522C267.271 182.953 265.049 182.384 262.877 181.619C262.762 181.577 262.647 181.539 262.532 181.497C263.062 178.687 264.152 176.052 265.719 173.797C267.286 171.542 269.288 169.728 271.569 168.493C271.005 167.882 270.615 167.091 270.449 166.225C270.343 165.666 270.335 165.089 270.425 164.527C270.515 163.965 270.702 163.428 270.975 162.948C271.507 162.018 272.342 161.367 273.296 161.137L279.376 159.69C280.354 159.473 281.369 159.704 282.198 160.334C283.028 160.963 283.606 161.939 283.806 163.051C283.868 163.392 283.895 163.739 283.888 164.087C289.742 168.521 293.954 173.119 296.617 178.001Z" fill="#3D8D7F"/>
<path d="M306.463 133.428C304.207 130.434 303.134 126.462 301.33 123.062C299.526 119.663 296.388 116.62 293.072 117.411C290.786 117.956 289.019 120.252 288.125 122.81C287.231 125.369 287.063 128.191 286.906 130.955C286.962 125.274 283.672 119.767 279.141 117.954C274.61 116.142 269.188 118.164 266.341 122.728C265.098 121.417 263.476 120.671 261.783 120.631C260.089 120.59 258.441 121.258 257.151 122.508C254.605 125.098 254.041 130.028 255.914 133.331C257.787 136.635 261.843 137.865 264.819 136.033L265.872 137.134C265.279 139.492 266.428 142.276 268.359 143.163C269.925 143.883 272.135 143.763 272.721 145.633C273.13 146.939 272.365 148.334 271.551 149.337C270.737 150.341 269.771 151.378 269.673 152.767C269.525 154.863 271.429 156.331 273.159 156.773C277.331 157.84 281.961 155.641 284.366 151.451C284.412 151.37 284.463 151.29 284.517 151.209C285.866 149.245 286.85 146.99 287.407 144.579C287.964 142.169 288.084 139.655 287.758 137.19C287.623 136.222 287.759 135.502 288.346 135.272C290.882 134.281 297.988 136.361 300.138 138.242C302.288 140.122 304.011 142.61 306.082 144.612C308.153 146.614 310.793 148.158 313.423 147.612C315.529 147.176 317.321 145.436 318.527 143.337C319.732 141.238 320.426 138.792 321.047 136.36C316.389 139.422 310.014 138.14 306.463 133.428Z" fill="#2F2E41"/>
<path d="M33.9758 102.288C33.9758 103.422 34.0087 104.557 34.0784 105.681C34.1522 107.026 34.2794 108.361 34.4517 109.686C35.0307 114.15 36.1373 118.503 37.7416 122.629C37.8236 122.835 37.9056 123.04 37.9877 123.246L38.1108 123.554C38.1518 123.656 38.1969 123.759 38.2379 123.857C38.2953 123.992 38.3487 124.123 38.4061 124.254C38.4758 124.417 38.5456 124.581 38.6194 124.744C38.6276 124.763 38.6358 124.786 38.6481 124.809C38.7097 124.949 38.7671 125.085 38.8327 125.225C38.8448 125.255 38.8585 125.285 38.8737 125.313C38.9435 125.472 39.0173 125.635 39.0912 125.794C39.1732 125.962 39.2511 126.135 39.3332 126.303C39.5301 126.718 39.7352 127.129 39.9444 127.54C40.0059 127.661 40.0675 127.783 40.1331 127.904C40.1905 128.016 40.248 128.128 40.3095 128.24C40.3505 128.315 40.3915 128.394 40.4325 128.469C40.4982 128.595 40.5638 128.716 40.6335 128.842C40.7853 129.117 40.9412 129.393 41.093 129.668H41.0971C41.1668 129.794 41.2407 129.92 41.3145 130.042V130.046C41.5319 130.42 41.7575 130.793 41.9831 131.162C41.9837 131.162 41.9842 131.162 41.9847 131.162C41.9852 131.162 41.9857 131.163 41.9861 131.163C41.9864 131.164 41.9868 131.164 41.987 131.165C41.9872 131.165 41.9873 131.166 41.9872 131.166C42.1677 131.465 42.3564 131.755 42.541 132.044V132.049C42.6641 132.231 42.783 132.417 42.9061 132.599C43.0046 132.749 43.1071 132.903 43.2097 133.052C43.2302 133.085 43.2548 133.113 43.2753 133.146V133.15C43.304 133.192 43.3327 133.23 43.3614 133.272C43.7963 133.906 44.2448 134.527 44.7069 135.134L44.7808 135.232C44.8054 135.265 44.8341 135.297 44.8587 135.335C44.8997 135.386 44.9366 135.437 44.9777 135.489C45.0146 135.54 45.0556 135.591 45.0966 135.643C47.5058 138.731 50.2375 141.472 53.2311 143.806C53.629 144.119 54.0351 144.422 54.4412 144.716C54.5438 144.791 54.6463 144.866 54.7489 144.936C54.7776 144.959 54.8104 144.983 54.8391 145.006C54.8965 145.043 54.9499 145.081 55.0073 145.123C55.0606 145.16 55.1139 145.197 55.1714 145.235C55.3888 145.389 55.6103 145.538 55.8318 145.687C55.8852 145.725 55.9426 145.762 56 145.799C56.0533 145.832 56.1108 145.869 56.1682 145.907C56.1682 145.911 56.1682 145.911 56.1723 145.911H56.1764V145.916H56.1805C56.4553 146.098 56.7343 146.275 57.0173 146.448C57.1691 146.542 57.325 146.64 57.4809 146.728C57.8336 146.948 58.1905 147.158 58.5474 147.358C58.6746 147.428 58.8058 147.498 58.933 147.573C59.0397 147.629 59.1463 147.69 59.253 147.746C59.2858 147.764 59.3145 147.778 59.3432 147.797C59.4335 147.844 59.5196 147.89 59.6099 147.937C59.7083 147.989 59.8067 148.04 59.9011 148.091C60.0119 148.147 60.1185 148.203 60.2293 148.255C60.6395 148.465 61.0538 148.665 61.4681 148.857C62.9529 149.549 64.4702 150.148 66.0132 150.649C66.083 150.672 66.1568 150.696 66.2306 150.719C66.8911 150.929 67.5556 151.12 68.2243 151.293C69.3934 151.601 70.5734 151.853 71.7644 152.049H71.7726C71.9162 152.073 72.0556 152.096 72.1992 152.119C72.2115 152.119 72.2238 152.124 72.2402 152.124C72.2402 152.129 72.2402 152.129 72.2443 152.124C72.4002 152.147 72.5602 152.171 72.7161 152.194C72.7267 152.198 72.7378 152.199 72.7489 152.199C72.8966 152.222 73.0483 152.241 73.196 152.259C73.356 152.278 73.516 152.297 73.676 152.315C73.799 152.329 73.9221 152.343 74.0452 152.357C74.0557 152.361 74.0669 152.363 74.078 152.362C74.1887 152.371 74.2995 152.385 74.4102 152.395H74.4267C74.521 152.404 74.6194 152.413 74.7138 152.423C75.8583 152.525 77.0069 152.572 78.1719 152.572C79.4312 152.572 80.6823 152.516 81.9171 152.395H81.9294C82.196 152.367 82.4586 152.339 82.7211 152.311C82.7908 152.301 82.8565 152.297 82.9262 152.287C82.9385 152.287 82.9549 152.283 82.9672 152.283C82.9877 152.278 83.0082 152.278 83.0328 152.273C83.0439 152.274 83.055 152.272 83.0657 152.269C83.1559 152.259 83.2462 152.245 83.3405 152.236L83.6482 152.194C83.7507 152.18 83.8533 152.161 83.9558 152.147C83.9804 152.143 84.0009 152.143 84.0256 152.138C84.0994 152.129 84.1732 152.115 84.2471 152.101C84.284 152.096 84.3209 152.091 84.3537 152.087C84.4276 152.073 84.4973 152.063 84.5711 152.049H84.5752C86.8262 151.681 89.0482 151.111 91.2206 150.346C91.3355 150.304 91.4504 150.266 91.5652 150.224C91.5693 150.224 91.5734 150.22 91.5775 150.22C91.6103 150.206 91.6473 150.196 91.6801 150.182C91.9877 150.07 92.2913 149.954 92.5948 149.832C93.0133 149.674 93.4276 149.501 93.8419 149.323C93.9526 149.272 94.0634 149.225 94.1741 149.174C94.3998 149.076 94.6213 148.973 94.8428 148.871C95.2202 148.698 95.5976 148.516 95.9709 148.329C96.3195 148.152 96.6641 147.975 97.0087 147.788C97.0169 147.783 97.0292 147.783 97.0374 147.774C97.1154 147.732 97.1933 147.69 97.2671 147.648H97.2712C99.1603 146.616 100.982 145.432 102.723 144.105C103.281 143.68 103.83 143.242 104.372 142.789C104.807 142.42 105.233 142.047 105.66 141.664C107.765 139.759 109.713 137.641 111.481 135.335V135.33C111.608 135.171 111.727 135.008 111.85 134.845C111.871 134.821 111.887 134.798 111.903 134.779C111.981 134.672 112.055 134.569 112.133 134.467V134.462C112.236 134.326 112.338 134.186 112.437 134.046C112.461 134.014 112.482 133.986 112.502 133.958V133.953C112.584 133.841 112.662 133.729 112.744 133.612C112.785 133.556 112.822 133.5 112.863 133.444V133.44C113.105 133.094 113.339 132.749 113.573 132.394C113.635 132.301 113.696 132.203 113.762 132.105C114.057 131.652 114.344 131.19 114.623 130.728V130.723C114.73 130.55 114.832 130.373 114.939 130.2C115.042 130.023 115.144 129.846 115.247 129.668C115.349 129.482 115.456 129.3 115.558 129.113L115.571 129.085C115.673 128.907 115.776 128.721 115.874 128.539C115.952 128.389 116.03 128.245 116.108 128.1C116.157 128.002 116.211 127.904 116.26 127.801C116.279 127.77 116.297 127.737 116.313 127.703C116.428 127.474 116.543 127.246 116.658 127.017C116.793 126.751 116.924 126.48 117.056 126.21C117.105 126.098 117.158 125.986 117.212 125.874C117.232 125.836 117.248 125.799 117.265 125.761C117.326 125.631 117.388 125.495 117.445 125.36C117.507 125.229 117.568 125.094 117.63 124.959C117.687 124.828 117.749 124.693 117.806 124.557C117.851 124.455 117.892 124.352 117.938 124.249C117.941 124.241 117.945 124.233 117.95 124.226C117.97 124.174 117.991 124.128 118.007 124.081C118.012 124.074 118.016 124.066 118.02 124.058C118.065 123.955 118.106 123.848 118.151 123.745C118.208 123.61 118.262 123.47 118.319 123.334C118.356 123.241 118.397 123.143 118.434 123.045C118.487 122.91 118.545 122.774 118.594 122.634C118.651 122.494 118.705 122.354 118.758 122.209C118.773 122.175 118.787 122.139 118.799 122.102C118.828 122.037 118.848 121.971 118.873 121.906C118.939 121.733 119.004 121.556 119.066 121.383C119.14 121.187 119.209 120.987 119.275 120.79C119.341 120.608 119.402 120.422 119.464 120.235L119.488 120.17C120.444 117.305 121.169 114.348 121.654 111.334V111.329C121.928 109.609 122.124 107.873 122.241 106.13C122.245 106.032 122.253 105.938 122.257 105.845C122.331 104.664 122.364 103.478 122.364 102.288C122.364 101.761 122.356 101.238 122.343 100.715C122.057 89.782 118.631 79.2566 112.588 70.7493C112.457 70.5626 112.326 70.3759 112.191 70.1892C112.055 70.0025 111.916 69.8204 111.78 69.6384C107.284 63.6462 101.612 58.9401 95.2236 55.8996C88.835 52.859 81.9079 51.569 75.0008 52.1335C68.0936 52.6981 61.3997 55.1014 55.4587 59.1498C49.5176 63.1981 44.4956 68.7782 40.7976 75.4402C40.5966 75.8043 40.3956 76.173 40.2029 76.5418C40.0059 76.9152 39.8172 77.2886 39.6285 77.6667C35.9123 85.183 33.9652 93.664 33.9758 102.288Z" fill="#F2F2F2"/>
<path d="M76.4153 69.3974C83.6824 71.5191 91.1296 72.7422 98.6274 73.0452C99.7612 73.1155 100.898 73.1067 102.031 73.0189C104.52 72.7806 106.653 71.8903 109.028 71.4038C110.169 71.1705 111.441 71 112.591 70.7479C112.325 70.373 112.055 70.0026 111.779 69.6369C109.301 69.8751 106.784 70.6551 104.276 71.0175C100.012 71.6345 95.2341 70.946 92.0018 69.2481C90.4336 68.4243 89.2323 67.396 87.6696 66.5684C87.457 66.4442 87.2268 66.364 86.9896 66.3314C86.539 66.316 86.094 66.4474 85.7068 66.7101C83.085 68.2161 79.2784 69.44 75.7452 68.7666C75.4818 69.0011 75.9822 69.2682 76.4153 69.3974Z" fill="white"/>
<path d="M60.7803 74.6974C60.748 74.6906 60.7156 74.6854 60.6833 74.6791C60.8191 74.5833 60.9469 74.4738 61.0652 74.3517L60.7803 74.6974Z" fill="white"/>
<path d="M39.6294 77.6687C41.1051 77.8029 42.5884 77.9028 44.0795 77.9684C45.2134 78.038 46.3498 78.0292 47.4827 77.9421C49.9723 77.7025 52.1048 76.8135 54.4797 76.3269C56.6563 75.8817 59.3013 75.6673 60.6833 74.6792C57.1115 73.9757 53.4107 75.4077 49.7276 75.9407C46.7484 76.3575 43.7284 76.1878 40.7998 75.4391C40.392 76.1689 40.0019 76.9121 39.6294 77.6687Z" fill="white"/>
<path d="M57.4809 146.728C57.8336 146.948 58.1905 147.158 58.5474 147.358C58.6746 147.428 58.8058 147.498 58.933 147.573C59.0397 147.629 59.1463 147.69 59.253 147.746C59.2858 147.764 59.3145 147.778 59.3432 147.797C59.4335 147.844 59.5196 147.891 59.6099 147.937C59.7083 147.989 59.8068 148.04 59.9011 148.091C60.0119 148.147 60.1185 148.203 60.2293 148.255C60.6395 148.465 61.0538 148.665 61.4681 148.857C62.9529 149.549 64.4703 150.148 66.0132 150.649C66.083 150.672 66.1568 150.696 66.2306 150.719C66.8911 150.929 67.5557 151.12 68.2243 151.293C69.3934 151.601 70.5734 151.853 71.7644 152.049H71.7726C71.9162 152.073 72.0556 152.096 72.1992 152.119C72.2115 152.119 72.2238 152.124 72.2402 152.124C72.2402 152.129 72.2402 152.129 72.2443 152.124C72.4002 152.147 72.5602 152.171 72.7161 152.194C72.7267 152.198 72.7378 152.199 72.7489 152.199C72.8966 152.222 73.0484 152.241 73.196 152.259C73.356 152.278 73.516 152.297 73.676 152.315C73.799 152.329 73.9221 152.343 74.0452 152.357C74.0557 152.362 74.0669 152.363 74.078 152.362C74.1887 152.371 74.2995 152.385 74.4102 152.395H74.4267C74.521 152.404 74.6195 152.413 74.7138 152.423C75.8583 152.525 77.0069 152.572 78.1719 152.572C79.4312 152.572 80.6824 152.516 81.9171 152.395H81.9294C82.196 152.367 82.4586 152.339 82.7211 152.311C82.7908 152.301 82.8565 152.297 82.9262 152.287C82.9385 152.287 82.9549 152.283 82.9672 152.283C82.9877 152.278 83.0083 152.278 83.0329 152.273C83.044 152.274 83.055 152.272 83.0657 152.269C83.1559 152.259 83.2462 152.245 83.3405 152.236L83.6482 152.194C83.7507 152.18 83.8533 152.161 83.9558 152.147C83.9804 152.143 84.001 152.143 84.0256 152.138C84.0994 152.129 84.1732 152.115 84.2471 152.101C84.284 152.096 84.3209 152.091 84.3537 152.087C84.4276 152.073 84.4973 152.063 84.5712 152.049H84.5752C86.8262 151.681 89.0482 151.111 91.2206 150.346C91.3355 150.304 91.4504 150.266 91.5652 150.224C91.0356 147.414 89.9451 144.779 88.3782 142.524C86.8113 140.27 84.8098 138.455 82.5283 137.22C83.0926 136.609 83.4827 135.819 83.6482 134.952C83.7547 134.393 83.7631 133.816 83.673 133.254C83.5829 132.692 83.396 132.155 83.1231 131.675C82.5908 130.745 81.7557 130.094 80.8013 129.864L74.722 128.417C73.7434 128.2 72.729 128.432 71.8994 129.061C71.0698 129.69 70.492 130.667 70.2917 131.778C70.2297 132.119 70.2022 132.466 70.2097 132.814C64.356 137.248 60.1431 141.846 57.4809 146.728Z" fill="#3D8D7F"/>
<path d="M81.5309 123.748C89.7033 123.748 96.3284 116.21 96.3284 106.911C96.3284 97.6115 89.7033 90.0731 81.5309 90.0731C73.3584 90.0731 66.7333 97.6115 66.7333 106.911C66.7333 116.21 73.3584 123.748 81.5309 123.748Z" fill="#9E616A"/>
<path d="M79.4281 122.848C75.7235 123.986 71.6394 122.473 68.7483 119.602C65.8573 116.731 64.0488 112.663 63.0068 108.46C62.2436 105.383 61.8818 101.966 63.0861 99.0772C64.2904 96.1879 67.5316 94.2386 70.0322 95.698C68.4896 93.653 69.2602 90.2707 71.0619 88.5213C72.8635 86.7718 75.3374 86.2703 77.6936 85.9961C81.1131 85.5982 84.6452 85.5536 87.8991 86.8142C91.153 88.0747 94.1095 90.8306 95.1279 94.5661C96.168 95.1172 97.3393 95.2601 98.4584 94.9726C99.5776 94.6851 100.581 93.9834 101.312 92.9773C101.501 94.1328 101.35 95.3267 100.882 96.3744C100.414 97.4221 99.6555 98.2652 98.7241 98.7731L103.71 96.9339C104.567 98.999 103.065 101.555 101.143 102.216C99.2222 102.877 97.1483 102.155 95.3251 101.199C93.5019 100.244 91.7351 99.0359 89.7548 98.6633C87.7745 98.2907 85.4483 99.0147 84.5323 101.047C84.0525 102.111 84.0275 103.358 83.7489 104.511C83.4703 105.665 82.7647 106.861 81.7167 106.955C81.0545 107.015 80.4062 106.614 79.7459 106.696C79.3407 106.786 78.9676 107.01 78.6722 107.338C78.3768 107.667 78.172 108.086 78.0828 108.545C77.9184 109.465 77.9164 110.414 78.0769 111.336L79.3433 122.351L79.4281 122.848Z" fill="#2F2E41"/>
</g>
<defs>
<clipPath id="clip0_8_831">
<rect width="332" height="294" fill="white"/>
</clipPath>
</defs>
</svg>
