<svg width="332" height="294" viewBox="0 0 332 294" fill="none" xmlns="http://www.w3.org/2000/svg">
<g clip-path="url(#clip0_8_670)">
<path d="M46.5759 209.561C71.3333 209.561 91.4031 188.961 91.4031 163.55C91.4031 138.138 71.3333 117.538 46.5759 117.538C21.8185 117.538 1.74863 138.138 1.74863 163.55C1.74863 188.961 21.8185 209.561 46.5759 209.561Z" fill="#F0F0F0"/>
<path d="M46.6988 163.55H46.8221L49.0389 294H44.359L46.6988 163.55Z" fill="#F0F0F0"/>
<path d="M142.819 232.413C160.877 232.413 175.515 217.388 175.515 198.853C175.515 180.319 160.877 165.294 142.819 165.294C124.762 165.294 110.124 180.319 110.124 198.853C110.124 217.388 124.762 232.413 142.819 232.413Z" fill="#F0F0F0"/>
<path d="M142.909 198.853H142.999L144.616 294H141.203L142.909 198.853Z" fill="#F0F0F0"/>
<path d="M101.642 152.725C142.73 152.725 176.039 118.536 176.039 76.3625C176.039 34.1887 142.73 -7.62939e-06 101.642 -7.62939e-06C60.5532 -7.62939e-06 27.2446 34.1887 27.2446 76.3625C27.2446 118.536 60.5532 152.725 101.642 152.725Z" fill="#3D8D7F"/>
<path opacity="0.1" d="M156.574 25.3584C163.513 42.0201 164.455 60.6718 159.23 77.9804C154.005 95.289 142.954 110.127 128.052 119.842C113.15 129.557 95.3675 133.517 77.8827 131.014C60.3979 128.511 44.35 119.708 32.6065 106.178C36.8457 116.358 43.1905 125.47 51.2012 132.883C59.2118 140.296 68.6969 145.832 78.9993 149.109C89.3016 152.386 100.175 153.324 110.866 151.86C121.557 150.395 131.809 146.562 140.914 140.627C150.018 134.691 157.756 126.795 163.592 117.485C169.428 108.175 173.223 97.674 174.712 86.7095C176.202 75.745 175.351 64.5791 172.219 53.9856C169.087 43.392 163.749 33.624 156.574 25.3584Z" fill="#121212"/>
<path d="M101.437 76.3623H101.233L97.5534 292.863H105.32L101.437 76.3623Z" fill="#D4D3E0"/>
<path d="M331.596 293.931H0.404385C0.297135 293.931 0.194278 293.887 0.118441 293.809C0.0426044 293.732 0 293.626 0 293.516C0 293.406 0.0426044 293.3 0.118441 293.222C0.194278 293.145 0.297135 293.101 0.404385 293.101H331.596C331.703 293.101 331.806 293.145 331.882 293.222C331.957 293.3 332 293.406 332 293.516C332 293.626 331.957 293.732 331.882 293.809C331.806 293.887 331.703 293.931 331.596 293.931Z" fill="#CACACA"/>
<path d="M273.693 289.728H269.73L267.846 274.043H273.693L273.693 289.728Z" fill="#FFB6B6"/>
<path d="M274.703 293.67L261.928 293.67V293.504C261.928 292.15 262.452 290.852 263.384 289.895C264.317 288.938 265.582 288.4 266.9 288.4L274.703 288.401L274.703 293.67Z" fill="#2F2E41"/>
<path d="M292.064 289.728H288.102L286.218 274.043H292.065L292.064 289.728Z" fill="#FFB6B6"/>
<path d="M293.075 293.67L280.3 293.67V293.504C280.3 292.15 280.824 290.852 281.756 289.895C282.689 288.938 283.953 288.4 285.272 288.4L293.075 288.401L293.075 293.67Z" fill="#2F2E41"/>
<path d="M225.559 289.728H229.522L230.257 273.958L225.559 274.043L225.559 289.728Z" fill="#FFB6B6"/>
<path d="M224.549 288.401L232.351 288.4C233.67 288.4 234.935 288.938 235.868 289.895C236.8 290.852 237.324 292.15 237.324 293.504V293.67L224.549 293.67L224.549 288.401Z" fill="#2F2E41"/>
<path d="M209.543 289.728H213.505L214.29 273.958L209.543 274.043L209.543 289.728Z" fill="#FFB6B6"/>
<path d="M208.533 288.401L216.335 288.4C217.654 288.4 218.919 288.938 219.851 289.895C220.784 290.852 221.308 292.15 221.308 293.504V293.67L208.533 293.67L208.533 288.401Z" fill="#2F2E41"/>
<path d="M243.842 223.27C243.694 222.877 243.631 222.455 243.659 222.034C243.686 221.613 243.804 221.203 244.002 220.834C244.201 220.464 244.476 220.144 244.808 219.896C245.141 219.647 245.522 219.477 245.925 219.396L259.452 197.075L264.023 201.244L249.289 221.873C249.377 222.578 249.21 223.291 248.819 223.878C248.428 224.464 247.842 224.883 247.17 225.056C246.499 225.228 245.789 225.141 245.176 224.812C244.562 224.483 244.088 223.935 243.842 223.27Z" fill="#FFB6B6"/>
<path d="M305.665 231.532C305.289 231.361 304.954 231.108 304.684 230.791C304.414 230.473 304.214 230.098 304.1 229.693C303.986 229.287 303.96 228.861 304.024 228.444C304.088 228.027 304.24 227.63 304.469 227.28L298.657 201.679L304.761 201.309L308.555 226.59C309.102 227.025 309.475 227.651 309.603 228.349C309.731 229.047 309.605 229.769 309.249 230.379C308.892 230.988 308.331 231.441 307.671 231.654C307.01 231.867 306.297 231.823 305.665 231.532Z" fill="#FFB6B6"/>
<path d="M248.137 222.169C248.121 221.698 248.005 221.236 247.797 220.816C247.588 220.396 247.293 220.028 246.931 219.738C246.569 219.448 246.149 219.243 245.702 219.138C245.254 219.032 244.79 219.028 244.341 219.127L238.556 209.329L236.07 214.708L241.944 223.188C242.155 223.951 242.632 224.608 243.284 225.034C243.936 225.461 244.718 225.627 245.481 225.502C246.245 225.376 246.937 224.968 247.426 224.353C247.916 223.739 248.169 222.962 248.137 222.169Z" fill="#FFB6B6"/>
<path d="M199.798 232.418C200.068 232.037 200.254 231.599 200.341 231.137C200.428 230.674 200.416 230.197 200.304 229.74C200.193 229.283 199.985 228.856 199.696 228.49C199.406 228.124 199.042 227.828 198.629 227.622L199.942 216.245L194.757 218.915L194.306 229.31C194.015 230.045 193.997 230.864 194.255 231.612C194.513 232.36 195.03 232.985 195.707 233.368C196.384 233.751 197.175 233.866 197.929 233.691C198.683 233.516 199.348 233.063 199.798 232.418Z" fill="#FFB6B6"/>
<path d="M270.552 220.893L268.872 224.396L267.548 283.92L276.193 284.57L284.305 240.915L286.262 283.92L293.371 283.99L301.061 225.339L270.552 220.893Z" fill="#2F2E41"/>
<path d="M227.883 220.893L230.688 222.599C230.688 222.599 232.968 224.088 232.201 234.448C231.435 244.809 230.519 286.317 230.519 286.317H225.545L217.491 236.733L214.552 286.854L209.317 286.585C209.317 286.585 198.622 229.523 203.25 223.33L227.883 220.893Z" fill="#2F2E41"/>
<path d="M269.937 178.025L279.381 174.791L290.976 174.965L298.865 178.197L301.061 225.339C301.061 225.339 283.798 235.954 268.871 224.396L269.937 178.025Z" fill="#E4E4E4"/>
<path d="M269.937 177.61C269.937 177.61 266.212 177.162 264.135 183.509C262.059 189.856 256.567 198.442 256.567 198.442L262.574 204.224L274.588 187.122L269.937 177.61Z" fill="#E4E4E4"/>
<path d="M295.935 179.088L298.865 178.197C298.865 178.197 305.502 179.105 305.767 186.434C306.032 193.763 307.287 205.234 307.287 205.234L300.517 206.619L295.935 179.088Z" fill="#E4E4E4"/>
<path d="M201.557 184.229C201.557 184.229 215.2 179.727 226.209 183.924L225.307 205.719L232.098 222.72C232.098 222.72 210.511 231.314 203.317 224.091L205.415 207.062L201.557 184.229Z" fill="#3D8D7F"/>
<path d="M222.541 186.484L225.4 183.924C225.4 183.924 227.307 183.901 228.948 186.913C230.589 189.924 233.563 199.646 233.563 199.646L243.082 216.197L238.894 219.152L223.797 197.479L222.541 186.484Z" fill="#3D8D7F"/>
<path d="M202.063 185.303L202.258 183.938C202.258 183.938 196.942 184.342 196.492 189.599C196.042 194.857 194.398 224.525 194.398 224.525L199.656 225.6L204.887 195.15L202.063 185.303Z" fill="#3D8D7F"/>
<path d="M285.933 170.448C290.806 170.448 294.756 166.394 294.756 161.392C294.756 156.391 290.806 152.336 285.933 152.336C281.061 152.336 277.111 156.391 277.111 161.392C277.111 166.394 281.061 170.448 285.933 170.448Z" fill="#FFB6B6"/>
<path d="M220.492 176.352L204.543 179.575C204.215 179.641 203.875 179.571 203.597 179.38C203.32 179.188 203.127 178.892 203.062 178.555L201.708 171.499C201.47 170.257 201.473 168.98 201.715 167.739C201.958 166.498 202.437 165.319 203.124 164.268C204.511 162.145 206.663 160.675 209.106 160.182C211.55 159.688 214.084 160.21 216.152 161.635C218.219 163.059 219.651 165.267 220.132 167.775L221.486 174.831C221.55 175.168 221.482 175.518 221.296 175.803C221.109 176.088 220.82 176.285 220.492 176.352Z" fill="#2F2E41"/>
<path d="M213.049 177.55C216.851 177.55 219.933 174.386 219.933 170.484C219.933 166.582 216.851 163.419 213.049 163.419C209.248 163.419 206.166 166.582 206.166 170.484C206.166 174.386 209.248 177.55 213.049 177.55Z" fill="#FFB6B6"/>
<path d="M222.447 168.04L212.695 170.011L212.319 168.595L212.095 170.133L210.593 170.436L209.848 167.628L209.404 170.677L206.498 171.264L206.471 171.123C206.093 169.139 206.496 167.083 207.593 165.405C208.691 163.726 210.391 162.563 212.323 162.17L213.698 161.892C215.63 161.504 217.634 161.919 219.269 163.045C220.904 164.171 222.038 165.917 222.42 167.899L222.447 168.04Z" fill="#2F2E41"/>
<path d="M214.33 178.966C214.256 178.98 214.182 178.989 214.107 178.99L206.717 179.14L204.393 167.026L212.254 165.437L212.105 165.709C210.019 169.498 213.067 174.342 215.07 176.892C215.217 177.079 215.31 177.304 215.338 177.543C215.366 177.781 215.328 178.023 215.228 178.24C215.145 178.425 215.02 178.588 214.864 178.714C214.708 178.84 214.525 178.926 214.33 178.966Z" fill="#2F2E41"/>
<path d="M277.348 153.228C278.426 152.887 279.592 153.056 280.693 153.309L280.587 153.584C283.217 152.02 286.346 151.154 289.329 151.754C292.311 152.353 295.06 154.609 295.782 157.639C296.044 158.85 296.06 160.103 295.829 161.321C295.514 163.11 294.834 164.81 293.835 166.31C292.836 167.811 291.54 169.079 290.031 170.03C289.653 170.265 289.07 170.433 288.847 170.041C288.593 169.597 289.165 169.146 289.336 168.661C289.523 168.131 289.183 167.543 288.742 167.208C288.3 166.873 287.762 166.698 287.3 166.393C286.84 166.051 286.454 165.615 286.167 165.112C285.879 164.608 285.697 164.049 285.631 163.47C285.507 162.312 285.542 161.141 285.735 159.993C283.961 160.659 282.096 161.027 280.208 161.083C279.54 161.146 278.867 161.037 278.25 160.765C277.458 160.351 276.98 159.51 276.546 158.713C276.365 158.38 276.183 158.046 276.001 157.712C275.609 157.115 275.371 156.426 275.31 155.708C275.311 154.55 276.269 153.569 277.348 153.228Z" fill="#2F2E41"/>
</g>
<defs>
<clipPath id="clip0_8_670">
<rect width="332" height="294" fill="white"/>
</clipPath>
</defs>
</svg>
